<svg id="그룹_1375" data-name="그룹 1375" xmlns="http://www.w3.org/2000/svg" xmlns:xlink="http://www.w3.org/1999/xlink" width="53.508" height="48.71" viewBox="0 0 53.508 48.71">
  <defs>
    <clipPath id="clip-path">
      <rect id="사각형_335" data-name="사각형 335" width="49.737" height="31.645" fill="none"/>
    </clipPath>
    <clipPath id="clip-path-2">
      <rect id="사각형_351" data-name="사각형 351" width="26.001" height="35.088" fill="none"/>
    </clipPath>
  </defs>
  <g id="그룹_1172" data-name="그룹 1172" transform="translate(0 0)">
    <g id="그룹_1171" data-name="그룹 1171" transform="translate(3.77 17.065)" style="mix-blend-mode: multiply;isolation: isolate">
      <g id="그룹_1170" data-name="그룹 1170" transform="translate(0 0)">
        <g id="그룹_1169" data-name="그룹 1169" clip-path="url(#clip-path)">
          <path id="패스_21757" data-name="패스 21757" d="M53.374,42.444s-15.265-8.633-15.645-8.791a11.954,11.954,0,0,0-4.029-.87l-4.273-.1c-.143-.005-.286,0-.429,0-.127,0-.254,0-.382,0q-.55.013-1.1.07c-.107.011-.3.037-.468.061-.251.035-.5.078-.748.127-.126.025-.252.045-.377.074l-.014,0h0c-.127.029-.354.09-.551.146-.124.034-.249.067-.372.105l-.053.018c-.3.1-.6.2-.89.318-.17.068-.362.146-.475.2a11.307,11.307,0,0,0-1.046.542c-.161.093-.338.2-.437.262l-.11.075c-.083.055-.227.159-.359.256-.1.071-.2.14-.289.215l-.018.015c-.181.144-.36.292-.528.448L11.425,44.3c-.192.178-.366.361-.533.546-.037.041-.075.082-.111.123q-.223.259-.415.526c-.042.058-.081.118-.121.177q-.137.2-.256.41c-.059.1-.114.205-.167.309s-.113.23-.163.346c-.043.1-.084.2-.121.294-.055.146-.1.293-.147.44h0c-.04.137-.069.275-.1.413-.016.073-.031.145-.044.218q-.03.177-.048.355c-.011.109-.018.217-.022.326,0,.09-.01.181-.009.27a5.168,5.168,0,0,0,.037.61,5.8,5.8,0,0,0,1.535,3.2c.157.171.329.336.51.5.053.048.11.094.165.14q.208.176.434.342c.061.044.121.089.183.133.21.146.429.287.663.42l0,0,.251.238-.155.045h0l-.04.011-.318-.015-.2-.06-.021-.006-.032-.007-.036-.007-.043-.006-.049,0L7.913,54.4H7.871a.851.851,0,0,0-.146.014c-.019,0-.037.008-.055.013a.8.8,0,0,0-.12.04h0a.645.645,0,0,0-.187.115.382.382,0,0,0-.135.364.351.351,0,0,0,.1.188l.163.169.163.169c.1.1.211.2.329.3l.122.1a4.98,4.98,0,0,0,.47.37c.075.051.128.09.179.131h0l.027.021.095.06c.146.093.3.194.477.291.052.029.1.052.151.079s.127.069.191.1l.08.04.2.1.373.156.032.012c.205.083.354.136.5.179.1.038.214.073.329.106s.239.065.37.1c.229.063.46.105.759.161.194.036.651.281,5.806.439.4.012.815-.009,1.233-.038l7.881,4.468a9.705,9.705,0,0,0,1.081.531h0c.154.064.452.17.65.24.065.022.129.046.195.067.114.037.31.091.484.138.121.032.24.067.361.1a21.68,21.68,0,0,0,6.409.6c2.84.007,6.657-.909,8.874-2.965l9.359-8.686c3.5-3.249,2.924-7.841-1.293-10.231" transform="translate(-7.22 -32.681)" opacity="0.1"/>
        </g>
      </g>
    </g>
    <path id="패스_21758" data-name="패스 21758" d="M29.108,8.383S12.8.431,12.43.314A5.9,5.9,0,0,0,8.993.206l-3.277,1.1c-.151.051-.3.109-.445.173-.044.02-.713.384-.744.4-.139.091-.494.362-.536.4a5.75,5.75,0,0,0-.452.418l-.008.009c-.141.148-.475.565-.51.612-.108.146-.211.3-.31.456-.021.033-.283.487-.383.692-.025.052-.048.105-.072.158q-.117.255-.219.524c-.021.055-.217.627-.282.868-.011.044-.021.09-.032.135-.052.206-.164.775-.176.847-.044.263-.082.531-.108.808L.054,22.7A14.273,14.273,0,0,0,.544,27.75a16.418,16.418,0,0,0,1.221,3.158,15.649,15.649,0,0,0,1.081,1.8A14.013,14.013,0,0,0,4.131,34.3q.345.367.71.7a10.227,10.227,0,0,0,2.354,1.623l.327.267L7.438,37h0c-.008.011-.014.017-.021.028l-.238.068L7,37.069l-.018,0-.028,0h-.03l-.034,0-.038.008-3.1.886-.006,0c-.008,0-.015.008-.023.011a.338.338,0,0,0-.1.06.32.32,0,0,0-.032.033.43.43,0,0,0-.061.091c-.007.015-.016.028-.022.043a.631.631,0,0,0-.042.172.936.936,0,0,0,.064.434.907.907,0,0,0,.248.358l.444.388c.132.116.276.226.424.337l.151.112a6.245,6.245,0,0,0,.567.392c.086.052.147.091.209.136h0l.032.021.1.058c.162.091.337.191.523.279.124.059.24.11.356.157l.286.12.365.116c.01,0,.019,0,.03.007a3.467,3.467,0,0,0,.469.115,3.441,3.441,0,0,0,.628.09,2.855,2.855,0,0,0,.3.019c.107,0,.218,0,.345,0,.161,0,.642.216,4.45-1a4.83,4.83,0,0,0,.865-.4l9.531,4.569c.228.072.757.192.8.2.214.041.713.089.752.095,1.776.24,2.913-.142,4.986-.933a7.79,7.79,0,0,0,4.561-6.667l1.385-14.892c.519-5.57-2.727-11.9-7.235-14.106" transform="translate(-0.001 0)" fill="#dcdddd"/>
    <path id="패스_21759" data-name="패스 21759" d="M25.994,10.341c4.45,2.181,7.652,8.424,7.144,13.929L31.753,39.156c-.463,4.971-3.855,7.752-7.893,6.474a7.946,7.946,0,0,1-1.105-.449l-9.834-4.809c-.162.181-.3.322-.431.447A5.758,5.758,0,0,1,10.314,42.2a3.977,3.977,0,0,1-.493.141l-.13.028-.2.032a4.222,4.222,0,0,1-.479.051,4.416,4.416,0,0,1-.645-.016,3.447,3.447,0,0,1-.628-.09,3.462,3.462,0,0,1-.5-.122l-.365-.116-.286-.121c-.116-.046-.232-.1-.356-.157-.186-.089-.36-.189-.523-.279l-.1-.058c-.1-.065-.159-.1-.221-.144a6.091,6.091,0,0,1-.59-.4l-.151-.112c-.148-.111-.291-.221-.424-.337l-.444-.388a.962.962,0,0,1-.311-.792c.026-.284.2-.455.431-.422l.481.078a1.956,1.956,0,0,0,.346.03c.05.006.1.007.154.009a2.565,2.565,0,0,0,.415,0c.073-.007.127-.009.188-.01a3.243,3.243,0,0,0,.64-.134l.18-.057.164-.077a1.381,1.381,0,0,0,.282-.153,1.665,1.665,0,0,0,.289-.21,1.524,1.524,0,0,0,.208-.2,1.645,1.645,0,0,0,.193-.231l.083-.107-.326-.267C2.747,35.39-.459,29.14.054,23.642L1.438,8.755C1.9,3.785,5.294,1,9.332,2.281a8.671,8.671,0,0,1,1.1.444Z" transform="translate(0 -0.942)" fill="#fff"/>
    <rect id="사각형_336" data-name="사각형 336" width="53.508" height="48.71" transform="translate(0 0)" fill="none"/>
    <rect id="사각형_337" data-name="사각형 337" width="53.508" height="48.71" transform="translate(0)" fill="none"/>
  </g>
  <g id="그룹_1193" data-name="그룹 1193" transform="matrix(0.995, 0.105, -0.105, 0.995, 5.513, 6.639)">
    <g id="그룹_1192" data-name="그룹 1192" transform="translate(0 0)" clip-path="url(#clip-path-2)">
      <path id="패스_21810" data-name="패스 21810" d="M0,.546,1.3.085A1.214,1.214,0,0,1,2.274.12L6.849,2.089a4.122,4.122,0,0,1,1.94,3.592L8.8,8.035v.074l-1.232.355L6.266,7.934,2.69,6.483l-2.3-.932Z" transform="translate(3.583 0)" fill="#898989"/>
      <path id="패스_21811" data-name="패스 21811" d="M1.535,7.272,6.4,9.076,7.467,8.7l.012,0h0a1.97,1.97,0,0,0,.959-1.984L8.411,2.558,7.18,2.914,2.3.932,0,0,.021,3.089C.031,4.616,2.114,7.21,1.535,7.272" transform="translate(3.977 5.551)" fill="#ffdebd"/>
      <path id="패스_21812" data-name="패스 21812" d="M7.948,0a17.364,17.364,0,0,1,3.758,10.522l-1.231.43L0,5.7,6.5.167Z" transform="translate(3.648 15.895)" fill="#869ffb"/>
      <path id="패스_21813" data-name="패스 21813" d="M6.731,0a11.38,11.38,0,0,1,1,1.005c.074.085.146.175.218.263L6.5,1.435,0,6.968,4.776,0Z" transform="translate(3.648 14.627)" fill="#869ffb"/>
      <path id="패스_21814" data-name="패스 21814" d="M0,1.846A5.648,5.648,0,0,1,3.722,0L3.8.027,3.679,2.467Z" transform="translate(1.791 12.823)" fill="#5979cc"/>
      <path id="패스_21815" data-name="패스 21815" d="M.116,0,4.909,1.777H2.954L2.241,2.818,0,2.439Z" transform="translate(5.47 12.85)" fill="#fff"/>
      <path id="패스_21816" data-name="패스 21816" d="M5.32.621h0L7.561,1,3.5,6.926,0,5.173A7.811,7.811,0,0,1,1.64,0Z" transform="translate(0.15 14.669)" fill="#fff"/>
      <path id="패스_21817" data-name="패스 21817" d="M0,0A5.472,5.472,0,0,1,1.427.407a7.474,7.474,0,0,1,1.43.823L1.473,7.313Z" transform="translate(5.567 13.24)" fill="#fff"/>
      <path id="패스_21818" data-name="패스 21818" d="M3.856,0,5.317,1.793,4.31,2.89,7.04,7.2l.022,3.254L0,7.413C-.026,3.428,1.546.666,3.856,0" transform="translate(0 13.354)" fill="#b4c4ff"/>
      <path id="패스_21819" data-name="패스 21819" d="M1.461,1.948,0,.155A4.131,4.131,0,0,1,1.712.041L3.185,7.354.454,3.045Z" transform="translate(3.856 13.199)" fill="#6f8cf5"/>
      <path id="패스_21820" data-name="패스 21820" d="M3.107,0,1.661.541,2.688,2.514,0,4.491.021,7.745l7.062,3.04A17.283,17.283,0,0,0,3.107,0" transform="translate(7.041 16.062)" fill="#b4c4ff"/>
      <path id="패스_21821" data-name="패스 21821" d="M1.661,2.134l1.446-.541A10.5,10.5,0,0,0,1.384,0L0,6.083,2.688,4.107Z" transform="translate(7.04 14.469)" fill="#6f8cf5"/>
      <path id="패스_21822" data-name="패스 21822" d="M4.492,0A6.434,6.434,0,0,0,7.462,3.319a2.793,2.793,0,0,0,.954.23l.028,4.227c.01,1.527-.842,2.395-1.9,1.938L1.967,7.746A4.123,4.123,0,0,1,.027,4.154L0,.133A4.394,4.394,0,0,0,1.486,1.257,2.168,2.168,0,0,0,4.492,0" transform="translate(2.741 4.916)" fill="#ffd1a4"/>
      <path id="패스_21823" data-name="패스 21823" d="M1.9.122,3.659.878,4.873,1.4l1.6.691a4.123,4.123,0,0,1,1.94,3.592l.015,2.354a2.794,2.794,0,0,1-.954-.229,6.435,6.435,0,0,1-2.971-3.32A2.168,2.168,0,0,1,1.5,5.745,4.4,4.4,0,0,1,.017,4.621L0,2.06C-.01.533.842-.335,1.9.122" transform="translate(2.723 0.428)" fill="#595757"/>
      <path id="패스_21824" data-name="패스 21824" d="M4.713.526C4.548.347,4.377.171,4.2,0a3.688,3.688,0,0,1-.866,1.485L0,6.024,6.388,9.312,7.769,8.255c.3-2.606-.95-5.5-3.055-7.729" transform="translate(18.186 22.263)" fill="#869ffb"/>
      <path id="패스_21825" data-name="패스 21825" d="M4.25,0A6.425,6.425,0,0,0,0,3.98L5.253,7.4C4.959,5.566,4.239,1.028,4.162.752A1.279,1.279,0,0,1,4.25,0" transform="translate(10.076 19.211)" fill="#869ffb"/>
      <path id="패스_21826" data-name="패스 21826" d="M8.179,3.253A13.172,13.172,0,0,0,6.631,1.939a11.807,11.807,0,0,0-1.478-.924A9.634,9.634,0,0,0,3.641.365h0A6.641,6.641,0,0,0,1.405,0,4.742,4.742,0,0,0,.119.2h0A1.282,1.282,0,0,0,.028.954C.1,1.229.825,5.768,1.119,7.6L3.976,9.277,7.313,4.738a3.693,3.693,0,0,0,.866-1.485" transform="translate(14.21 19.009)" fill="#efefef"/>
      <path id="패스_21827" data-name="패스 21827" d="M3.545,0,0,1.924,2.887,4.056,4.392,3.021c.009-.007.02-.012.028-.019l0,0h0a1.111,1.111,0,0,0,.384-.747A2.573,2.573,0,0,0,3.545,0" transform="translate(20.585 19.693)" fill="#777676"/>
      <path id="패스_21828" data-name="패스 21828" d="M4.953,0h0L0,3.161,1.211,4.1,4.756,2.178c-.019-.012-.037-.028-.056-.039Z" transform="translate(19.374 17.514)" fill="#ffe7cf"/>
      <path id="패스_21829" data-name="패스 21829" d="M9.6,6.329A3.473,3.473,0,0,0,7.819,3.3L5.989,2.21,4.726,1.435,3.057.378A1.584,1.584,0,0,0,1.348.166l0,0L0,.969.625,2.884.265,6.062A3.644,3.644,0,0,0,2.036,9.3l2.4,1.951L9.391,8.092Z" transform="translate(14.936 9.422)" fill="#777676"/>
      <path id="패스_21830" data-name="패스 21830" d="M3.379,2.628c-.1.887-.935,1.27-1.867.843A2.665,2.665,0,0,1,.01,1.007c.1-.915.936-1.268,1.865-.8a2.662,2.662,0,0,1,1.5,2.421" transform="translate(20.597 20.254)" fill="#595757"/>
      <path id="패스_21831" data-name="패스 21831" d="M4.6,1.119A3.174,3.174,0,0,1,1.343.763,6.453,6.453,0,0,1,.362,0L.013,3.225A3.692,3.692,0,0,0,1.8,6.5l4.8,2.531c1.116.545,2.118.1,2.239-.98L9.15,5.221a3.89,3.89,0,0,1-1.594-.474A6.646,6.646,0,0,1,4.6,1.119" transform="translate(13.74 13.172)" fill="#ffdebd"/>
      <path id="패스_21832" data-name="패스 21832" d="M7.2,3.3,5.363,2.214,4.1,1.437,2.423.378C1.317-.343.32,0,.194,1.152L0,2.938A6.46,6.46,0,0,0,.981,3.7a3.172,3.172,0,0,0,3.254.356A6.648,6.648,0,0,0,7.195,7.685a3.89,3.89,0,0,0,1.594.474l.2-1.791A3.521,3.521,0,0,0,7.2,3.3" transform="translate(14.101 10.234)" fill="#595757"/>
      <path id="패스_21833" data-name="패스 21833" d="M3,1.577A11.721,11.721,0,0,0,1.514.649,9.492,9.492,0,0,0,0,0L1.155,3.954Z" transform="translate(16.419 20.322)" fill="#ffd1a4"/>
      <path id="패스_21834" data-name="패스 21834" d="M11.789,3.785C11.016,4.876,9.5,5.194,7.869,4.4A7,7,0,0,1,4.485,0C2.1.063.317,1.791,0,4.82l14.88,6.786a10.306,10.306,0,0,0-3.09-7.821" transform="translate(9.695 19.969)" fill="#b4c4ff"/>
      <path id="패스_21835" data-name="패스 21835" d="M3.384,4.4c1.635.792,3.147.474,3.92-.617A13.386,13.386,0,0,0,5.236,1.933L3.394,4.31,2.239.356A6.547,6.547,0,0,0,0,0,7,7,0,0,0,3.384,4.4" transform="translate(14.18 19.967)" fill="#fff"/>
      <path id="패스_21836" data-name="패스 21836" d="M2.752,2.284,0,1.108.121,0l2.75,1.205Z" transform="translate(19.751 26.28)" fill="#869ffb"/>
      <path id="패스_21837" data-name="패스 21837" d="M.676.541A.24.24,0,0,1,.3.724.545.545,0,0,1,0,.218.238.238,0,0,1,.376.037a.545.545,0,0,1,.3.5" transform="translate(17.156 25.558)" fill="#fff"/>
      <path id="패스_21838" data-name="패스 21838" d="M.677.536A.243.243,0,0,1,.3.725a.539.539,0,0,1-.3-.5A.241.241,0,0,1,.377.035a.537.537,0,0,1,.3.5" transform="translate(16.999 27.003)" fill="#fff"/>
    </g>
  </g>
</svg>
