<svg id="그룹_1383" data-name="그룹 1383" xmlns="http://www.w3.org/2000/svg" xmlns:xlink="http://www.w3.org/1999/xlink" width="49.428" height="49.974" viewBox="0 0 49.428 49.974">
  <defs>
    <clipPath id="clip-path">
      <rect id="사각형_352" data-name="사각형 352" width="20.093" height="21.784" fill="none"/>
    </clipPath>
    <clipPath id="clip-path-2">
      <path id="패스_21845" data-name="패스 21845" d="M2.68,8.761c0,3.879,3.245,7.754,7.248,8.655s7.247-1.618,7.247-5.627A9.218,9.218,0,0,0,9.928,3.133a7.506,7.506,0,0,0-1.421-.139A5.6,5.6,0,0,0,2.68,8.761" transform="translate(-2.68 -2.994)" fill="none"/>
    </clipPath>
  </defs>
  <g id="그룹_1199" data-name="그룹 1199" transform="translate(0 0)">
    <g id="그룹_1181" data-name="그룹 1181">
      <g id="그룹_1200" data-name="그룹 1200" transform="translate(0 0)">
        <path id="패스_21768" data-name="패스 21768" d="M68.476,115.834Z" transform="translate(-30.94 -65.86)"/>
        <path id="패스_21846" data-name="패스 21846" d="M3.9,41.52S3.084,44.8,5.819,46.444,29.346,57.66,29.346,57.66,34,60.67,39.195,54.651c5.563-5.107,11.216-10.943,11.216-10.943s2.462-3.283-1.641-7.113S25.243,24.832,25.243,24.832Z" transform="translate(-1.716 -11.793)" opacity="0.1"/>
        <path id="패스_21770" data-name="패스 21770" d="M3.5,10.81.1,11.344.01,33.543A5.586,5.586,0,0,0,3.094,38.1L28.1,49.7a2.86,2.86,0,0,0,1.7.3c-.009,0-.018.006-.028.007h0l3.394-.534a1.823,1.823,0,0,0,.28-.069c.026-.009.051-.019.077-.028a1.6,1.6,0,0,0,.19-.086c.022-.012.045-.023.067-.036A1.56,1.56,0,0,0,34,49.1L34,49.1c.008-.006.014-.014.021-.02a1.612,1.612,0,0,0,.129-.126c.016-.019.032-.04.048-.06l.028-.035c.01-.013.021-.024.03-.038.028-.04.055-.081.081-.123.014-.025.027-.051.041-.076l.011-.021.013-.024c.019-.039.037-.08.054-.121s.03-.076.043-.115l.01-.033.006-.019c.007-.022.014-.044.02-.066.01-.038.02-.078.028-.117s.016-.079.022-.12c0-.009,0-.019,0-.029a.178.178,0,0,1,0-.018c0-.025.008-.05.01-.075,0-.041.008-.083.011-.125s0-.085.006-.129c0-.017,0-.035,0-.052l.092-22.2Z" transform="translate(-0.004 -6.146)" fill="#c9caca"/>
        <path id="패스_21771" data-name="패스 21771" d="M.092,12.045,0,34.244A5.587,5.587,0,0,0,3.084,38.8L28.093,50.4c1.716.813,3.113.092,3.123-1.612l.092-22.2Z" transform="translate(0 -6.849)" fill="#fff"/>
        <path id="패스_21772" data-name="패스 21772" d="M34.805,16.406c0-.045,0-.09-.006-.135s0-.062-.007-.092c0-.008,0-.016,0-.023s0-.017,0-.025c0-.047-.01-.1-.016-.144s-.015-.1-.025-.149h0c-.009-.051-.02-.1-.032-.155s-.025-.11-.04-.165l0-.006,0-.012q-.021-.078-.044-.155t-.051-.154l-.006-.019,0-.009c-.025-.069-.05-.139-.078-.208-.009-.022-.019-.043-.029-.065s-.028-.066-.043-.1-.025-.061-.039-.091-.019-.033-.027-.05c-.078-.165-.164-.328-.26-.488-.012-.02-.025-.039-.037-.059-.1-.156-.2-.308-.31-.456-.008-.011-.015-.023-.023-.034L33.7,13.59c-.024-.031-.049-.061-.073-.092-.04-.05-.078-.1-.119-.149l-.035-.039-.064-.072c-.029-.032-.056-.065-.086-.1s-.065-.068-.1-.1l-.045-.048-.026-.027c-.051-.051-.1-.1-.156-.15l-.054-.048-.04-.036-.055-.05c-.048-.041-.1-.082-.146-.121l-.048-.038-.032-.025-.055-.044c-.045-.034-.09-.067-.136-.1l-.074-.051-.026-.018-.031-.022-.132-.084-.13-.078,0,0,0,0-.123-.068-.132-.068-.059-.028L6.713.334,6.638.3C6.593.279,6.548.26,6.5.242L6.367.189l-.1-.033L6.255.151,6.229.142C6.18.127,6.132.112,6.083.1s-.1-.025-.148-.036L5.847.046,5.819.041,5.775.033C5.717.024,5.658.016,5.6.011S5.492,0,5.439,0H5.4a2.148,2.148,0,0,0-.243.01c-.039,0-.077.009-.115.015L1.652.559c.017,0,.036,0,.054,0A1.755,1.755,0,0,0,.195,2.48L.178,5.2,31.394,19.739l3.393-.534.018-2.718v-.081" transform="translate(-0.08 0)" fill="#5b8d9e"/>
        <path id="패스_21773" data-name="패스 21773" d="M28.326,13.172,3.319,1.571C1.6.76.206,1.479.195,3.184L.177,5.9,31.393,20.442l.018-2.718a5.58,5.58,0,0,0-3.085-4.553" transform="translate(-0.08 -0.704)" fill="#99c2d1"/>
        <path id="패스_21774" data-name="패스 21774" d="M44.937,29.82l-1.272-.6c-.364-.173-.665-.023-.668.341l-.008,1.266a1.2,1.2,0,0,0,.659.969l1.272.6c.364.172.665.02.668-.342l.008-1.266a1.19,1.19,0,0,0-.659-.969" transform="translate(-19.424 -16.572)" fill="#7da8b7"/>
        <path id="패스_21775" data-name="패스 21775" d="M50.925,33.424l-1.268-.6c-.367-.174-.665-.023-.668.341l-.008,1.266a1.191,1.191,0,0,0,.659.97l1.268.6c.367.174.665.02.668-.342l.008-1.266a1.185,1.185,0,0,0-.659-.97" transform="translate(-22.131 -18.621)" fill="#7da8b7"/>
        <path id="패스_21776" data-name="패스 21776" d="M38.947,26.215l-1.268-.6c-.367-.174-.665-.023-.668.341L37,27.221a1.191,1.191,0,0,0,.659.97l1.268.6c.367.174.665.02.668-.342l.008-1.266a1.185,1.185,0,0,0-.659-.97" transform="translate(-16.719 -14.523)" fill="#7da8b7"/>
        <path id="패스_21777" data-name="패스 21777" d="M51.386,34.946l.061.045-.01.063L51,35.409l.457.826.012.073-.058-.008-.229-.108-.032-.022-.026-.032-.32-.578-.321.271-.029.012-.029-.011-.232-.11-.058-.047.017-.06.464-.39-.435-.77-.009-.069.061.01.216.1.038.025.026.035.294.527.3-.245.026-.01.039.012Z" transform="translate(-22.651 -19.553)" fill="#fff"/>
        <path id="패스_21778" data-name="패스 21778" d="M39.483,28c0,.034.006.077.006.125l-.005.8a1.013,1.013,0,0,1-.007.116l-.03.06L39.4,29.1a.331.331,0,0,1-.081-.028l-.943-.447a.577.577,0,0,1-.093-.053l-.052-.063-.029-.087c0-.034-.006-.073-.005-.122l0-.8c0-.1.014-.157.037-.178s.068-.019.132.011l.943.447a.385.385,0,0,1,.094.057l.054.064a.247.247,0,0,1,.025.089m-.32.589,0-.451-.025-.054-.6-.282-.029.031,0,.451.029.052.6.282.023,0,0-.034" transform="translate(-17.257 -15.53)" fill="#fff"/>
        <path id="패스_21779" data-name="패스 21779" d="M45.417,33.6l.042.029.016.03,0,.272-.016.015-.042-.01L44.24,33.38l-.038-.028-.019-.031,0-.272.019-.013.039.009Z" transform="translate(-19.963 -18.783)" fill="#fff"/>
      </g>
    </g>
    <g id="그룹_1198" data-name="그룹 1198" transform="translate(5.44 15.207)">
      <g id="그룹_1195" data-name="그룹 1195" transform="translate(0 0)">
        <g id="그룹_1194" data-name="그룹 1194" clip-path="url(#clip-path)">
          <path id="패스_21839" data-name="패스 21839" d="M19.594,17.827,16.474,15a1.5,1.5,0,0,0-.2-.152,8.107,8.107,0,0,0,1.277-4.485A10.61,10.61,0,0,0,8.775.089,7.438,7.438,0,0,0,0,7.619,10.849,10.849,0,0,0,8.775,17.894a7.474,7.474,0,0,0,6.041-1.44,1.519,1.519,0,0,0,.259.313l3.12,2.831a1.133,1.133,0,0,0,1.673,0,1.344,1.344,0,0,0-.274-1.774" transform="translate(0 0)" fill="#7da8b7"/>
          <path id="패스_21840" data-name="패스 21840" d="M17.424,11.426a6.006,6.006,0,0,1-7.371,6.2A9.37,9.37,0,0,1,2.681,8.829a6.127,6.127,0,0,1,7.371-6.2,9.132,9.132,0,0,1,7.371,8.793" transform="translate(-1.277 -1.21)" fill="#fff"/>
        </g>
      </g>
      <g id="그룹_1197" data-name="그룹 1197" transform="translate(1.403 2.115)">
        <g id="그룹_1196" data-name="그룹 1196" clip-path="url(#clip-path-2)">
          <path id="패스_21842" data-name="패스 21842" d="M16.253,31.393a16.682,16.682,0,0,0-1.035-5.168c-.148-.393-.308-.775-.483-1.143-1.2-2.529-3.011-4.366-5.031-4.809-2.757-.6-5.116,1.5-6.086,4.982Z" transform="translate(-3.127 -11.177)" fill="#bdd5de"/>
          <path id="패스_21844" data-name="패스 21844" d="M10.191,9.269c0-2.063,1.487-3.44,3.313-3.07a4.6,4.6,0,0,1,3.313,4.467c0,2.093-1.486,3.47-3.313,3.069a4.652,4.652,0,0,1-3.313-4.466" transform="translate(-6.258 -4.492)" fill="#bdd5de"/>
        </g>
      </g>
    </g>
  </g>
</svg>
