<svg id="그룹_1384" data-name="그룹 1384" xmlns="http://www.w3.org/2000/svg" xmlns:xlink="http://www.w3.org/1999/xlink" width="54.552" height="38.439" viewBox="0 0 54.552 38.439">
  <defs>
    <clipPath id="clip-path">
      <rect id="사각형_340" data-name="사각형 340" width="49.446" height="32.341" fill="none"/>
    </clipPath>
    <clipPath id="clip-path-3">
      <rect id="사각형_338" data-name="사각형 338" width="46.789" height="30.75" fill="none"/>
    </clipPath>
    <clipPath id="clip-path-4">
      <rect id="사각형_361" data-name="사각형 361" width="25.568" height="20.138" fill="none"/>
    </clipPath>
    <clipPath id="clip-path-5">
      <path id="패스_21875" data-name="패스 21875" d="M79.121,7.8c0,.032,0,.064-.011.1s-.013.052-.02.078-.015.061-.026.091-.02.049-.031.074-.028.063-.045.095-.027.045-.041.068-.045.071-.072.106-.051.067-.08.1l-.02.023c-.039.043-.083.085-.128.126-.029.026-.062.052-.094.077s-.055.045-.085.067-.072.049-.11.073-.075.051-.116.075l-7.381,4.289-.006,1.976,7.381-4.289.037-.022c.028-.017.052-.035.078-.052s.075-.048.11-.073.057-.045.085-.067.064-.051.093-.077l.019-.016c.039-.036.075-.073.11-.11l.02-.023c.02-.023.041-.046.059-.069s.014-.021.021-.031c.026-.035.049-.07.071-.106.009-.015.022-.029.03-.044s.007-.016.011-.023c.017-.032.031-.063.044-.1s.019-.037.026-.055,0-.013.005-.019c.011-.03.018-.061.026-.091s.014-.041.018-.061c0-.005,0-.011,0-.016.006-.032.008-.064.011-.1s.007-.042.007-.063,0-.018,0-.027l.006-1.976c0,.029,0,.059-.008.089" transform="translate(-70.857 -7.707)" fill="none"/>
    </clipPath>
    <linearGradient id="linear-gradient" x1="-1.371" y1="2.01" x2="-1.35" y2="2.01" gradientUnits="objectBoundingBox">
      <stop offset="0" stop-color="#c37b58"/>
      <stop offset="1" stop-color="#d9b068"/>
    </linearGradient>
    <clipPath id="clip-path-6">
      <path id="패스_21876" data-name="패스 21876" d="M0,23.58l.039,6.871a1.538,1.538,0,0,0,.9,1.246c.066.038.135.074.206.108.055.038.113.076.175.112l10.121,5.843c.066.038.135.074.206.107.023.011.048.021.072.032.042.019.083.038.127.055l.015.005c.1.038.2.072.3.1l.025.008.072.017c.057.015.115.03.173.043l.047.011.07.012.148.026.06.01.066.007.14.016.067.007.063,0,.142.008.071,0h.287l.045,0c.063,0,.127-.007.189-.013l.076,0,.023,0q.162-.017.319-.044l.015,0c.031-.006.06-.013.09-.019.052-.011.1-.021.155-.033l.11-.03c.049-.013.1-.026.145-.041l.031-.009.049-.019c.076-.026.149-.054.221-.084l.08-.034a2.855,2.855,0,0,0,.265-.134l8.7-5.055.035-.02c.026-.015.048-.032.072-.048s.069-.044.1-.068.053-.041.079-.062.059-.047.086-.071l.017-.015c.036-.033.069-.067.1-.1l.018-.021c.019-.021.038-.043.055-.064s.012-.019.019-.029c.024-.032.046-.065.066-.1.009-.014.02-.027.028-.041s.006-.014.01-.021c.015-.029.028-.058.041-.087s.017-.034.024-.051,0-.012.005-.017c.01-.028.017-.056.024-.084s.012-.038.016-.057,0-.01,0-.015c.005-.029.007-.058.01-.088s.006-.039.007-.058,0-.016,0-.025l.006-1.976c0,.027,0,.055-.007.082s0,.059-.01.088-.012.048-.018.072-.014.056-.024.084-.019.046-.029.068-.025.058-.041.087-.025.042-.038.062-.042.066-.066.1-.048.062-.075.093l-.018.021c-.036.04-.076.078-.118.116-.027.024-.057.047-.086.071s-.051.042-.079.062-.066.045-.1.067-.069.046-.107.069l-8.7,5.055a2.909,2.909,0,0,1-.265.134l-.08.034c-.072.03-.146.058-.221.084l-.08.028c-.047.015-.1.028-.145.041s-.073.021-.11.029-.1.023-.155.033l-.106.021c-.105.019-.211.033-.319.044l-.1.008c-.063.005-.126.01-.19.013l-.121,0h-.154l-.128,0-.142-.008-.13-.011-.14-.016L12.7,36.2l-.148-.026-.117-.024c-.058-.013-.116-.027-.174-.043l-.1-.026c-.1-.03-.2-.064-.3-.1-.048-.019-.1-.04-.142-.061l-.072-.032c-.071-.034-.14-.069-.206-.108L1.323,29.941c-.062-.035-.12-.073-.175-.112-.071-.034-.14-.071-.205-.108a1.537,1.537,0,0,1-.9-1.245L.006,21.6Z" transform="translate(0 -21.604)" fill="none"/>
    </clipPath>
    <linearGradient id="linear-gradient-2" x1="0.083" y1="0.808" x2="0.091" y2="0.808" xlink:href="#linear-gradient"/>
    <clipPath id="clip-path-7">
      <path id="패스_21877" data-name="패스 21877" d="M21.5,0a4.353,4.353,0,0,0-2.114.517L10.029,5.956,6.135,8.218,6.116,4.971a1.538,1.538,0,0,0-.9-1.248A4.394,4.394,0,0,0,3.06,3.206C1.379,3.207.02,4,.024,4.971l.039,6.871a1.537,1.537,0,0,0,.9,1.245c.066.038.134.074.205.108.055.039.113.077.175.112l10.121,5.843a4.369,4.369,0,0,0,3.968,0l8.7-5.055a1.214,1.214,0,0,0-.013-2.3L16.327,7.3l7.381-4.289a1.318,1.318,0,0,0-.014-2.5A4.39,4.39,0,0,0,21.575,0Z" transform="translate(-0.024)" fill="none"/>
    </clipPath>
    <linearGradient id="linear-gradient-3" y1="1.092" x2="0.009" y2="1.092" gradientUnits="objectBoundingBox">
      <stop offset="0" stop-color="#dab23a"/>
      <stop offset="1" stop-color="#fae883"/>
    </linearGradient>
  </defs>
  <g id="그룹_1179" data-name="그룹 1179" transform="translate(5.107 0)">
    <g id="그룹_1178" data-name="그룹 1178" clip-path="url(#clip-path)">
      <g id="그룹_1177" data-name="그룹 1177" transform="translate(0 0)">
        <g id="그룹_1176" data-name="그룹 1176" clip-path="url(#clip-path)">
          <g id="그룹_1175" data-name="그룹 1175" transform="translate(2.656 1.591)" style="mix-blend-mode: multiply;isolation: isolate">
            <g id="그룹_1174" data-name="그룹 1174">
              <g id="그룹_1173" data-name="그룹 1173" clip-path="url(#clip-path-3)">
                <path id="패스_21760" data-name="패스 21760" d="M51.792,20.316a3.421,3.421,0,0,0-.313-1.7l-.009-.023a4.3,4.3,0,0,0-.281-.5c-.012-.018-.02-.037-.032-.055a4.983,4.983,0,0,0-.347-.454c-.024-.029-.043-.058-.068-.086-.122-.138-.26-.272-.4-.406-.039-.036-.072-.074-.112-.11-.144-.128-.305-.251-.469-.374-.05-.038-.093-.077-.145-.114-.22-.156-.456-.308-.71-.455l-3.477-2a2.438,2.438,0,0,0,.162-1.135,9.533,9.533,0,0,0,0-.953c.007-.068.011-.138.012-.21v-.023c0-.064,0-.128-.007-.194,0-.014,0-.03,0-.044-.006-.06-.014-.12-.025-.182,0-.02-.008-.04-.012-.06-.012-.057-.025-.114-.041-.173-.007-.024-.015-.049-.022-.074-.017-.055-.037-.111-.058-.166-.011-.029-.023-.057-.035-.085q-.034-.08-.075-.162l-.049-.094c-.029-.052-.059-.1-.092-.158-.021-.034-.042-.069-.065-.1-.034-.052-.072-.1-.111-.156-.026-.037-.054-.073-.083-.109s-.085-.1-.13-.155-.066-.076-.1-.114-.1-.1-.152-.154-.079-.078-.121-.117-.116-.1-.175-.155-.092-.08-.141-.12-.132-.1-.2-.156c-.053-.04-.1-.081-.161-.121-.073-.052-.153-.105-.231-.158-.059-.04-.116-.079-.178-.12-.086-.055-.18-.111-.272-.166-.063-.038-.122-.076-.189-.114-.107-.061-.222-.122-.336-.183-.06-.032-.115-.065-.177-.1-.181-.094-.37-.187-.57-.28l-7.594-4c-.2-.1-.395-.187-.594-.265-.061-.024-.124-.044-.185-.066-.141-.05-.282-.1-.424-.137-.068-.02-.137-.037-.205-.054-.143-.036-.286-.066-.429-.093-.06-.011-.121-.023-.182-.032q-.269-.041-.539-.062l-.066-.006Q31.243,3,30.918,3h0c-.208,0-.417.017-.624.037l-.091.01q-.278.029-.554.076l-.081.014q-.307.054-.61.127h0q-.405.1-.8.226L28.12,3.5a13.5,13.5,0,0,0-1.48.581l-.128.06c-.225.105-.446.214-.661.328L22.636,6.218c-.232.032-.562.086-.9.146-.465.082-.927.173-1.107.225h0a8.478,8.478,0,0,0-1.244.471l-.01,0a8.109,8.109,0,0,0-2.4.843L7.192,13.194a5.854,5.854,0,0,0-.759.491,4.7,4.7,0,0,0-.392.339c-.044.042-.082.086-.123.129-.07.074-.14.149-.2.225-.046.056-.087.114-.129.171s-.09.129-.13.194-.081.136-.117.2-.052.109-.076.163c-.036.081-.072.161-.1.243-.011.032-.018.064-.028.1a2.821,2.821,0,0,0-.114,1.065c-.006.078-.006.475.006.9a2.887,2.887,0,0,0-.006.529,13.355,13.355,0,0,0,.1,2A6.09,6.09,0,0,0,7.9,23.211c.075.049,15.213,8.763,15.3,8.806a16.322,16.322,0,0,0,5.75,1.649,14.109,14.109,0,0,0,5.618-.477l0,0,.02-.01c.157-.051.316-.1.466-.16C35.375,32.9,48.634,25.7,48.634,25.7c2.216-1.208,3.266-2.832,3.157-4.433C51.8,21.11,51.8,20.475,51.792,20.316Z" transform="translate(-5.013 -3.003)" opacity="0.1"/>
              </g>
            </g>
          </g>
          <path id="패스_21761" data-name="패스 21761" d="M46.791,17.315c.119-1.54-.834-3.1-2.89-4.281l-3.477-2A2.438,2.438,0,0,0,40.587,9.9c.015-.152.016-.788,0-.954.118-1.127-.533-2.675-3.8-4.2l-7.594-4A7.434,7.434,0,0,0,23.953.268a13.517,13.517,0,0,0-3.1,1.2L11.326,6.645,2.192,11.623a5.8,5.8,0,0,0-.759.492,3.183,3.183,0,0,0-1.411,2.83,13.368,13.368,0,0,0,.1,2A6.092,6.092,0,0,0,2.9,20.211c.075.049,15.213,8.763,15.3,8.806a16.333,16.333,0,0,0,5.75,1.649,14.108,14.108,0,0,0,5.618-.477l0,0,.02-.01c.157-.051.316-.1.466-.16C30.375,29.9,43.634,22.7,43.634,22.7c2.216-1.208,3.266-2.833,3.157-4.433.012-.159.011-.794,0-.953" transform="translate(-0.005 -0.001)" fill="#869ffb"/>
          <path id="패스_21762" data-name="패스 21762" d="M43.9,13.033l-4.159-2.394s3.271-2.986-2.957-5.9l-7.594-4C26.4-.69,23.3.178,20.845,1.471L11.32,6.644,2.187,11.622a5.794,5.794,0,0,0-.758.492,3.107,3.107,0,0,0-1.316,3.4A6.094,6.094,0,0,0,2.9,18.779c.075.049,15.213,8.763,15.3,8.806a16.325,16.325,0,0,0,5.75,1.649,14.108,14.108,0,0,0,5.618-.477l0,0,.019-.01c.157-.051.316-.1.466-.16.316-.122,13.575-7.321,13.575-7.321,4.128-2.25,4.249-5.945.268-8.237" transform="translate(0 0)" fill="#b4c4ff"/>
          <path id="패스_21763" data-name="패스 21763" d="M45.124,21.267c.006-.076.006-.153.005-.229-.011-1.443-1.124-3-3.281-4.242L27.868,8.75A16.008,16.008,0,0,0,20.387,6.8c-.137,0-.273,0-.409,0-.4,0-.789.021-1.172.054s-1.865.3-2.225.4h0a8.1,8.1,0,0,0-1.645.659l0,0L4.156,13.7a5.7,5.7,0,0,0-.74.48,3.1,3.1,0,0,0-1.377,2.762,2.936,2.936,0,0,0,.093,1.022,5.944,5.944,0,0,0,2.719,3.186c.073.048,3.763,2.175,7.456,4.3S19.7,29.7,19.78,29.738a15.934,15.934,0,0,0,5.611,1.609,13.282,13.282,0,0,0,5.958-.629C31.657,30.6,43,24.529,43,24.529a5.112,5.112,0,0,0,1.224-.905l0,0a6.362,6.362,0,0,0,.771-1.235,2.733,2.733,0,0,0,.129-.655c.006-.076.006-.153.005-.229,0-.052-.013-.1-.016-.157,0-.026.008-.052.011-.079" transform="translate(-0.954 -3.193)" fill="#dcdddd"/>
          <path id="패스_21764" data-name="패스 21764" d="M45.124,20.389c.006-.076.006-.153.005-.229-.011-1.443-1.124-3-3.281-4.242L27.868,7.872a16.008,16.008,0,0,0-7.481-1.953c-.137,0-.273,0-.409,0-.4,0-.789.021-1.172.055s-1.865.295-2.225.4h0a8.1,8.1,0,0,0-1.645.659l0,0L4.156,12.817a5.7,5.7,0,0,0-.74.48,3.1,3.1,0,0,0-1.377,2.762,2.936,2.936,0,0,0,.093,1.022,5.944,5.944,0,0,0,2.719,3.186c.073.048,3.763,2.175,7.456,4.3s7.389,4.25,7.473,4.292a15.934,15.934,0,0,0,5.611,1.609,13.282,13.282,0,0,0,5.958-.629c.308-.119,11.65-6.19,11.65-6.19a5.112,5.112,0,0,0,1.224-.905l0,0a6.362,6.362,0,0,0,.771-1.235,2.733,2.733,0,0,0,.129-.655c.006-.076.006-.153.005-.229,0-.052-.013-.1-.016-.157,0-.026.008-.052.011-.079" transform="translate(-0.954 -2.78)" fill="#efefef"/>
          <path id="패스_21765" data-name="패스 21765" d="M44.219,22.279a6.362,6.362,0,0,0,.771-1.235,2.759,2.759,0,0,0,.129-.655c.005-.076.006-.153.005-.229-.011-1.443-1.124-3-3.281-4.242L27.863,7.871a16.008,16.008,0,0,0-7.481-1.953c-.137,0-.273,0-.409,0-.4,0-.789.021-1.172.055s-1.865.3-2.225.4h0a8.1,8.1,0,0,0-1.645.659l0,0L4.151,12.817a5.661,5.661,0,0,0-.74.48,3.034,3.034,0,0,0-1.284,3.32A5.947,5.947,0,0,0,4.846,19.8c.073.048,3.763,2.175,7.456,4.3s7.389,4.25,7.472,4.292A15.94,15.94,0,0,0,25.386,30a13.282,13.282,0,0,0,5.958-.629c.308-.119,11.65-6.19,11.65-6.19a5.112,5.112,0,0,0,1.224-.905l0,0" transform="translate(-0.948 -2.78)" fill="#fff"/>
          <path id="패스_21766" data-name="패스 21766" d="M40.594,22.708c.119-1.54-.834-3.1-2.89-4.281l-13.75-7.657L19.771,8.44a8.107,8.107,0,0,0-7.795-.05L2.192,13.678a5.854,5.854,0,0,0-.759.491A3.184,3.184,0,0,0,.022,17a13.371,13.371,0,0,0,.1,2A6.091,6.091,0,0,0,2.9,22.266c.075.05,15.213,8.763,15.3,8.806a16.322,16.322,0,0,0,5.75,1.649,14.09,14.09,0,0,0,5.618-.477l0,0,.02-.01c.157-.051.316-.1.466-.16.316-.122,7.377-3.984,7.377-3.984,2.216-1.208,3.266-2.833,3.157-4.433.012-.159.011-.794,0-.953" transform="translate(-0.005 -3.486)" fill="#869ffb"/>
          <path id="패스_21767" data-name="패스 21767" d="M37.7,18.427,19.765,8.441a8.106,8.106,0,0,0-7.795-.051L2.187,13.678a5.854,5.854,0,0,0-.759.491,3.109,3.109,0,0,0-1.315,3.4A6.094,6.094,0,0,0,2.9,20.836c.075.049,15.213,8.763,15.3,8.806a16.347,16.347,0,0,0,5.75,1.649,14.108,14.108,0,0,0,5.618-.477l0,0,.019-.011c.157-.051.316-.1.466-.159.316-.122,7.377-3.984,7.377-3.984,4.128-2.25,4.249-5.945.268-8.237" transform="translate(0 -3.486)" fill="#b4c4ff"/>
        </g>
      </g>
    </g>
  </g>
  <g id="그룹_1217" data-name="그룹 1217" transform="translate(0 14.391)">
    <g id="그룹_1216" data-name="그룹 1216" transform="translate(0 3.911)" opacity="0.1">
      <g id="그룹_1215" data-name="그룹 1215" transform="translate(0 0)" clip-path="url(#clip-path-4)">
        <path id="패스_21878" data-name="패스 21878" d="M24.719,12.1,16.727,7.491,24.3,3.09a1.353,1.353,0,0,0-.014-2.56,4.866,4.866,0,0,0-4.419,0l-9.6,5.58L6.271,8.432,6.251,5.1a1.578,1.578,0,0,0-.922-1.28,4.507,4.507,0,0,0-2.213-.53C1.391,3.291,0,4.1,0,5.1l.04,7.05a1.578,1.578,0,0,0,.922,1.278q.1.058.211.111c.056.039.116.078.18.115l10.384,6a4.484,4.484,0,0,0,4.071,0l8.925-5.186a1.246,1.246,0,0,0-.013-2.358" transform="translate(-0.001 0)"/>
      </g>
    </g>
    <g id="그룹_1214" data-name="그룹 1214" transform="translate(0.109 0)">
      <g id="그룹_1209" data-name="그룹 1209" transform="translate(16.303 1.773)">
        <g id="그룹_1208" data-name="그룹 1208" clip-path="url(#clip-path-5)">
          <rect id="사각형_358" data-name="사각형 358" width="10.925" height="10.648" transform="matrix(0.864, -0.504, 0.504, 0.864, -3.264, 1.902)" fill="url(#linear-gradient)"/>
        </g>
      </g>
      <g id="그룹_1211" data-name="그룹 1211" transform="translate(0 4.971)">
        <g id="그룹_1210" data-name="그룹 1210" clip-path="url(#clip-path-6)">
          <rect id="사각형_359" data-name="사각형 359" width="29.91" height="26.92" transform="matrix(0.864, -0.504, 0.504, 0.864, -7.235, 4.217)" fill="url(#linear-gradient-2)"/>
        </g>
      </g>
      <g id="그룹_1213" data-name="그룹 1213" transform="translate(0.006)">
        <g id="그룹_1212" data-name="그룹 1212" clip-path="url(#clip-path-7)">
          <rect id="사각형_360" data-name="사각형 360" width="25.202" height="19.787" transform="translate(-0.004 0)" fill="url(#linear-gradient-3)"/>
        </g>
      </g>
    </g>
  </g>
</svg>
