<svg xmlns="http://www.w3.org/2000/svg" xmlns:xlink="http://www.w3.org/1999/xlink" width="54" height="54" viewBox="0 0 54 54">
  <defs>
    <clipPath id="clip-path">
      <rect id="사각형_1212" data-name="사각형 1212" width="30.99" height="32.453" fill="none"/>
    </clipPath>
  </defs>
  <g id="그룹_1689" data-name="그룹 1689" transform="translate(-15 -788)">
    <g id="사각형_1244" data-name="사각형 1244" transform="translate(15 788)" fill="#f5f5f5" stroke="#d6d6d6" stroke-width="1">
      <rect width="54" height="54" rx="18" stroke="none"/>
      <rect x="0.5" y="0.5" width="53" height="53" rx="17.5" fill="none"/>
    </g>
    <g id="그룹_1634" data-name="그룹 1634" transform="translate(27 799)">
      <g id="그룹_1633" data-name="그룹 1633" clip-path="url(#clip-path)">
        <path id="패스_22536" data-name="패스 22536" d="M84.854,8.575a3.683,3.683,0,1,0-3.683,3.683,3.683,3.683,0,0,0,3.683-3.683" transform="translate(-54.602 -3.447)" fill="#5680cc"/>
        <path id="패스_22537" data-name="패스 22537" d="M79.409,11.234A4.421,4.421,0,1,1,83.83,6.813a4.426,4.426,0,0,1-4.421,4.421m0-7.366a2.944,2.944,0,1,0,2.945,2.945,2.948,2.948,0,0,0-2.945-2.945" transform="translate(-52.84 -1.686)" fill="#41444b"/>
        <path id="패스_22538" data-name="패스 22538" d="M11.995,24.449H9.258A9.269,9.269,0,0,1,0,15.191V4.987a.738.738,0,0,1,.738-.738H5.682a.738.738,0,1,1,0,1.477H1.477v9.465a7.79,7.79,0,0,0,7.782,7.782h2.737a7.791,7.791,0,0,0,7.782-7.782V5.726H15.571a.738.738,0,1,1,0-1.477h4.944a.738.738,0,0,1,.738.738v10.2a9.269,9.269,0,0,1-9.259,9.258" transform="translate(0 -2.994)" fill="#41444b"/>
        <path id="패스_22539" data-name="패스 22539" d="M18.93,3.7a1.848,1.848,0,1,1,1.848-1.849A1.851,1.851,0,0,1,18.93,3.7m0-2.22a.372.372,0,1,0,.371.372.372.372,0,0,0-.371-.372" transform="translate(-12.036)" fill="#41444b"/>
        <path id="패스_22540" data-name="패스 22540" d="M44.212,3.7a1.848,1.848,0,1,1,1.849-1.849A1.85,1.85,0,0,1,44.212,3.7m0-2.22a.372.372,0,1,0,.372.372.372.372,0,0,0-.372-.372" transform="translate(-29.852)" fill="#41444b"/>
        <path id="패스_22541" data-name="패스 22541" d="M42.189,52.675a8.719,8.719,0,0,1-8.709-8.71V41.04a.738.738,0,0,1,1.477,0v2.926a7.233,7.233,0,0,0,14.466,0V29.436a.738.738,0,0,1,1.477,0V43.966a8.72,8.72,0,0,1-8.71,8.71" transform="translate(-23.592 -20.222)" fill="#41444b"/>
        <path id="패스_22542" data-name="패스 22542" d="M87.72,13.507A1.615,1.615,0,1,0,86.1,15.123a1.615,1.615,0,0,0,1.615-1.616" transform="translate(-59.535 -8.38)" fill="#5680cc"/>
        <path id="패스_22543" data-name="패스 22543" d="M84.342,14.1A2.354,2.354,0,1,1,86.7,11.746,2.356,2.356,0,0,1,84.342,14.1m0-3.231a.877.877,0,1,0,.877.877.878.878,0,0,0-.877-.877" transform="translate(-57.773 -6.618)" fill="#41444b"/>
      </g>
    </g>
  </g>
</svg>
