<svg xmlns="http://www.w3.org/2000/svg" width="54" height="54" viewBox="0 0 54 54">
  <g id="그룹_1909" data-name="그룹 1909" transform="translate(-15 -1294)">
    <g id="사각형_1246" data-name="사각형 1246" transform="translate(15 1294)" fill="#f5f5f5" stroke="#d6d6d6" stroke-width="1">
      <rect width="54" height="54" rx="18" stroke="none"/>
      <rect x="0.5" y="0.5" width="53" height="53" rx="17.5" fill="none"/>
    </g>
    <g id="그룹_1908" data-name="그룹 1908" transform="translate(0 -10)">
      <g id="그룹_1906" data-name="그룹 1906" transform="translate(24.914 1302.857)">
        <g id="그룹_1904" data-name="그룹 1904" transform="translate(0 12.15)">
          <path id="패스_23682" data-name="패스 23682" d="M5.416,35.2a.368.368,0,0,0,.148-.3.363.363,0,0,0-.065-.22L.944,28.411a.831.831,0,0,1-.192-.455.192.192,0,0,1,.09-.177.831.831,0,0,1,.48-.112H6.676V23.484a.181.181,0,0,1,.177-.177h4.656V20.08a.181.181,0,0,1,.177-.177H14.21V16.139a.181.181,0,0,1,.177-.178h1.252a.18.18,0,0,1,.178.178V19.9H24.57a.181.181,0,0,1,.177.177v3.227h3.672a.181.181,0,0,1,.177.177v4.183h2.035a1.122,1.122,0,0,1,.8.319,1.1,1.1,0,0,1,.317.785l-.007.131-.062.6a.369.369,0,0,0-.294-.151H2.424a.376.376,0,1,0,0,.752H31.387a.37.37,0,0,0,.241-.093l-.5,4.816a.313.313,0,0,0,0,.039.373.373,0,0,0,.744.039l.616-5.922c.007-.07.011-.14.011-.208a1.848,1.848,0,0,0-.538-1.317,1.875,1.875,0,0,0-1.334-.539H29.346V23.484a.93.93,0,0,0-.928-.929H25.5V20.08a.93.93,0,0,0-.928-.929h-8V16.139a.931.931,0,0,0-.93-.929H14.386a.93.93,0,0,0-.928.929v3.012H11.686a.93.93,0,0,0-.929.929v2.475h-3.9a.93.93,0,0,0-.929.929v3.432h-4.6a1.553,1.553,0,0,0-.922.255.955.955,0,0,0-.4.785,1.558,1.558,0,0,0,.336.9l4.555,6.26a.375.375,0,0,0,.525.083" transform="translate(0 -15.21)" fill="#3e3a39" stroke="#3e3a39" stroke-width="0.8"/>
          <path id="패스_23683" data-name="패스 23683" d="M18.219,35.489h1.63a.6.6,0,0,0,.6-.6V33.261a.6.6,0,0,0-.6-.6h-1.63a.6.6,0,0,0-.6.6v1.631a.6.6,0,0,0,.6.6m.155-2.074h1.321v1.322H18.373Z" transform="translate(-8.161 -23.294)" fill="#3e3a39"/>
          <path id="패스_23684" data-name="패스 23684" d="M26.584,35.489h1.631a.6.6,0,0,0,.6-.6V33.261a.6.6,0,0,0-.6-.6H26.584a.6.6,0,0,0-.6.6v1.631a.6.6,0,0,0,.6.6m.155-2.074h1.322v1.322H26.739Z" transform="translate(-12.036 -23.294)" fill="#3e3a39"/>
          <path id="패스_23685" data-name="패스 23685" d="M34.951,35.489h1.63a.6.6,0,0,0,.6-.6V33.261a.6.6,0,0,0-.6-.6h-1.63a.6.6,0,0,0-.6.6v1.631a.6.6,0,0,0,.6.6m.155-2.074h1.321v1.322H35.106Z" transform="translate(-15.911 -23.294)" fill="#3e3a39"/>
          <path id="패스_23686" data-name="패스 23686" d="M43.316,35.489h1.631a.6.6,0,0,0,.6-.6V33.261a.6.6,0,0,0-.6-.6H43.316a.6.6,0,0,0-.6.6v1.631a.6.6,0,0,0,.6.6m.155-2.074h1.322v1.322H43.471Z" transform="translate(-19.785 -23.294)" fill="#3e3a39"/>
          <path id="패스_23689" data-name="패스 23689" d="M31.774,61.134a4.249,4.249,0,0,0-3.731,2.214,4.25,4.25,0,0,0-7.462,0,4.25,4.25,0,0,0-7.461,0,4.251,4.251,0,0,0-7.659.41v3.188a4.252,4.252,0,0,1,7.659-.41,4.251,4.251,0,0,1,7.461,0,4.251,4.251,0,0,1,7.462,0,4.251,4.251,0,0,1,7.562.2V63.543a4.251,4.251,0,0,0-3.832-2.409" transform="translate(-2.53 -36.48)" fill="#5580cc"/>
          <path id="패스_23690" data-name="패스 23690" d="M31.774,53.4a4.248,4.248,0,0,0-3.731,2.214,4.25,4.25,0,0,0-7.462,0,4.25,4.25,0,0,0-7.461,0,4.252,4.252,0,0,0-7.659.409v2.635a4.252,4.252,0,0,1,7.659-.411,4.251,4.251,0,0,1,7.461,0,4.251,4.251,0,0,1,7.462,0,4.251,4.251,0,0,1,7.562.2V55.813A4.25,4.25,0,0,0,31.774,53.4" transform="translate(-2.53 -32.899)" fill="#5580cc"/>
        </g>
      </g>
      <rect id="사각형_1573" data-name="사각형 1573" width="2" height="2" transform="translate(35 1325)" fill="#3e3a39"/>
      <rect id="사각형_1574" data-name="사각형 1574" width="2" height="2" transform="translate(39 1325)" fill="#3e3a39"/>
      <rect id="사각형_1575" data-name="사각형 1575" width="2" height="2" transform="translate(44 1325)" fill="#3e3a39"/>
      <rect id="사각형_1576" data-name="사각형 1576" width="2" height="2" transform="translate(48 1325)" fill="#3e3a39"/>
    </g>
  </g>
</svg>
