<svg xmlns="http://www.w3.org/2000/svg" xmlns:xlink="http://www.w3.org/1999/xlink" width="54" height="54" viewBox="0 0 54 54">
  <defs>
    <clipPath id="clip-path">
      <rect id="사각형_1213" data-name="사각형 1213" width="31.981" height="37.302" fill="none" stroke="#707070" stroke-width="2"/>
    </clipPath>
  </defs>
  <g id="그룹_1690" data-name="그룹 1690" transform="translate(-15 -939)">
    <g id="사각형_1245" data-name="사각형 1245" transform="translate(15 939)" fill="#f5f5f5" stroke="#d6d6d6" stroke-width="1">
      <rect width="54" height="54" rx="18" stroke="none"/>
      <rect x="0.5" y="0.5" width="53" height="53" rx="17.5" fill="none"/>
    </g>
    <g id="그룹_1683" data-name="그룹 1683" transform="translate(-418.99 -41.88)">
      <g id="그룹_1637" data-name="그룹 1637" transform="translate(445 989)">
        <line id="선_39" data-name="선 39" y2="10.331" transform="translate(6.686 15.26)" fill="none" stroke="#3e3a39" stroke-linecap="round" stroke-linejoin="round" stroke-width="2"/>
        <line id="선_40" data-name="선 40" y2="10.331" transform="translate(25.142 15.26)" fill="none" stroke="#3e3a39" stroke-linecap="round" stroke-linejoin="round" stroke-width="2"/>
        <g id="그룹_1636" data-name="그룹 1636">
          <g id="그룹_1635" data-name="그룹 1635" clip-path="url(#clip-path)">
            <path id="패스_22544" data-name="패스 22544" d="M28.994,64.293v2.923a11.948,11.948,0,0,1-3.713,2.055" transform="translate(-17.213 -43.775)" fill="none" stroke="#3e3a39" stroke-linecap="round" stroke-linejoin="round" stroke-width="2"/>
            <path id="패스_22545" data-name="패스 22545" d="M63.295,64.293v2.923a11.949,11.949,0,0,0,3.713,2.055" transform="translate(-43.096 -43.775)" fill="none" stroke="#3e3a39" stroke-linecap="round" stroke-linejoin="round" stroke-width="2"/>
            <path id="패스_22546" data-name="패스 22546" d="M41.587,21.475v3.66a7.515,7.515,0,0,1-15.03,0v-3.66s3.268-1.861,3.645-4.39a8.617,8.617,0,0,1,.269,3.282h5.7s2.583-1.83,2.314-4.412C38.488,15.955,39.144,19.569,41.587,21.475Z" transform="translate(-18.082 -10.863)" fill="none" stroke="#3e3a39" stroke-linecap="round" stroke-linejoin="round" stroke-width="2"/>
            <path id="패스_22547" data-name="패스 22547" d="M21.586,37.444a1.834,1.834,0,1,0,0,3.668" transform="translate(-13.449 -25.495)" fill="none" stroke="#3e3a39" stroke-linecap="round" stroke-linejoin="round" stroke-width="2"/>
            <path id="패스_22548" data-name="패스 22548" d="M74.713,41.112a1.834,1.834,0,1,0,0-3.668" transform="translate(-50.87 -25.495)" fill="none" stroke="#3e3a39" stroke-linecap="round" stroke-linejoin="round" stroke-width="2"/>
            <path id="패스_22549" data-name="패스 22549" d="M39.961,37.631c0,.646-.383,1.169-.856,1.169s-.856-.524-.856-1.169.383-1.169.856-1.169.856.524.856,1.169" transform="translate(-26.043 -24.826)" fill="#3e3a39"/>
            <path id="패스_22550" data-name="패스 22550" d="M58.311,37.631c0,.646-.383,1.169-.856,1.169s-.856-.524-.856-1.169.383-1.169.856-1.169.856.524.856,1.169" transform="translate(-38.537 -24.826)" fill="#3e3a39"/>
            <path id="패스_22551" data-name="패스 22551" d="M43.727,52.748a2.879,2.879,0,0,0,4.072,0" transform="translate(-29.772 -35.915)" fill="none" stroke="#3e3a39" stroke-linecap="round" stroke-linejoin="round" stroke-width="2"/>
            <path id="패스_22552" data-name="패스 22552" d="M20.581,13.707V11.173a9.422,9.422,0,1,1,18.845,0v2.534" transform="translate(-14.013 -1.192)" fill="none" stroke="#3e3a39" stroke-linecap="round" stroke-linejoin="round" stroke-width="2"/>
            <path id="패스_22553" data-name="패스 22553" d="M8.427,79.8l-3.8,1.941a5.283,5.283,0,0,0-2.879,4.7v4.631" transform="translate(-1.192 -54.333)" fill="none" stroke="#3e3a39" stroke-linecap="round" stroke-linejoin="round" stroke-width="2"/>
            <path id="패스_22554" data-name="패스 22554" d="M77.539,79.8l3.8,1.941a5.283,5.283,0,0,1,2.879,4.7v4.631" transform="translate(-52.794 -54.333)" fill="none" stroke="#3e3a39" stroke-linecap="round" stroke-linejoin="round" stroke-width="2"/>
            <path id="패스_22555" data-name="패스 22555" d="M23.3,81.426a12.1,12.1,0,0,0,17.109,0" transform="translate(-15.864 -55.441)" fill="none" stroke="#3e3a39" stroke-linecap="round" stroke-linejoin="round" stroke-width="2"/>
          </g>
        </g>
      </g>
      <path id="패스_22556" data-name="패스 22556" d="M2.434,0V2.434H0V4.426H2.434V6.86H4.425V4.426H6.859V2.434H4.425V0Z" transform="translate(448.989 1019.442)" fill="#5680cc"/>
    </g>
  </g>
</svg>
