<svg xmlns="http://www.w3.org/2000/svg" xmlns:xlink="http://www.w3.org/1999/xlink" width="54" height="54" viewBox="0 0 54 54">
  <defs>
    <clipPath id="clip-path">
      <rect id="사각형_1220" data-name="사각형 1220" width="9.336" height="18.164" fill="#5580cc"/>
    </clipPath>
    <clipPath id="clip-path-2">
      <rect id="사각형_1219" data-name="사각형 1219" width="29.109" height="26.885" fill="none"/>
    </clipPath>
  </defs>
  <g id="그룹_1694" data-name="그룹 1694" transform="translate(-15 -1653)">
    <g id="사각형_1248" data-name="사각형 1248" transform="translate(15 1653)" fill="#f5f5f5" stroke="#d6d6d6" stroke-width="1">
      <rect width="54" height="54" rx="18" stroke="none"/>
      <rect x="0.5" y="0.5" width="53" height="53" rx="17.5" fill="none"/>
    </g>
    <g id="그룹_1651" data-name="그룹 1651" transform="translate(-418.318 -28.584)">
      <g id="그룹_1650" data-name="그룹 1650" transform="translate(439.423 1714.848) rotate(-56)">
        <g id="그룹_1649" data-name="그룹 1649" transform="translate(0 0)" clip-path="url(#clip-path)">
          <path id="패스_22611" data-name="패스 22611" d="M7.9,18.164A15.333,15.333,0,0,1,0,9.455a11.451,11.451,0,0,1,2.688,1.379A16,16,0,0,1,.36,0S4.965,2.775,8.091,12.83l.889-2.613s1.3,5.159-1.076,7.948" transform="translate(0 0)" fill="#5580cc"/>
        </g>
      </g>
      <g id="그룹_1648" data-name="그룹 1648" transform="translate(448.199 1695.162)">
        <g id="그룹_1647" data-name="그룹 1647" transform="translate(0 0)" clip-path="url(#clip-path-2)">
          <path id="패스_22585" data-name="패스 22585" d="M19.172,19.818c-3.569.222.259-19.027,3.21-17.925,3.6,1.253-6.059,14.492-3.086,18.125" transform="translate(-10.041 -1.046)" fill="#fff"/>
          <path id="패스_22586" data-name="패스 22586" d="M18.269,19.619a1.657,1.657,0,0,1-1.522-1.09c-1.59-3.327.84-14.908,3.189-17.477A1.614,1.614,0,0,1,21.764.431a1.737,1.737,0,0,1,1.028.942c.7,1.543-.491,4.465-1.866,7.848-1.445,3.554-3.244,7.979-1.972,9.532l-.61.5.023.363c-.03,0-.062,0-.1,0M21.3,1.651c-.081,0-.226.092-.4.28-1.7,1.855-3.283,8.681-3.368,12.988a45.428,45.428,0,0,1,2.192-6.187c1.1-2.713,2.353-5.788,1.886-6.821a.438.438,0,0,0-.284-.255.069.069,0,0,0-.028,0" transform="translate(-9.195 -0.194)" fill="#353535"/>
          <path id="패스_22587" data-name="패스 22587" d="M16.875,17.668c-3.457-.912,6.233-17.978,8.689-16C28.584,3.986,15.251,13.512,16.929,17.9" transform="translate(-9.138 -0.852)" fill="#fff"/>
          <path id="패스_22588" data-name="패스 22588" d="M15.861,17.444A1.641,1.641,0,0,1,14.666,15.9C14.2,12.245,20.154,2.017,23.193.319A1.612,1.612,0,0,1,25.123.3a1.735,1.735,0,0,1,.68,1.218c.177,1.684-1.871,4.083-4.241,6.861-2.49,2.92-5.59,6.553-4.872,8.427l-.736.281ZM24.242,1.307a.97.97,0,0,0-.414.147C21.633,2.681,17.98,8.66,16.544,12.722A45.381,45.381,0,0,1,20.571,7.54c1.9-2.228,4.055-4.753,3.937-5.881a.439.439,0,0,0-.189-.331.123.123,0,0,0-.077-.02" transform="translate(-8.291 0)" fill="#353535"/>
          <path id="패스_22589" data-name="패스 22589" d="M27.284,35.583c1,3.433,17.807-6.706,15.769-9.107-2.4-2.959-11.573,10.621-16,9.059" transform="translate(-15.32 -14.753)" fill="#fff"/>
          <path id="패스_22590" data-name="패스 22590" d="M28.045,36.087c-.115,0-.223-.005-.327-.016a1.642,1.642,0,0,1-1.572-1.154l.349-.1.262-.742c1.893.668,5.443-2.526,8.3-5.093,2.715-2.443,5.061-4.544,6.748-4.42a1.745,1.745,0,0,1,1.245.658,1.61,1.61,0,0,1,.027,1.919C41.5,30.13,31.952,36.087,28.045,36.087M41.629,25.855c-1.159,0-3.573,2.172-5.708,4.093a45.372,45.372,0,0,1-5.074,4.161c4.022-1.542,9.9-5.352,11.071-7.578.134-.255.163-.436.123-.483a.449.449,0,0,0-.345-.191l-.067,0" transform="translate(-14.806 -13.905)" fill="#353535"/>
          <path id="패스_22591" data-name="패스 22591" d="M32.614,31.514c2.032,2.942,14.793-11.969,12.1-13.607-3.21-2.054-7.642,13.722-12.336,13.633" transform="translate(-18.336 -10.036)" fill="#fff"/>
          <path id="패스_22592" data-name="패스 22592" d="M33,31.7a1.537,1.537,0,0,1-1.318-.664l.3-.206L32,30.04h.027c2,0,4.353-4.126,6.244-7.445,1.809-3.173,3.37-5.914,5.015-6.319a1.741,1.741,0,0,1,1.388.233,1.61,1.61,0,0,1,.63,1.812c-.565,3.435-8.164,12.506-11.762,13.313A2.445,2.445,0,0,1,33,31.7M43.719,17.523a.519.519,0,0,0-.123.016c-1.1.272-2.745,3.155-4.195,5.7a45.442,45.442,0,0,1-3.507,5.549c3.333-2.73,7.717-8.2,8.125-10.678.047-.285.018-.465-.035-.5a.477.477,0,0,0-.265-.089" transform="translate(-17.943 -9.186)" fill="#353535"/>
          <path id="패스_22593" data-name="패스 22593" d="M24.318,23.192c-3.457-.913,6.234-17.979,8.689-16,3.022,2.323-10.312,11.849-8.633,16.233" transform="translate(-13.354 -3.98)" fill="#fff"/>
          <path id="패스_22594" data-name="패스 22594" d="M23.3,22.969a1.642,1.642,0,0,1-1.2-1.542C21.646,17.767,27.6,7.54,30.636,5.842a1.612,1.612,0,0,1,1.93-.014,1.733,1.733,0,0,1,.679,1.218c.177,1.684-1.87,4.083-4.24,6.862-2.491,2.919-5.589,6.552-4.872,8.427l-.736.281ZM31.685,6.831a.968.968,0,0,0-.414.147c-2.2,1.226-5.848,7.208-7.284,11.27a45.368,45.368,0,0,1,4.027-5.184c1.9-2.228,4.056-4.753,3.937-5.882a.438.438,0,0,0-.189-.331.122.122,0,0,0-.077-.02" transform="translate(-12.506 -3.128)" fill="#353535"/>
          <path id="패스_22595" data-name="패스 22595" d="M25.087,26.055c2.088,2.9,14.558-12.252,11.837-13.838-3.249-1.991-7.375,13.869-12.07,13.87" transform="translate(-14.074 -6.82)" fill="#fff"/>
          <path id="패스_22596" data-name="패스 22596" d="M25.466,26.225a1.532,1.532,0,0,1-1.292-.638l.295-.213v-.787c2.008,0,4.292-4.195,6.127-7.565,1.747-3.208,3.255-5.978,4.891-6.415a1.748,1.748,0,0,1,1.393.206,1.611,1.611,0,0,1,.664,1.8c-.5,3.445-7.922,12.662-11.5,13.537a2.39,2.39,0,0,1-.574.074M35.952,11.846a.5.5,0,0,0-.13.019c-1.1.293-2.683,3.208-4.084,5.78a45.371,45.371,0,0,1-3.4,5.614c3.279-2.794,7.555-8.343,7.916-10.831.042-.285.009-.465-.044-.5a.491.491,0,0,0-.26-.084" transform="translate(-13.689 -5.972)" fill="#353535"/>
          <path id="패스_22597" data-name="패스 22597" d="M15.844,24.151c.264-1.714-1.194-3.8-1.757-5.329a20.328,20.328,0,0,1-1.022-4.235c-.144-1.57-.975-4.872.07-6.129,2.358-3.067,2.44,3.576,2.327,4.642-.216,3.4.52,6.814.094,10.231" transform="translate(-7.144 -4.336)" fill="#fff"/>
          <path id="패스_22598" data-name="패스 22598" d="M15.634,23.4l-1.286-.2a2.537,2.537,0,0,0-.011-.765l-.278-.035c.032-.257.057-.516.076-.775A16.423,16.423,0,0,0,13.3,19.7c-.258-.531-.5-1.032-.676-1.507l-.1-.307a19.433,19.433,0,0,1-.962-4.093c-.029-.316-.091-.73-.157-1.168-.282-1.881-.634-4.224.375-5.436.683-.888,1.37-1.215,2.026-.952,1.793.717,1.454,6.026,1.448,6.079a36.44,36.44,0,0,0,.1,4.489,37.815,37.815,0,0,1,.1,4.662,4.465,4.465,0,0,1,.184,1.929M13.349,7.465A1.777,1.777,0,0,0,12.8,8c-.651.784-.322,2.979-.1,4.431.069.457.134.888.166,1.241a18.433,18.433,0,0,0,.908,3.823l.087.278c.075.2.175.432.289.677-.025-.525-.058-1.049-.09-1.567a37.3,37.3,0,0,1-.094-4.679c.131-1.239-.111-4.3-.612-4.741" transform="translate(-6.292 -3.482)" fill="#353535"/>
          <path id="패스_22599" data-name="패스 22599" d="M28.33,42c1.536-.8,3.978-.093,5.61-.053a20.355,20.355,0,0,0,4.338-.4c1.533-.369,4.926-.646,5.78-2.041,2.144-3.219-4.171-1.158-5.144-.707-3.147,1.3-6.619,1.7-9.717,3.206" transform="translate(-16.043 -21.369)" fill="#fff"/>
          <path id="패스_22600" data-name="패스 22600" d="M33.563,41.754a16.693,16.693,0,0,1-1.674-.155,18.7,18.7,0,0,0-2.09-.172q-.36.153-.712.323l-.123-.253a2.539,2.539,0,0,0-.726.236l-.6-1.154a4.453,4.453,0,0,1,1.888-.447,37.728,37.728,0,0,1,4.44-1.408,36.288,36.288,0,0,0,4.309-1.367c.023-.011,4.94-2.044,6.2-.576.461.537.372,1.293-.262,2.245-.81,1.325-3.14,1.746-5.012,2.084-.436.079-.848.154-1.158.228a19.456,19.456,0,0,1-4.2.407ZM32.8,40.4c.272.029.529.05.762.056l.245-.007a18.492,18.492,0,0,0,3.926-.37c.345-.084.775-.161,1.23-.244,1.445-.261,3.628-.656,4.147-1.5a1.849,1.849,0,0,0,.343-.714c-.582-.332-3.554.425-4.66.936a37.107,37.107,0,0,1-4.488,1.43c-.5.136-1,.273-1.506.418" transform="translate(-15.65 -20.528)" fill="#353535"/>
          <path id="패스_22601" data-name="패스 22601" d="M10.306,34.719c-.812-3.092-.9-6.356-2.32-9.182C7.195,23.815,4.28,21.971,2.2,23.429c-1.389.972-.437,2.151.545,2.483,1.419.5,2.741-.04,4.008,1.111,1.848,1.731,1.822,4.9,2.662,7.145.172.723.629,1.1.706,1.941" transform="translate(-0.849 -12.968)" fill="#fff"/>
          <path id="패스_22602" data-name="패스 22602" d="M8.62,35.318a2.3,2.3,0,0,0-.311-.9,4.176,4.176,0,0,1-.37-.909,19,19,0,0,1-.656-2.475c-.36-1.653-.733-3.362-1.828-4.387a3,3,0,0,0-2.035-.666,6.525,6.525,0,0,1-1.745-.307A2.416,2.416,0,0,1,.016,23.894a1.891,1.891,0,0,1,.959-1.848,3.747,3.747,0,0,1,3.22-.488,5.746,5.746,0,0,1,3.533,2.857,21.791,21.791,0,0,1,1.7,6.07c.19,1.065.385,2.167.661,3.219l-.6.158A3.455,3.455,0,0,1,9.916,35.2ZM3.054,22.7a2.283,2.283,0,0,0-1.333.409c-.209.146-.45.368-.417.6a1.19,1.19,0,0,0,.8.736,5.339,5.339,0,0,0,1.418.238,4.23,4.23,0,0,1,2.818,1.007,5.337,5.337,0,0,1,1,1.284,12.235,12.235,0,0,0-.779-2,4.485,4.485,0,0,0-2.7-2.165,3.084,3.084,0,0,0-.8-.111" transform="translate(0 -12.118)" fill="#353535"/>
          <path id="패스_22603" data-name="패스 22603" d="M24.568,47.578c3.19-.227,6.309-1.194,9.441-.759,1.885.195,4.569,2.361,3.86,4.8-.474,1.628-1.9,1.106-2.527.284C34.409,50.724,34.5,49.3,33,48.468c-2.234-1.193-5.227-.147-7.623-.22-.739.071-1.247-.24-2.065-.043" transform="translate(-13.202 -26.45)" fill="#fff"/>
          <path id="패스_22604" data-name="패스 22604" d="M36.532,52.486a2.555,2.555,0,0,1-1.905-1.033,6.5,6.5,0,0,1-.845-1.545,3,3,0,0,0-1.295-1.718c-1.314-.7-3.053-.5-4.733-.314a19.128,19.128,0,0,1-2.555.176,4.213,4.213,0,0,1-.979-.057,2.331,2.331,0,0,0-.954-.005l-.3-1.265a3.459,3.459,0,0,1,1.4-.023l-.044-.62c1.085-.077,2.191-.247,3.26-.41a21.734,21.734,0,0,1,6.317-.344,5.732,5.732,0,0,1,3.819,2.421,3.739,3.739,0,0,1,.576,3.207,1.891,1.891,0,0,1-1.44,1.5,1.766,1.766,0,0,1-.322.029m-4.945-5.966a5.283,5.283,0,0,1,1.521.526,4.231,4.231,0,0,1,1.869,2.35,5.338,5.338,0,0,0,.676,1.257,1.193,1.193,0,0,0,.959.524c.229-.043.361-.343.432-.587a2.509,2.509,0,0,0-.406-2.117,4.474,4.474,0,0,0-2.9-1.856,12.421,12.421,0,0,0-2.156-.1" transform="translate(-13.003 -25.601)" fill="#353535"/>
          <path id="패스_22605" data-name="패스 22605" d="M20.384,32.976C18.676,30.121,18.8,18.3,23.02,17.074c3.746-1.188.548,5.973.039,6.983-1.094,2.51-2.915,6.291-2.543,9.027" transform="translate(-10.96 -9.594)" fill="#fff"/>
          <path id="패스_22606" data-name="패스 22606" d="M18.986,32.46c-1.367-2.284-1.609-9.395.016-13.537.721-1.836,1.728-2.954,3-3.324a1.873,1.873,0,0,1,2.172.38c1.5,1.767-1.253,7.287-1.371,7.521l-.288.658c-1.057,2.395-2.506,5.675-2.192,7.989l-1.048.142Zm3.931-15.718a1.9,1.9,0,0,0-.541.1A4.042,4.042,0,0,0,20.214,19.4a21.766,21.766,0,0,0-.874,9.5,34.588,34.588,0,0,1,1.981-5.27l.3-.685c1.012-2.009,2.135-5.446,1.557-6.124a.339.339,0,0,0-.262-.081" transform="translate(-10.12 -8.744)" fill="#353535"/>
          <path id="패스_22607" data-name="패스 22607" d="M22.65,37.183c-.469-2.487,1.786-6.79,3.033-8.952s2.484-3.118,4.884-3.219c1.817,4.049-4.891,8.4-6.777,11.464" transform="translate(-12.79 -14.164)" fill="#fff"/>
          <path id="패스_22608" data-name="패스 22608" d="M21.163,36.431c-.471-2.5,1.431-6.488,3.109-9.4,1.43-2.479,2.9-3.439,5.421-3.544l.441-.018.18.4c1.447,3.226-1.7,6.477-4.235,9.09A20.664,20.664,0,0,0,23.5,35.944l-1.1-.676a3.73,3.73,0,0,0,.043.922Zm8.113-11.609C27.52,25,26.5,25.77,25.4,27.684c-1.843,3.2-2.879,5.822-3,7.56a21.6,21.6,0,0,1,2.745-3.186c2.241-2.313,4.763-4.916,4.132-7.236" transform="translate(-11.943 -13.291)" fill="#353535"/>
          <path id="패스_22609" data-name="패스 22609" d="M23.187,41.741c.952-.786,10.218-10.681,12-6.985,1.643,3.6-10.6,5.993-12.409,7.427" transform="translate(-12.901 -19.215)" fill="#fff"/>
          <path id="패스_22610" data-name="패스 22610" d="M22.657,41.843l-.808-1.02a3.3,3.3,0,0,1,.5-.313l-.1-.121c.112-.092.429-.4.8-.758,3.894-3.791,8.208-7.608,10.723-7.164a1.989,1.989,0,0,1,1.484,1.155,2.183,2.183,0,0,1,.032,1.818c-.922,2.151-5.172,3.619-8.921,4.914a19.759,19.759,0,0,0-3.7,1.488M33.3,33.73c-1.41,0-4.138,1.9-8.129,5.658l.757-.262c2.969-1.026,7.455-2.576,8.15-4.2a.864.864,0,0,0-.013-.753.688.688,0,0,0-.533-.427,1.376,1.376,0,0,0-.233-.019" transform="translate(-12.373 -18.366)" fill="#353535"/>
        </g>
      </g>
    </g>
  </g>
</svg>
