<svg xmlns="http://www.w3.org/2000/svg" xmlns:xlink="http://www.w3.org/1999/xlink" width="54" height="54" viewBox="0 0 54 54">
  <defs>
    <clipPath id="clip-path">
      <rect id="사각형_1211" data-name="사각형 1211" width="25.968" height="31.333" fill="none"/>
    </clipPath>
  </defs>
  <g id="그룹_1673" data-name="그룹 1673" transform="translate(-157 -730)">
    <g id="사각형_1203" data-name="사각형 1203" transform="translate(157 730)" fill="#f5f5f5" stroke="#d6d6d6" stroke-width="1">
      <rect width="54" height="54" rx="18" stroke="none"/>
      <rect x="0.5" y="0.5" width="53" height="53" rx="17.5" fill="none"/>
    </g>
    <g id="그룹_1632" data-name="그룹 1632" transform="translate(171.016 741.333)">
      <g id="그룹_1631" data-name="그룹 1631" transform="translate(0 0)" clip-path="url(#clip-path)">
        <path id="패스_22531" data-name="패스 22531" d="M31.887,68.618H21.764a.713.713,0,1,1,0-1.426H31.887a.713.713,0,1,1,0,1.426" transform="translate(-15.048 -48.032)" fill="#41444b"/>
        <path id="패스_22532" data-name="패스 22532" d="M31.887,81.618H21.764a.713.713,0,1,1,0-1.426H31.887a.713.713,0,1,1,0,1.426" transform="translate(-15.048 -57.325)" fill="#41444b"/>
        <path id="패스_22533" data-name="패스 22533" d="M24.934,15.482a6.529,6.529,0,1,0,6.529,6.529,6.529,6.529,0,0,0-6.529-6.529m3.754,8H26.4v2.285H23.465V23.48H21.18V20.542h2.285V18.257H26.4v2.285h2.286Z" transform="translate(-13.157 -11.067)" fill="#5680cc"/>
        <path id="패스_22534" data-name="패스 22534" d="M22.842,28.919H.713A.713.713,0,0,1,0,28.206V.713A.713.713,0,0,1,.713,0H22.842a.713.713,0,0,1,.713.713V28.206a.713.713,0,0,1-.713.713M1.426,27.493h20.7V1.426H1.426Z" transform="translate(0 0)" fill="#41444b"/>
        <path id="패스_22535" data-name="패스 22535" d="M31.307,37.385H9.179a.713.713,0,1,1,0-1.426H30.594V9.179a.713.713,0,1,1,1.426,0V36.672a.713.713,0,0,1-.713.713" transform="translate(-6.052 -6.052)" fill="#41444b"/>
      </g>
    </g>
  </g>
</svg>
