<svg xmlns="http://www.w3.org/2000/svg" xmlns:xlink="http://www.w3.org/1999/xlink" width="54" height="54" viewBox="0 0 54 54">
  <defs>
    <clipPath id="clip-path">
      <rect id="사각형_1214" data-name="사각형 1214" width="33.57" height="28.786" fill="none"/>
    </clipPath>
  </defs>
  <g id="그룹_1688" data-name="그룹 1688" transform="translate(48 -595)">
    <g id="사각형_1203" data-name="사각형 1203" transform="translate(-48 595)" fill="#f5f5f5" stroke="#d6d6d6" stroke-width="1">
      <rect width="54" height="54" rx="18" stroke="none"/>
      <rect x="0.5" y="0.5" width="53" height="53" rx="17.5" fill="none"/>
    </g>
    <g id="그룹_1640" data-name="그룹 1640" transform="translate(-36.903 607.606)">
      <g id="그룹_1639" data-name="그룹 1639" transform="translate(0 0)" clip-path="url(#clip-path)">
        <path id="패스_22557" data-name="패스 22557" d="M30.423,28.786H5.478A5.485,5.485,0,0,1,0,23.308V5.478A5.485,5.485,0,0,1,5.478,0H30.423a.805.805,0,0,1,.805.805V27.981a.805.805,0,0,1-.805.805M5.478,1.611A3.872,3.872,0,0,0,1.611,5.478V23.308a3.872,3.872,0,0,0,3.868,3.868h24.14V1.611Z" transform="translate(0 0)" fill="#3e3a39"/>
        <path id="패스_22558" data-name="패스 22558" d="M38.622,14.264H13.553a1.458,1.458,0,1,1,0-2.917H38.622Z" transform="translate(-8.199 -7.692)" fill="#c9caca"/>
        <path id="패스_22559" data-name="패스 22559" d="M36.928,13.374H11.859a2.264,2.264,0,0,1,0-4.527H36.928a.805.805,0,0,1,.805.805v2.917a.805.805,0,0,1-.805.805M11.859,10.458a.653.653,0,0,0,0,1.306H36.123V10.458Z" transform="translate(-6.505 -5.997)" fill="#3e3a39"/>
        <path id="패스_22560" data-name="패스 22560" d="M70.429,51.475H59.092a3.529,3.529,0,1,1,0-7.058H70.429Z" transform="translate(-37.665 -30.109)" fill="#5680cc"/>
        <path id="패스_22561" data-name="패스 22561" d="M68.735,50.586H57.4a4.334,4.334,0,0,1,0-8.668H68.735a.805.805,0,0,1,.805.805v7.058a.805.805,0,0,1-.805.805M57.4,43.529a2.723,2.723,0,0,0,0,5.447H67.93V43.529Z" transform="translate(-35.971 -28.415)" fill="#3e3a39"/>
        <path id="패스_22562" data-name="패스 22562" d="M65.546,53.088a1.086,1.086,0,1,0-1.086,1.086,1.086,1.086,0,0,0,1.086-1.086" transform="translate(-42.96 -35.251)" fill="#3e3a39"/>
        <path id="패스_22563" data-name="패스 22563" d="M22.449,19.673a.805.805,0,0,1-.805-.805v-.161a.805.805,0,0,1,1.611,0v.161a.805.805,0,0,1-.805.805" transform="translate(-14.672 -12.135)" fill="#3e3a39"/>
        <path id="패스_22564" data-name="패스 22564" d="M22.449,43.687a.805.805,0,0,1-.805-.805v-.335a.805.805,0,1,1,1.611,0v.335a.805.805,0,0,1-.805.805m0-2.678a.805.805,0,0,1-.805-.805v-.335a.805.805,0,1,1,1.611,0V40.2a.805.805,0,0,1-.805.805m0-2.678a.805.805,0,0,1-.805-.805v-.335a.805.805,0,1,1,1.611,0v.335a.805.805,0,0,1-.805.805m0-2.678a.805.805,0,0,1-.805-.805v-.335a.805.805,0,1,1,1.611,0v.335a.805.805,0,0,1-.805.805m0-2.678a.805.805,0,0,1-.805-.805v-.335a.805.805,0,0,1,1.611,0v.335a.805.805,0,0,1-.805.805m0-2.678a.805.805,0,0,1-.805-.806v-.335a.805.805,0,0,1,1.611,0v.335a.805.805,0,0,1-.805.806m0-2.678a.805.805,0,0,1-.805-.805V26.48a.805.805,0,1,1,1.611,0v.335a.805.805,0,0,1-.805.805" transform="translate(-14.672 -17.404)" fill="#3e3a39"/>
        <path id="패스_22565" data-name="패스 22565" d="M22.449,85.634a.805.805,0,0,1-.805-.805v-.161a.805.805,0,0,1,1.611,0v.161a.805.805,0,0,1-.805.805" transform="translate(-14.672 -56.848)" fill="#3e3a39"/>
      </g>
    </g>
  </g>
</svg>
