<svg xmlns="http://www.w3.org/2000/svg" xmlns:xlink="http://www.w3.org/1999/xlink" width="54" height="54" viewBox="0 0 54 54">
  <defs>
    <clipPath id="clip-path">
      <rect id="사각형_1215" data-name="사각형 1215" width="33.146" height="31.999" fill="none"/>
    </clipPath>
  </defs>
  <g id="그룹_1691" data-name="그룹 1691" transform="translate(-15 -1183)">
    <g id="사각형_1203" data-name="사각형 1203" transform="translate(15 1183)" fill="#f5f5f5" stroke="#d6d6d6" stroke-width="1">
      <rect width="54" height="54" rx="18" stroke="none"/>
      <rect x="0.5" y="0.5" width="53" height="53" rx="17.5" fill="none"/>
    </g>
    <g id="그룹_1642" data-name="그룹 1642" transform="translate(24.326 1194)">
      <g id="그룹_1641" data-name="그룹 1641" clip-path="url(#clip-path)">
        <path id="패스_22566" data-name="패스 22566" d="M50.727,8.786H47.942a2.06,2.06,0,0,1,0-4.12h2.785a2.06,2.06,0,0,1,0,4.12M47.942,6.233a.493.493,0,0,0,0,.987h2.785a.493.493,0,0,0,0-.987Z" transform="translate(-29.909 -3.042)" fill="#3e3a39"/>
        <path id="패스_22567" data-name="패스 22567" d="M45.727,23.536H42.942a2.06,2.06,0,0,1,0-4.12h2.785a2.06,2.06,0,0,1,0,4.12m-2.785-2.553a.493.493,0,0,0,0,.987h2.785a.493.493,0,0,0,0-.987Z" transform="translate(-26.649 -12.657)" fill="#3e3a39"/>
        <path id="패스_22568" data-name="패스 22568" d="M45.476,64.787H42.691a2.06,2.06,0,1,1,0-4.12h2.785a2.06,2.06,0,0,1,0,4.12m-2.785-2.553a.493.493,0,1,0,0,.986h2.785a.493.493,0,0,0,0-.986Z" transform="translate(-26.486 -39.547)" fill="#3e3a39"/>
        <path id="패스_22569" data-name="패스 22569" d="M50.476,79.537H47.691a2.06,2.06,0,1,1,0-4.12h2.785a2.06,2.06,0,0,1,0,4.12m-2.785-2.553a.493.493,0,1,0,0,.986h2.785a.493.493,0,0,0,0-.986Z" transform="translate(-29.745 -49.162)" fill="#3e3a39"/>
        <path id="패스_22570" data-name="패스 22570" d="M38.456,2.25H34.073L28.8,14.306h5.93Z" transform="translate(-18.773 -1.467)" fill="#5680cc"/>
        <path id="패스_22571" data-name="패스 22571" d="M33.262,13.623h-5.93a.784.784,0,0,1-.718-1.1L31.888.47A.784.784,0,0,1,32.606,0h4.384a.783.783,0,0,1,.748,1.015L34.01,13.071a.783.783,0,0,1-.748.552M28.53,12.056h4.155L35.927,1.567H33.118Z" transform="translate(-17.306)" fill="#5680cc"/>
        <path id="패스_22572" data-name="패스 22572" d="M28.8,55.034l5.274,12.057h4.384l-2.592-8.383-1.136-3.674Z" transform="translate(-18.773 -35.875)" fill="#5680cc"/>
        <path id="패스_22573" data-name="패스 22573" d="M36.99,66.407H32.606a.783.783,0,0,1-.718-.47L26.614,53.881a.784.784,0,0,1,.718-1.1h5.93a.784.784,0,0,1,.748.552l3.728,12.057a.783.783,0,0,1-.748,1.015m-3.871-1.567h2.809l-3.243-10.49H28.53Z" transform="translate(-17.306 -34.408)" fill="#5680cc"/>
        <path id="패스_22574" data-name="패스 22574" d="M32.363,39.395H27.294A.784.784,0,0,1,26.615,39l-2.077-3.6H9.736a.783.783,0,1,1,0-1.567H24.99a.783.783,0,0,1,.678.392l2.077,3.6H31.2l-2.309-5.66a.782.782,0,0,1,0-.592l2.309-5.66H27.746l-2.077,3.6a.783.783,0,0,1-.678.392H3.532a1.966,1.966,0,0,0,0,3.932H6.951a.783.783,0,0,1,0,1.567H3.532a3.533,3.533,0,0,1,0-7.065H24.538l2.077-3.6a.783.783,0,0,1,.678-.392h5.069a.784.784,0,0,1,.725,1.08l-2.629,6.443,2.629,6.443a.784.784,0,0,1-.725,1.08" transform="translate(0 -15.873)" fill="#3e3a39"/>
      </g>
    </g>
  </g>
</svg>
