<svg xmlns="http://www.w3.org/2000/svg" xmlns:xlink="http://www.w3.org/1999/xlink" width="86" height="86" viewBox="0 0 86 86">
  <defs>
    <clipPath id="clip-path">
      <rect id="사각형_1101" data-name="사각형 1101" width="40.667" height="56.76" fill="none"/>
    </clipPath>
  </defs>
  <g id="그룹_1684" data-name="그룹 1684" transform="translate(-138 -164)">
    <g id="패스_22530" data-name="패스 22530" transform="translate(138 164)" fill="#d3ccff">
      <path d="M 43 85.5 C 37.26231002807617 85.5 31.6965217590332 84.37638092041016 26.45723342895508 82.16034698486328 C 21.39642143249512 80.01979827880859 16.85124397277832 76.955322265625 12.94796657562256 73.05203247070312 C 9.044677734375 69.14875793457031 5.980199813842773 64.60357666015625 3.839655637741089 59.54276657104492 C 1.623622179031372 54.3034782409668 0.5 48.73768997192383 0.5 43 C 0.5 37.26231002807617 1.623622179031372 31.6965217590332 3.839655637741089 26.45723342895508 C 5.980199813842773 21.39642143249512 9.044677734375 16.85124397277832 12.94796657562256 12.94796657562256 C 16.85124397277832 9.044677734375 21.39642143249512 5.980199813842773 26.45723342895508 3.839655637741089 C 31.6965217590332 1.623622179031372 37.26231002807617 0.5 43 0.5 C 48.73768997192383 0.5 54.3034782409668 1.623622179031372 59.54276657104492 3.839655637741089 C 64.60357666015625 5.980199813842773 69.14875793457031 9.044677734375 73.05203247070312 12.94796657562256 C 76.955322265625 16.85124397277832 80.01979827880859 21.39642143249512 82.16034698486328 26.45723342895508 C 84.37638092041016 31.6965217590332 85.5 37.26231002807617 85.5 43 C 85.5 48.73768997192383 84.37638092041016 54.3034782409668 82.16034698486328 59.54276657104492 C 80.01979827880859 64.60357666015625 76.955322265625 69.14875793457031 73.05203247070312 73.05203247070312 C 69.14875793457031 76.955322265625 64.60357666015625 80.01979827880859 59.54276657104492 82.16034698486328 C 54.3034782409668 84.37638092041016 48.73768997192383 85.5 43 85.5 Z" stroke="none"/>
      <path d="M 43 1 C 37.3296012878418 1 31.82934188842773 2.110328674316406 26.65201187133789 4.300155639648438 C 21.65080261230469 6.415496826171875 17.15904998779297 9.443984985351562 13.30152130126953 13.30152130126953 C 9.443984985351562 17.15904998779297 6.415496826171875 21.65080261230469 4.300155639648438 26.65201187133789 C 2.110328674316406 31.82934188842773 1 37.3296012878418 1 43 C 1 48.6703987121582 2.110328674316406 54.17065811157227 4.300155639648438 59.34798812866211 C 6.415496826171875 64.34919738769531 9.443984985351562 68.84095764160156 13.30152130126953 72.698486328125 C 17.15904998779297 76.55601501464844 21.65080261230469 79.58450317382812 26.65201187133789 81.69984436035156 C 31.82934188842773 83.88967132568359 37.3296012878418 85 43 85 C 48.6703987121582 85 54.17065811157227 83.88967132568359 59.34798812866211 81.69984436035156 C 64.34919738769531 79.58450317382812 68.84095764160156 76.55601501464844 72.698486328125 72.698486328125 C 76.55601501464844 68.84095764160156 79.58450317382812 64.34919738769531 81.69984436035156 59.34798812866211 C 83.88967132568359 54.17065811157227 85 48.6703987121582 85 43 C 85 37.3296012878418 83.88967132568359 31.82934188842773 81.69984436035156 26.65201187133789 C 79.58450317382812 21.65080261230469 76.55601501464844 17.15904998779297 72.698486328125 13.30152130126953 C 68.84095764160156 9.443984985351562 64.34919738769531 6.415496826171875 59.34798812866211 4.300155639648438 C 54.17065811157227 2.110328674316406 48.6703987121582 1 43 1 M 43 0 C 66.74824523925781 0 86 19.25175476074219 86 43 C 86 66.74824523925781 66.74824523925781 86 43 86 C 19.25175476074219 86 0 66.74824523925781 0 43 C 0 19.25175476074219 19.25175476074219 0 43 0 Z" stroke="none" fill="#978edb"/>
    </g>
    <g id="그룹_1610" data-name="그룹 1610" transform="translate(160.36 176.9)">
      <g id="그룹_1609" data-name="그룹 1609" clip-path="url(#clip-path)">
        <path id="패스_22523" data-name="패스 22523" d="M65.445,0h-.038A15.44,15.44,0,0,0,54.161,4.639a15.441,15.441,0,0,0-4.638,11.246v7.327h4.866V16.6a10.694,10.694,0,0,1,3.238-7.819,10.646,10.646,0,0,1,7.8-3.218h.019a10.677,10.677,0,0,1,7.8,3.218A10.7,10.7,0,0,1,76.483,16.6v6.608h4.866V15.885a15.345,15.345,0,0,0-4.7-11.246A15.294,15.294,0,0,0,65.445,0" transform="translate(-45.093 0)" fill="#fff"/>
        <path id="패스_22524" data-name="패스 22524" d="M9.3,259.475H0v28.777H21.052V259.475Z" transform="translate(0 -236.263)" fill="#357290"/>
        <path id="패스_22525" data-name="패스 22525" d="M254.956,259.475H235.342v28.777h19.614Z" transform="translate(-214.289 -236.263)" fill="#1b4050"/>
        <path id="패스_22526" data-name="패스 22526" d="M40.666,585.94v-4.771H0v4.771Z" transform="translate(0 -529.18)" fill="#fff"/>
        <path id="패스_22527" data-name="패스 22527" d="M152.914,350.9a7.3,7.3,0,1,0,5.169,2.14,7.045,7.045,0,0,0-5.169-2.14" transform="translate(-132.581 -319.511)" fill="#6096b0"/>
        <path id="패스_22528" data-name="패스 22528" d="M198.108,383.52a3.176,3.176,0,0,0-.947-2.291,3.1,3.1,0,0,0-2.253-.909,3.106,3.106,0,0,0-3.161,3.2,3.1,3.1,0,0,0,.909,2.253,4.006,4.006,0,0,0,1.117.72v2.063a.957.957,0,0,0,.322.738,1.179,1.179,0,0,0,.852.379,1.07,1.07,0,0,0,.814-.379.96.96,0,0,0,.322-.738v-2.082a3.185,3.185,0,0,0,2.026-2.953" transform="translate(-174.594 -346.298)" fill="#474645"/>
      </g>
    </g>
  </g>
</svg>
