<svg xmlns="http://www.w3.org/2000/svg" width="181.035" height="23.9" viewBox="0 0 181.035 23.9">
  <g id="그룹_1256" data-name="그룹 1256" transform="translate(0 0)">
    <g id="그룹_1266" data-name="그룹 1266" transform="translate(0 0)">
      <path id="패스_21791" data-name="패스 21791" d="M50.087.065a.233.233,0,0,0-.116-.058c-.178-.037-.354.091-.624.3l-.207.156c-.733.39-1.292,2.219-1.417,2.971-.022.01-.039.022-.078.041a3.2,3.2,0,0,0-2.131-1.606C45.856,3.173,47,7.1,48.524,6.76c.774-.172,2.389-3.43,2.405-5.225V1.469c-.012-.95-.45-1.289-.842-1.4" transform="translate(-11.156 0)" fill="#ed6b00"/>
      <path id="패스_21792" data-name="패스 21792" d="M63.5,26.572a12.471,12.471,0,0,0-4.415.592,1.554,1.554,0,0,0-.7.492c.03.394-.206,1.018.161,1.166.019,0,.017.061.035.094.108.109.22.125.33.263.07.1.128-.011.2.03.034.036.053.1.09.1.183.085.353.052.535.141a.481.481,0,0,0,.276.073c.057-.021.128.109.148.142a2.31,2.31,0,0,0,1.019.008c1.061-.016.861-.12,1.92-.137.893-.014,1.762.123,2.652.108.484-.014,1.008,0,1.49-.033.854-.05,1.708.082,2.564.092.427-.01.923.156,1.354.188a6.756,6.756,0,0,1,1.376-.022,1.188,1.188,0,0,1,.448.06,1.234,1.234,0,0,0,.42.149,2.726,2.726,0,0,0,1.173-.275,2.616,2.616,0,0,0,.691-.248.608.608,0,0,0,.251-.4,1.6,1.6,0,0,0,.085-1.034c-.021,0-.076.026-.1-.007-.042-.061-.03-.209-.09-.214a3.293,3.293,0,0,0-.51-.124c-.226-.047-.457-.153-.682-.2A58.045,58.045,0,0,0,63.5,26.572" transform="translate(-14.3 -6.508)" fill="#00905f"/>
      <path id="패스_21793" data-name="패스 21793" d="M30.716,27.248c.192.043.411.039.515.166.1.1-.1.263-.091.4,0,.315.116.6.11.914a.191.191,0,0,1-.079.161.836.836,0,0,1-.23.217c-.267.169-.616.1-.925.193a6.6,6.6,0,0,1-1.23.206,16.356,16.356,0,0,1-2.2-.1,2.188,2.188,0,0,0-.834.111,3.448,3.448,0,0,1-1.027.064c-1.789-.064-3.545-.1-5.327-.088-.312.011-.654.051-.966.063-1.432.08-2.86.056-4.293.093-.5.013-1,.027-1.5.014l-.811.02c-1.059.054-2.145.1-3.209.06l-1.249.012a33.165,33.165,0,0,1-3.581.19,6.092,6.092,0,0,1-2.5-.661A3.361,3.361,0,0,1,0,28.133a1.411,1.411,0,0,1,.852-.453,23.489,23.489,0,0,1,2.34-.491c.68-.114,1.3-.171,1.956-.229a161.377,161.377,0,0,1,21.925-.229,23.89,23.89,0,0,1,3.642.518" transform="translate(0 -6.486)" fill="#0061b1"/>
      <path id="패스_21794" data-name="패스 21794" d="M60.292,15.744v.1c.075.194.229.245.38.39h.5c0-.1.114,0,.114-.1a.418.418,0,0,0,.365-.194h.082a.422.422,0,0,1,.369-.248c.2-.245.408-.49.613-.734a.287.287,0,0,1,.121-.247,8.884,8.884,0,0,1,.41-1.374,2.013,2.013,0,0,0,.042-.489c.04,0,.08,0,.08-.048-.04-.2.082-.3.164-.393.082,0,.162,0,.2-.1v-.1a.86.86,0,0,1,.595.34H64.6c0,.1.054.1.11.151a2.852,2.852,0,0,1,.9.047c0,.146.214.1.268.245a1.407,1.407,0,0,0,.162.442.174.174,0,0,1-.056.149c.109.144.214.391.056.536.053.2,0,.442.106.639-.106.1-.054.246-.054.343a2.77,2.77,0,0,1,.162.687c.214.245.161.541.324.785v.291c.106,0,0,.149.106.149a5.538,5.538,0,0,1-.106.935c-.055.047-.109.1-.163.146v.1c-.055,0-.106,0-.106-.051-.11.148-.269.245-.378.393-.107-.048-.161.05-.214.05-.106,0,0,.147-.106.147a.423.423,0,0,0-.271.1c-.108.048-.473-.051-.58.048l-.053-.048a.3.3,0,0,1-.217.1c0-.05,0-.1-.054-.1a.388.388,0,0,1-.43.2c-.046-.1-.027-.171-.149-.216a1.946,1.946,0,0,0-.2-.841c.04,0,.04-.044.04-.088a1.531,1.531,0,0,1-.12-.4c-.125-.18-.165-.443-.328-.576.042-.045-.084-.089-.043-.133-.079-.087-.121-.133-.2-.221-.079,0-.079.045-.121.088-.042.22-.245.4-.287.62l-.04-.044c-.042.133-.164.22-.164.355-.081.043-.124.176-.2.22v.089c-.288.265-.443.694-.786.879-.085.185-.3.223-.386.429a1.881,1.881,0,0,0-.49.1c-.109-.051-.269-.156-.375-.051,0-.051-.055-.051-.106-.051l-.054.051c-.107-.1-.266,0-.427-.051a6.971,6.971,0,0,0-1.067-.568c-.109,0,0-.155-.109-.155a.2.2,0,0,1-.159-.051c0-.155.054-.259-.108-.362l.054-.051c0-.05-.054-.05-.106-.05-.054-.311-.214-.569-.266-.876a1.3,1.3,0,0,1-.108-.1.9.9,0,0,0-.109-.412c-.052-.207.133-.379.029-.578a.163.163,0,0,1,.054-.143,1.341,1.341,0,0,1,.05-.64c-.05,0-.05-.047-.05-.1a1.217,1.217,0,0,0,.1-.589c.049-.146.151-.293.2-.441l-.051-.048c.1-.1.051-.246.2-.343,0-.051,0-.1-.051-.1,0-.1.1-.149.152-.2a2.021,2.021,0,0,1,.371-.557l-.039-.06a.721.721,0,0,1,.5-.195,1.192,1.192,0,0,1,.473.163c.058.118,0,.207.079.355h.076v.1c0,.049.037.049.075.049a.88.88,0,0,1,.075.442c0,.048.039.048.079.048-.039.1.075.2.075.3-.075.1,0,.245-.038.393.115.243.078.539.19.783a1.225,1.225,0,0,0,.155.541" transform="translate(-14.111 -2.993)" fill="#1a1311"/>
      <path id="패스_21795" data-name="패스 21795" d="M34.8,17.4a1.046,1.046,0,0,1,.252.225.638.638,0,0,0,.233.244,1.992,1.992,0,0,1,.208.1l.066.137.166.155c.177.054.211-.052.345.133.06,0,.118,0,.118.051l.06-.051c.058.1.175.155.235.208a.672.672,0,0,1,.446.168c.058,0,.066.119.066.069.18.047.3.167.42.061.057,0,.116,0,.116.053l.058-.053c.118-.051.143.088.262.039.06,0,.06.05.06.1h.116c.117.1.618-.034.736.072a8.484,8.484,0,0,0,1.748-.069c.006-.1.169.008.174-.092l.055.051c.222.062.456-.193.676-.085.06-.046.06-.046.118-.094.113-.045.276.163.394.02,0,.049.053.051.109.054,0-.05,0-.05,0-.1.174-.091.387-.068.514-.205.057,0,.168.014.224.023l.122-.089c.29-.069.546-.3.875-.374.052-.056.165-.064.211-.171.055-.007.112-.011.17-.014.05-.054.1-.112.152-.164.174.033.325-.2.49-.227-.008-.048-.016-.1.038-.108l.065.042c.1-.069.1-.069.142-.175.173.023.268-.191.362-.308.056-.006.056-.006.111-.014.046-.059.046-.059.094-.117l.113-.019c.148-.125.234-.289.447-.374-.008-.048-.017-.1.039-.109.12.032.094-.115.14-.172.048-.035.2-.14.235-.091-.008.082.145-.212.137-.133.039.05.232-.453.277-.486l-.467-1.22c-.174.243-.785,1.043-1.114,1.118.005.257-.281.269-.476.417.012.046.025.1-.032.109-.164.037-.234.22-.345.243-.012-.048-.066-.036-.122-.023-.043.061-.152.085-.182.2-.165.036-.214.2-.31.313l-.063-.04c-.2.181-.484.163-.62.386-.318.149-.589.2-.919.325-.055,0-.111.007-.116-.045-.048.1-.279.02-.326.124a5.8,5.8,0,0,0-.954.063c-.008-.1-.172.011-.176-.086-.276.118-.557-.038-.839-.038-.055-.051-.168-.051-.225-.149a.653.653,0,0,1-.618-.151c-.169,0-.282-.152-.45-.2v-.1c-.055-.051-.055-.051-.113-.1,0-.149.169-.149.282-.2.112-.149.417-.115.528-.265,0-.051.152-.147.152-.2.055-.1.094-.195.151-.195.169-.1.058-.217.284-.266,0-.051.177-.173.119-.224.225-.149.22-.235.278-.535.11-.148.278-.312.278-.513.055-.048-.014-.266.1-.317.054-.348-.089-.534-.089-.882l-.113-.1c0-.152-.112-.25-.057-.4-.168-.152-.127-.2-.3-.347l-.1-.1h-.113c-.055-.1-.225-.149-.225-.251a3.726,3.726,0,0,1-.672-.3l-.058.052-.057-.052c-.056.052-.056.052-.112.1,0-.152-.168,0-.223-.1-.114,0-.226-.051-.337.052-.338-.1-.7.073-1.04-.075,0,.1-.225-.051-.225.1-.112.048-.277.045-.331.092h-.17a.873.873,0,0,1-.647.326c-.112,0,0,.149-.112.149h-.112a5.614,5.614,0,0,1-.844.75c0,.051-.114.1-.055.2,0,.051-.059.051-.114.051a.254.254,0,0,1-.112.2c0,.05,0,.1.057.1,0,.051-.087.177-.142.177-.056.2-.056.4-.226.5,0,.4-.117.592-.143,1.031A5.632,5.632,0,0,1,34.1,16c.175.106-.044.1.073.256.058,0,.028.09.028.142.057.1.245.18.184.285,0,.052.1.1.157.1.06.1-.086.22.032.271,0,.051.187.011.128.115Zm3.667-3.254c-.113.054,0,.159-.113.211l.057.052a2.065,2.065,0,0,1-.91,1.425c-.057,0-.114,0-.114-.052,0-.107-.115-.264-.056-.37,0-.052-.06-.052-.116-.052.116-.106-.076-.211-.017-.371-.06,0-.06-.051-.06-.1.172-.106.032-.377.2-.482l-.057-.054a1.645,1.645,0,0,1,.256-.376v-.1a2.252,2.252,0,0,1,.811-.405c.057,0,.113,0,.113.048.171.215.057.424,0,.635" transform="translate(-8.344 -2.827)" fill="#1a1311"/>
      <path id="패스_21796" data-name="패스 21796" d="M50.734,13.688c.007.07.015.139.022.2.385.374.31,1.009.565,1.465-.122.159-.035.355-.088.5l.151.119c-.1.362.142.68.108,1.034-.063.078-.063.078-.125.155.007.068.015.138.083.13l-.061.077.075.061-.062.078c.068-.011.076.058.082.131-.122.152.1.335-.088.5a.251.251,0,0,1,.088.2c-.192.163-.074.46-.208.674l.069.066-.066.074-.072-.067c-.069,0-.066.074-.064.142.07.134.212.265.078.413l.07.063a.882.882,0,0,0-.325.528l-.125.139a.235.235,0,0,1,.069.2c-.125.14-.188.276-.313.415,0,.066.07.2-.058.267l.067.065c-.064.136-.122.337-.183.475.065,0,.065.062.065.127-.189.143-.408.3-.338.558-.123.2-.283.274-.408.48.069.127-.224.189-.222.321s-.19.079-.123.206l.065.064c-.063,0-.063,0-.126.007a.318.318,0,0,1-.189.208c0,.066,0,.134-.063.136a2.33,2.33,0,0,0-.294.33c.066.063-.206.2-.144.2a.37.37,0,0,0-.152.257c-.063,0-.128,0-.135.059l0,.087c-.045.046-.057.045-.151.066-.5.573-1.234.8-1.738,1.366-.134.063-.267.122-.4.181s-.091.259-.209.186c.005-.065-.173.058-.238.056-.141.126-.351.033-.48.025,0-.064-.071-.051-.13-.118l-.071.062a.678.678,0,0,0-.267-.21c-.057-.066.069-.137,0-.14l.073-.063c.006-.064-.1-.081-.166-.085-.115-.139.131-.034.08-.172l-.252-.02c-.059-.131-.182-.134-.235-.27.011-.129.294-.126.306-.261.128.009.091-.011.226-.073l-.048-.093c.137-.063.116-.175.178-.174,0,.067.05-.009.113-.006s.128.006.135-.059a.257.257,0,0,1,.082-.2c.064.006.064.006.128.009a2.6,2.6,0,0,0,.389-.4c.005-.066.005-.066.012-.131.069-.062.081-.194.217-.254-.006.067-.017.132.052.136.2-.123.081-.2.029-.329.071-.065.071-.065.142-.125-.007.066.107.015.044.011-.006.066.067-.152.131-.15.158-.245.042.045.279-.408.05-.05.171-.1.181-.129-.014-.006.151-.064.093-.133-.009-.053.016-.075-.119-.013.077-.129.3-.324.313-.457.188.077.038-.221.166-.215-.069.061-.134-.065-.132,0l.214-.006c.143-.125-.2-.119-.07-.262,0-.063-.021-.1-.084-.1,0-.066-.019-.122.045-.124l.066.062c.062-.069-.06-.292.066-.365,0-.066,0-.134,0-.2.191-.14.1-.118.164-.32l-.065-.062c0,.066.137-.061.074-.058,0-.069,0-.069,0-.136.127-.072.215-.513.211-.646,0,.134-.149-.3-.02-.243.186-.277.06-.645.088-.983-.135-.048.1-.146.029-.268-.063.006-.127.014-.135-.051.057-.074.057-.074.112-.151-.005-.063-.012-.131-.075-.121-.007-.066-.011-.134.051-.14-.009-.066-.014-.131-.078-.124l.114-.149c-.007-.065-.069-.058-.134-.048.038-.274-.236-.471-.137-.75-.062.006-.069-.058-.076-.126.172-.222-.062-.488.045-.7-.134-.05-.083-.191-.1-.325.057-.072-.107-.138-.114-.2a4.685,4.685,0,0,1-.22-.9c-.127.115-.219-.923-.329-1.326-.166-.259-.054-.552-.154-.819.069-.008.137-.017.132-.086-.091-.2.109-.293.156-.508.137-.017.266-.1.418.017.131-.085.05-.214.042-.283.273-.032.481-.061.756-.1.007.069.012.139.082.13.205-.026.29.1.494.075.008.072.013.14.082.132a.342.342,0,0,1,.289.1c.069-.01.137-.019.13-.085l.075.057.063-.075a.235.235,0,0,0,.211.042c.075.063.1.267.227.184a16.517,16.517,0,0,1,.985,1.481" transform="translate(-10.83 -2.854)" fill="#1a1311"/>
      <path id="패스_21797" data-name="패스 21797" d="M12.386,13.632c-.022-.111-.182-.143-.247-.145s-.192.137-.256.028a1.083,1.083,0,0,1-.242.272.386.386,0,0,1-.226.054c-.032.17-.051.188.1.584.068.013.137.391.211.408-.031-.145.2.313.269.377l.094.023c.046.013.023.055,0,.1l.205.146c.021.055.066.071.017.15a1.117,1.117,0,0,1,.39.164c.046.019.017.056-.009.1.044.019.087.038.116,0,.113,0,.032.116.049.171l.07-.018c.017.057.1.1.1.1.137.208.808.463.975.652l.066-.032c.052.109.346.129.346.271l.063-.038c.031.052.473.136.6.2.062-.039-.027-.1.041-.137.073.061.226.2.3.267a2.552,2.552,0,0,1,.328.045c.172.183.525.069.735.164a.148.148,0,0,0,.117.076l.066-.033.026.052c.131-.067.2,0,.289-.077L17,17.6l.065-.035.051.11c.183.039.349.125.546.025a.142.142,0,0,0,.117.073c.065-.033.065-.033.133-.064.137.029.161.084.321.071l.024.054a.67.67,0,0,1,.518-.029c.04-.085.138.032.177-.056l.026.055c.152-.111.387-.054.545-.06l.023.055c.068-.031.041,0,.041,0,.133-.063.456-.066.542-.139a.711.711,0,0,0,.425.048c.052.011.154.035.2.05a.483.483,0,0,1,.554-.029,3.214,3.214,0,0,0,.7-.289c.051.014.1.029.152.045.077-.029.126-.012.178-.1a2.371,2.371,0,0,0,.591-.293c.023.057.15-.05.174,0,.026-.04.026-.04.052-.082.1.03.174-.1.276-.065.026-.039.026-.039.051-.081.152-.051.092-.091.244-.143.129-.088.311-.392.607-.521-.008-.1.188-.151.231-.236.023-.043.074-.032.124-.022l-.029-.054c.072-.032.051-.174.119-.112.019-.044.106-.157.063-.165.145-.113.143-.482.355-.528l.037-.088c.085-.112.052-.322.1-.352.017-.042-.006-.072.039-.062.054-.169.094-.427.145-.656-.044-.008-.024-.051,0-.1.042.01.06-.034.08-.076-.042-.01-.024-.054-.006-.1l.061-.033c-.086-.02.012-.138-.075-.156l.06-.035c-.074-.208.033-.419-.04-.626l.057-.034a.273.273,0,0,1,0-.365.163.163,0,0,1,0-.143c-.116-.073.027-.152-.046-.217.042-.13-.1-.26-.017-.383-.057-.108-.068-.153-.131-.258.012-.046.025-.091.037-.136-.042-.009-.088-.019-.077-.063.069-.082-.008-.143.019-.233-.088-.016-.042-.093-.072-.144a1.276,1.276,0,0,0-.236-.632c.06-.088-.063-.44-.056-.552l-.087-.045a.381.381,0,0,0-.162-.23c0-.056,0-.056.007-.11-.044,0-.089,0-.083-.06l0-.111-.049.052a.322.322,0,0,1-.112-.282c-.162-.229-.224-.393-.455-.727-.091.057,0-.171-.114-.12a1.258,1.258,0,0,0-.39-.525c.006-.054.006-.054.01-.112-.05,0-.05,0-.1,0s-.045-.057-.038-.111c-.29-.177-1.319-.322-1.476-.605-.091,0-.177-.063-.23.049L21.713,6.6c-.242.158-.443-.126-.665-.189L21,6.468c-.078-.168-.227-.006-.318-.007a.134.134,0,0,0-.129-.062c-.236.1-.452-.014-.656.26l-.04-.059.511.956a4.133,4.133,0,0,0,.27.947c.046.008.1.116.137.178-.012.051-.012.051-.023.1.068.124.137.248.2.374-.046-.011-.058.04-.07.094.055.176.054.366.106.537.072.063-.011.1.067.183.009.008-.048.111-.036.117a.276.276,0,0,0,.023.191c.026.191.017.039.149.175-.123.146.083.387-.038.531.065.069.067-.028.088.026-.022.038-.022.038-.042.079s.02.055.063.073c.042.106-.035.169.022.273.043.01,0,.143.047.152.013.1.134.127.018.194-.043-.012-.018.183-.063.313a.834.834,0,0,1-.014.319c.045.01.074-.043.058,0s-.015.043-.029.086c.043.009.039.089.022.131,0,.138-.089.209-.135.337-.05.278.094.505-.094.6.067.061-.017.135-.035.18-.063.029-.045.165-.1.2-.07.171-.1.162-.174.331-.115.066-.134.14-.248.208-.019.041-.019.041-.036.084s-.057.032-.1.024c-.075.077-.335.2-.372.279l.023.054a1.817,1.817,0,0,0-.374.175c-.171.1-.3.1-.475.194-.156-.045-.287.071-.443.026-.06.032-.119.065-.178.091-.079-.02-.2.04-.254-.023-.078-.019-.061.123-.138.1l-.076-.023-.02-.052c-.119.063-.214-.013-.333.048l-.018-.05c-.119.06-.217-.008-.292.069a.933.933,0,0,0-.491-.056c.017-.045-.021-.051-.063-.057l-.057.035c.018-.043-.334-.019-.373-.023l-.08-.015-.025-.051-.056.035c-.063-.056-.483-.1-.584-.208-.08.075-.156.042-.248.023a4.171,4.171,0,0,1-.879-.2l-.028-.055a.35.35,0,0,1-.4-.109c-.046-.011-.109-.016-.155-.029-.048-.112-.345-.091-.383-.2a1.451,1.451,0,0,1-.211-.179c-.1.059-.341-.233-.387-.251l-.162-.006-.06-.176-.218-.164c-.088-.164-.177-.034-.207-.174" transform="translate(-2.792 -1.566)" fill="#1a1311"/>
      <path id="패스_21798" data-name="패스 21798" d="M16.777,6.516c.061,0,.122.005.18.008.291.3.864.211,1.244.4.151-.11.316-.045.454-.1.046.06.046.06.091.12.334-.1.513.067.83.045.079-.049.079-.049.156-.1.06.007.118.017.1.071l.079-.051.042.063.079-.048c-.02.056.04.063.1.067.153-.1.248.035.424-.112a.192.192,0,0,0,.159.084c.177-.148.239.007.455-.063l.037.065.079-.042-.034-.067c.02-.054.079-.041.137-.028.1.08.161.2.325.126l.032.066c.1-.072-.685-.107.544-.146l.157-.07a.188.188,0,0,0,.14.1c.156-.072.29-.093.446-.162.055.014.141.094.243.009l.031.063c.134-.017.321-.025.453-.043-.02.05-.088-.069-.036-.046.189-.1.394-.208.57-.067.211-.023.3-.129.514-.144.068.1.239-.1.339-.042s.1-.09.168.012l.017.072c.032-.042.032-.042.063-.089a.284.284,0,0,0,.24-.051c.048.028.1.058.128.014a2.26,2.26,0,0,1,.376-.082c.019.076.133-.035.1.011a.313.313,0,0,1,.257.021c.029-.044.062-.088.111-.061l.057.044c.057-.008.061-.017.126-.069.656-.058,1.021-.379,1.674-.379l.343-.154c.113-.053.217.087.238-.03-.045-.032.134-.078.169-.119.16-.017.258-.294.323-.383-.047-.032,0-.072-.011-.149L29.6,5.07a1.349,1.349,0,0,1,0-.435c-.014-.074-.128-.026-.1-.072l-.028-.052c-.046-.032.014-.112.047-.155-.031-.152-.169.02-.234-.089l.119-.176c-.054-.108-.3-.171-.39-.235-.065.091-.06.055-.171.111l-.039-.083c-.112.06-.179-.012-.211.03.048.03-.032.026-.061.069s-.066.091-.113.057a.231.231,0,0,0-.174-.048c-.032.047-.032.047-.063.087a2.525,2.525,0,0,1-1.105-.026l-.157.039c.051.026-.041.085-.011.038.049.027-.144-.026-.174.022-.254,0-.81.054-.7-.011-.128-.005-.379.061-.478.01-.038.164-.216-.093-.271,0,.079-.021-.1-.032-.048-.009l.006.066c-.159.048-.168-.1-.325-.042-.053-.023-.077-.049-.051-.1-.054-.02-.091-.051-.116,0l.025.068c-.078.029-.211-.131-.316-.058l-.158-.063a1.282,1.282,0,0,1-.565.113l-.035-.063c.054.011-.091.1-.072.047l-.111-.023a1.075,1.075,0,0,1-.605.062c.111.026-.225-.193-.205-.079-.281.109-.6-.055-.9-.058-.019-.115-.144.075-.239,0,.019-.053.036-.1-.019-.115-.075.042-.129.023-.2.069-.057-.007-.115-.014-.1-.066-.058-.007-.116-.014-.132.037-.057-.008-.114-.016-.1-.066-.073.042-.148.1-.22.146-.056-.005-.042-.058-.029-.11-.245.035-.385-.186-.644-.1.014-.05-.041-.054-.1-.06-.216.143-.521-.013-.721.089-.034-.106-.163-.054-.279-.056-.069.05-.116-.08-.172-.082a4.293,4.293,0,0,0-.781-.119c.11-.11-.8-.115-1.151-.177-.218-.119-.487-.008-.716-.07-.014.057-.026.113-.086.112-.169-.06-.27.11-.464.165-.025.113-.149.168-.116.266-.085.112-.1.131-.156.13-.051.227-.091.2-.149.428.06.006.122.008.106.064-.045.168.061.233.016.4.06,0,.122.006.106.063a.239.239,0,0,0,.062.232c-.015.056-.029.112-.09.109l.044.059-.075.054a.17.17,0,0,1,.016.171c.046.059.226.069.138.18a12,12,0,0,0,1.212.743" transform="translate(-3.736 -0.818)" fill="#1a1311"/>
      <path id="패스_21799" data-name="패스 21799" d="M101.01,17.69a.166.166,0,0,1-.057.114.184.184,0,0,1-.134.057H99.488v2.207c0,.115-.063.171-.19.171H97.109a.151.151,0,0,1-.171-.171V17.861H91.305a.184.184,0,0,1-.134-.057.166.166,0,0,1-.057-.114V15.9a.665.665,0,0,1,.028-.162.561.561,0,0,1,.067-.162L96.8,6.12a.569.569,0,0,1,.1-.114.2.2,0,0,1,.124-.057H99.3a.17.17,0,0,1,.133.066.2.2,0,0,1,.057.124v9.514h1.332c.127,0,.19.07.19.21Zm-4.072-7.117-3.026,5.08h3.026Z" transform="translate(-22.332 -1.458)" fill="#1a1311"/>
      <path id="패스_21800" data-name="패스 21800" d="M108.462,13.284A1.625,1.625,0,0,1,110.08,14.9a1.522,1.522,0,0,1-.476,1.132,1.63,1.63,0,0,1-2.283,0,1.522,1.522,0,0,1-.476-1.132,1.625,1.625,0,0,1,1.618-1.618" transform="translate(-26.187 -3.256)" fill="#1a1311"/>
      <path id="패스_21801" data-name="패스 21801" d="M117.083,9.192a.173.173,0,0,1-.1.114.21.21,0,0,1-.152.019l-2.017-.647a.171.171,0,0,1-.133-.1.121.121,0,0,1,0-.133,4.094,4.094,0,0,1,.56-1.113,3.98,3.98,0,0,1,.886-.9,4.28,4.28,0,0,1,1.188-.609,4.662,4.662,0,0,1,1.495-.228,5.716,5.716,0,0,1,1.637.238,4.31,4.31,0,0,1,1.417.713,3.615,3.615,0,0,1,1,1.2,3.545,3.545,0,0,1,.381,1.674,4.036,4.036,0,0,1-.571,2.2,3.444,3.444,0,0,1-1.465,1.323,3.107,3.107,0,0,1,1.637,1.284,4.458,4.458,0,0,1,.571,2.407,3.409,3.409,0,0,1-1.39,2.845,4.517,4.517,0,0,1-1.455.7,6.144,6.144,0,0,1-1.7.238,5.25,5.25,0,0,1-1.711-.266,4.993,4.993,0,0,1-1.371-.7,4,4,0,0,1-.97-1.018,3.508,3.508,0,0,1-.513-1.189c-.026-.127.013-.2.113-.229l2.037-.571c.088-.013.159.045.209.171a1.978,1.978,0,0,0,.524.913,2.475,2.475,0,0,0,.827.542,2.312,2.312,0,0,0,.952.162,1.886,1.886,0,0,0,1.58-.932,2.093,2.093,0,0,0,.266-1.1,2,2,0,0,0-.219-.97,1.793,1.793,0,0,0-.618-.657,2.931,2.931,0,0,0-.96-.38,5.73,5.73,0,0,0-1.227-.124.174.174,0,0,1-.134-.066.2.2,0,0,1-.056-.124V12.009a.168.168,0,0,1,.19-.19,3.509,3.509,0,0,0,2.092-.562,1.938,1.938,0,0,0,.781-1.684,1.663,1.663,0,0,0-.494-1.313,1.778,1.778,0,0,0-1.124-.467,2.107,2.107,0,0,0-1.208.324,1.632,1.632,0,0,0-.751,1.075" transform="translate(-28.014 -1.371)" fill="#1a1311"/>
      <path id="패스_21805" data-name="패스 21805" d="M218.556,14.674c0,.127-.057.19-.171.19H207.4q-.152,0-.152-.19V12.828a.178.178,0,0,1,.048-.114.135.135,0,0,1,.1-.057h3.482V9.269a.147.147,0,0,1,.066-.124.219.219,0,0,1,.124-.048h2.075a.152.152,0,0,1,.171.171v3.387h5.062a.153.153,0,0,1,.124.057.178.178,0,0,1,.048.114Zm-.876-3.026c0,.127-.057.19-.171.19h-2.093a.166.166,0,0,1-.115-.057.185.185,0,0,1-.057-.134V6.891H208.28a.163.163,0,0,1-.114-.057.183.183,0,0,1-.057-.134V4.874a.18.18,0,0,1,.057-.133.161.161,0,0,1,.114-.057h9.229c.115,0,.171.063.171.19Zm4.358,9.534a.153.153,0,0,1-.057.124.178.178,0,0,1-.114.048H210.716a.961.961,0,0,1-.723-.324,1.1,1.1,0,0,1-.3-.78V16.234c0-.127.051-.19.152-.19h2.112a.178.178,0,0,1,.114.048.176.176,0,0,1,.057.143v2.931h9.743a.178.178,0,0,1,.114.048.153.153,0,0,1,.057.124Zm-.343-4.034a.18.18,0,0,1-.057.133.161.161,0,0,1-.114.057h-2.093c-.114,0-.171-.063-.171-.19V4.683a.152.152,0,0,1,.171-.171h2.093a.177.177,0,0,1,.114.048.153.153,0,0,1,.057.124V9.631h1.9a.178.178,0,0,1,.114.048.176.176,0,0,1,.057.143v1.827a.186.186,0,0,1-.057.134.165.165,0,0,1-.114.057h-1.9Z" transform="translate(-106.428 -1.106)" fill="#1a1311"/>
      <path id="패스_21806" data-name="패스 21806" d="M240.181,20.078a.2.2,0,0,1-.171.171h-8.7a1,1,0,0,1-.742-.314,1.065,1.065,0,0,1-.3-.771V11.42c0-.127.057-.19.171-.19h6.184V6.891h-6.184c-.114,0-.171-.063-.171-.19V4.874c0-.127.057-.19.171-.19h8.525c.114,0,.171.063.171.19v8.335a.152.152,0,0,1-.171.171h-6.185v4.681h7.231a.161.161,0,0,1,.114.057.18.18,0,0,1,.057.133Zm3.482,1.1a.152.152,0,0,1-.171.171H241.4a.178.178,0,0,1-.114-.048.155.155,0,0,1-.057-.124V4.683a.155.155,0,0,1,.057-.124.178.178,0,0,1,.114-.048h2.093a.152.152,0,0,1,.171.171Z" transform="translate(-112.069 -1.106)" fill="#1a1311"/>
      <path id="패스_21807" data-name="패스 21807" d="M260.9,18.958a.266.266,0,0,1,.01.133c-.007.063-.029.1-.066.114l-1.846.571a.165.165,0,0,1-.247-.1L255.777,8.8,252.809,19.68c-.038.1-.121.134-.248.1l-1.827-.571a.114.114,0,0,1-.085-.114.266.266,0,0,1,.01-.133l3.863-13.987a.855.855,0,0,1,.466-.571,1.775,1.775,0,0,1,1.6,0,.855.855,0,0,1,.466.571Zm4.11,2.15a.152.152,0,0,1-.171.171h-2.093a.152.152,0,0,1-.171-.171V4.609a.152.152,0,0,1,.171-.171h2.093a.152.152,0,0,1,.171.171Z" transform="translate(-117.064 -1.032)" fill="#1a1311"/>
      <path id="패스_21808" data-name="패스 21808" d="M288.154,20.145c0,.127-.057.19-.171.19H273.369c-.114,0-.171-.063-.171-.19V18.318a.151.151,0,0,1,.171-.171h14.615a.151.151,0,0,1,.171.171Zm-2.3-5.328a.174.174,0,0,1-.124.029.143.143,0,0,1-.1-.066l-4.948-7.688-4.947,7.688a.15.15,0,0,1-.106.066.174.174,0,0,1-.124-.029l-1.637-1.123a.121.121,0,0,1-.047-.124.326.326,0,0,1,.047-.143l5.652-8.754a1.148,1.148,0,0,1,.5-.447,1.571,1.571,0,0,1,.657-.143,1.633,1.633,0,0,1,.666.143,1.136,1.136,0,0,1,.514.447l5.633,8.754a.233.233,0,0,1,.066.143.114.114,0,0,1-.066.124Z" transform="translate(-122.591 -1.001)" fill="#1a1311"/>
      <path id="패스_21809" data-name="패스 21809" d="M302.674,13.113a.18.18,0,0,1-.057.133.163.163,0,0,1-.114.057H295.88a.94.94,0,0,1-.733-.333,1.128,1.128,0,0,1-.294-.771V4.874c0-.127.057-.19.171-.19h6.965a.165.165,0,0,1,.115.057.182.182,0,0,1,.057.133V6.529a.154.154,0,0,1-.057.124.18.18,0,0,1-.115.048h-4.7V7.957h3.825c.114,0,.171.069.171.209V9.707c0,.14-.057.209-.171.209h-3.825v1.351H302.5a.156.156,0,0,1,.114.066.214.214,0,0,1,.057.143Zm6.26,7.136a1.114,1.114,0,0,1-.3.78.95.95,0,0,1-.732.324h-9.591a.95.95,0,0,1-.732-.324,1.114,1.114,0,0,1-.3-.78V14.769c0-.127.057-.19.171-.19h11.3c.114,0,.171.063.171.19ZM306.5,16.767h-6.775v2.4H306.5Zm-4.51-6.851a.2.2,0,0,1-.124-.057.193.193,0,0,1-.066-.152V7.88a.158.158,0,0,1,.066-.114.2.2,0,0,1,.124-.057h1.56V4.683a.155.155,0,0,1,.057-.124.178.178,0,0,1,.114-.048h1.827a.177.177,0,0,1,.114.048.153.153,0,0,1,.057.124v8.982a.2.2,0,0,1-.057.124.154.154,0,0,1-.114.066H303.72a.156.156,0,0,1-.114-.066.2.2,0,0,1-.057-.124V9.916Zm6.946,3.749a.219.219,0,0,1-.048.124.146.146,0,0,1-.124.066h-1.827a.131.131,0,0,1-.1-.066.219.219,0,0,1-.048-.124V4.683c0-.114.051-.171.152-.171h1.827a.152.152,0,0,1,.171.171Z" transform="translate(-127.899 -1.106)" fill="#1a1311"/>
    </g>
  </g>
</svg>
