<svg xmlns="http://www.w3.org/2000/svg" width="232.724" height="30.65" viewBox="0 0 232.724 30.65">
  <g id="그룹_1191" data-name="그룹 1191" transform="translate(0 -0.001)">
    <g id="그룹_1398" data-name="그룹 1398" transform="translate(0 0)">
      <path id="패스_21791" data-name="패스 21791" d="M51.379.083A.3.3,0,0,0,51.23.009C51-.039,50.776.126,50.43.4l-.265.2c-.94.5-1.657,2.845-1.817,3.809-.028.013-.049.028-.1.052A4.108,4.108,0,0,0,45.515,2.4c.438,1.667,1.905,6.7,3.859,6.266.992-.221,3.063-4.4,3.084-6.7V1.884C52.443.666,51.881.231,51.379.083" transform="translate(-1.453 0)" fill="#fff"/>
      <path id="패스_21792" data-name="패스 21792" d="M64.962,26.576a15.993,15.993,0,0,0-5.662.759,1.992,1.992,0,0,0-.9.631c.039.505-.264,1.3.206,1.495.024,0,.022.078.045.12.138.139.283.16.423.338.09.128.165-.014.26.039.044.046.068.126.115.135.235.109.452.067.686.181a.617.617,0,0,0,.354.094c.074-.027.165.139.19.182a2.962,2.962,0,0,0,1.307.011c1.36-.02,1.1-.154,2.462-.175,1.145-.017,2.26.158,3.4.138.621-.018,1.292,0,1.911-.043,1.095-.064,2.191.106,3.288.118.548-.013,1.184.2,1.736.241a8.664,8.664,0,0,1,1.765-.028,1.524,1.524,0,0,1,.574.077,1.582,1.582,0,0,0,.538.191,3.5,3.5,0,0,0,1.5-.352,3.354,3.354,0,0,0,.886-.318.78.78,0,0,0,.322-.509,2.048,2.048,0,0,0,.108-1.326c-.027,0-.1.033-.122-.009-.053-.078-.039-.268-.115-.275a4.223,4.223,0,0,0-.653-.159c-.29-.06-.586-.2-.875-.251a74.437,74.437,0,0,0-13.758-1.3" transform="translate(-1.862 -0.847)" fill="#fff"/>
      <path id="패스_21793" data-name="패스 21793" d="M39.389,27.47c.246.055.527.05.66.213.133.128-.132.338-.116.508,0,.4.148.769.141,1.172a.245.245,0,0,1-.1.206,1.072,1.072,0,0,1-.3.279c-.343.217-.79.134-1.186.248a8.466,8.466,0,0,1-1.577.264,20.975,20.975,0,0,1-2.823-.132,2.806,2.806,0,0,0-1.07.142,4.421,4.421,0,0,1-1.318.082c-2.294-.082-4.546-.13-6.831-.112-.4.015-.838.066-1.238.08-1.836.1-3.668.072-5.505.119-.642.016-1.281.035-1.924.017l-1.04.025c-1.358.07-2.751.134-4.115.076l-1.6.015a42.532,42.532,0,0,1-4.592.244,7.813,7.813,0,0,1-3.212-.848A4.31,4.31,0,0,1,0,28.6a1.809,1.809,0,0,1,1.093-.581,30.121,30.121,0,0,1,3-.629c.872-.146,1.672-.219,2.508-.294a206.949,206.949,0,0,1,28.117-.294,30.636,30.636,0,0,1,4.67.664" transform="translate(0 -0.844)" fill="#fff"/>
      <path id="패스_21794" data-name="패스 21794" d="M61.06,16.742v.127c.1.249.293.314.488.5h.637c0-.126.146,0,.146-.126a.536.536,0,0,0,.469-.249h.1a.541.541,0,0,1,.473-.319c.262-.314.523-.628.786-.941a.368.368,0,0,1,.155-.317,11.391,11.391,0,0,1,.526-1.762,2.581,2.581,0,0,0,.053-.627c.051,0,.1,0,.1-.061-.051-.255.1-.379.21-.5.106,0,.208,0,.262-.127v-.124a1.1,1.1,0,0,1,.763.437h.344c0,.13.07.13.141.194a3.657,3.657,0,0,1,1.159.06c0,.188.274.126.344.315a1.805,1.805,0,0,0,.208.567.223.223,0,0,1-.072.191c.139.185.275.5.072.687.068.252,0,.566.136.819-.136.126-.069.316-.069.44a3.552,3.552,0,0,1,.207.881c.275.314.206.693.415,1.007v.373c.136,0,0,.192.136.192a7.1,7.1,0,0,1-.136,1.2c-.071.06-.14.126-.209.188v.126c-.071,0-.137,0-.137-.065-.141.19-.345.315-.485.5-.137-.062-.206.064-.275.064-.137,0,0,.189-.137.189a.543.543,0,0,0-.348.126c-.138.062-.606-.065-.743.062L66.72,20.7a.386.386,0,0,1-.278.126c0-.064,0-.126-.07-.126a.5.5,0,0,1-.552.252c-.059-.126-.035-.219-.192-.277a2.5,2.5,0,0,0-.262-1.078c.051,0,.051-.056.051-.112a1.963,1.963,0,0,1-.154-.511c-.16-.23-.212-.568-.42-.739.053-.058-.107-.114-.055-.17-.1-.111-.155-.17-.261-.284-.1,0-.1.058-.155.113-.054.283-.315.511-.368.795l-.051-.056c-.053.17-.21.283-.21.455-.1.055-.159.226-.259.283v.114c-.369.34-.568.89-1.008,1.127-.109.237-.387.286-.495.55a2.413,2.413,0,0,0-.628.131c-.139-.066-.345-.2-.481-.066,0-.065-.071-.065-.136-.065l-.069.065c-.137-.134-.341,0-.547-.065a8.939,8.939,0,0,0-1.369-.729c-.139,0,0-.2-.139-.2a.256.256,0,0,1-.2-.065c0-.2.069-.332-.138-.464l.07-.066c0-.064-.07-.064-.136-.064-.069-.4-.275-.73-.341-1.124a1.669,1.669,0,0,1-.138-.134,1.154,1.154,0,0,0-.139-.529c-.067-.265.17-.486.037-.741a.209.209,0,0,1,.07-.184,1.72,1.72,0,0,1,.064-.821c-.064,0-.064-.06-.064-.125a1.56,1.56,0,0,0,.129-.755c.063-.188.194-.376.259-.565l-.066-.062c.131-.127.066-.316.262-.44,0-.065,0-.124-.065-.124,0-.129.13-.191.195-.256a2.591,2.591,0,0,1,.475-.714l-.05-.076a.925.925,0,0,1,.638-.25,1.529,1.529,0,0,1,.607.209c.075.151,0,.265.1.455h.1v.127c0,.063.047.063.1.063a1.129,1.129,0,0,1,.1.566c0,.061.05.061.1.061-.05.126.1.253.1.379-.1.123,0,.314-.049.5.147.312.1.691.244,1a1.571,1.571,0,0,0,.2.694" transform="translate(-1.838 -0.39)" fill="#fff"/>
      <path id="패스_21795" data-name="패스 21795" d="M35.02,19.051a1.342,1.342,0,0,1,.323.288.818.818,0,0,0,.3.313,2.555,2.555,0,0,1,.267.13l.085.176.213.2c.227.069.271-.067.442.17.076,0,.151,0,.151.065l.076-.065c.075.134.225.2.3.266a.862.862,0,0,1,.572.215c.075,0,.085.153.085.088.231.06.386.214.538.078.074,0,.149,0,.149.068l.075-.068c.151-.065.184.113.336.049.076,0,.076.064.076.133h.149c.15.135.792-.044.944.092a10.88,10.88,0,0,0,2.241-.089c.008-.13.217.01.223-.118l.071.066c.285.079.585-.248.867-.108.076-.059.076-.059.151-.12.145-.057.353.209.505.026-.006.063.068.066.139.069,0-.064,0-.064.006-.128.224-.117.5-.087.659-.263.074.006.216.018.288.029l.157-.114c.372-.089.7-.383,1.122-.479.067-.072.211-.082.27-.219.071-.009.144-.015.218-.017.064-.07.131-.143.195-.21.223.043.416-.26.628-.291-.01-.062-.02-.128.048-.138l.083.053c.134-.088.134-.088.182-.225.222.029.344-.245.465-.395.072-.008.072-.008.142-.018.059-.076.059-.076.121-.15.071-.011.071-.011.145-.024.19-.161.3-.371.573-.479-.011-.062-.022-.126.049-.14.154.042.121-.148.18-.221.062-.045.252-.179.3-.117-.01.1.186-.272.176-.17.05.064.3-.581.355-.623l-.6-1.564c-.223.312-1.007,1.338-1.429,1.434.007.329-.36.346-.611.535.015.059.032.124-.041.14-.21.047-.3.283-.442.312-.015-.061-.085-.046-.156-.029-.055.078-.195.109-.233.253-.212.046-.275.255-.4.4l-.081-.051c-.251.232-.621.209-.795.495-.408.191-.755.258-1.178.416-.071,0-.142.009-.148-.058-.061.134-.357.026-.418.159a7.441,7.441,0,0,0-1.224.08c-.011-.127-.221.015-.226-.11C42.333,19.2,41.973,19,41.61,19c-.071-.065-.215-.065-.288-.191a.838.838,0,0,1-.793-.194c-.217,0-.361-.195-.577-.258v-.127c-.071-.065-.071-.065-.145-.129,0-.192.217-.192.361-.256.144-.192.534-.147.678-.34,0-.065.195-.189.195-.254.071-.129.12-.25.194-.25.217-.128.075-.279.364-.341,0-.065.228-.222.153-.288.288-.191.282-.3.356-.686.141-.19.356-.4.356-.658.071-.062-.017-.342.129-.407.07-.446-.114-.685-.114-1.132-.075-.065-.075-.065-.145-.129,0-.195-.144-.32-.073-.512-.215-.195-.163-.254-.379-.445l-.125-.13H41.61c-.071-.13-.288-.192-.288-.322a4.779,4.779,0,0,1-.862-.385l-.075.067-.074-.067c-.072.067-.072.067-.144.131,0-.2-.216,0-.287-.131-.146,0-.29-.065-.433.067-.434-.132-.9.094-1.334-.1,0,.128-.288-.065-.288.128-.144.062-.355.058-.424.118h-.218a1.119,1.119,0,0,1-.83.418c-.144,0,0,.191-.144.191h-.144a7.2,7.2,0,0,1-1.082.962c0,.065-.146.126-.071.256,0,.066-.076.066-.146.066a.325.325,0,0,1-.143.255c0,.064,0,.128.073.128,0,.065-.111.227-.182.227-.072.255-.072.513-.289.641,0,.511-.15.759-.183,1.322a7.222,7.222,0,0,1,.076,1.016c.225.137-.056.129.094.328.075,0,.036.115.036.182.073.135.314.231.236.366,0,.067.126.126.2.126.076.134-.11.282.041.348,0,.066.24.015.164.147Zm4.7-4.172c-.145.069,0,.2-.145.271l.074.067a2.648,2.648,0,0,1-1.167,1.828c-.073,0-.146,0-.146-.067,0-.137-.148-.339-.072-.474,0-.067-.076-.067-.148-.067.148-.136-.1-.271-.021-.475-.076,0-.076-.066-.076-.135.221-.137.042-.483.261-.618l-.073-.07a2.11,2.11,0,0,1,.328-.482v-.135a2.888,2.888,0,0,1,1.04-.52c.074,0,.145,0,.145.062.219.276.073.543,0,.814" transform="translate(-1.087 -0.368)" fill="#fff"/>
      <path id="패스_21796" data-name="패스 21796" d="M52.583,14.266c.009.09.019.178.028.262.494.48.4,1.294.725,1.879-.156.2-.046.455-.113.644l.194.153c-.131.465.182.872.138,1.326-.081.1-.081.1-.16.2.009.087.019.177.106.167l-.078.1.1.078-.079.1c.087-.014.1.075.106.167-.157.195.132.43-.112.636a.322.322,0,0,1,.113.257c-.246.209-.095.59-.266.865l.089.084-.085.095-.092-.086c-.088,0-.085.095-.082.182.09.172.272.34.1.53l.09.081a1.132,1.132,0,0,0-.416.678l-.161.178a.3.3,0,0,1,.089.251c-.161.179-.241.353-.4.532,0,.084.09.251-.075.343l.086.083c-.082.174-.157.432-.234.609.083-.006.083.079.083.163-.243.184-.523.379-.434.715-.158.262-.363.351-.524.616.088.163-.288.242-.285.411s-.244.1-.158.264l.083.082c-.081.006-.081.006-.162.009a.408.408,0,0,1-.242.267c0,.085,0,.172-.08.174a2.987,2.987,0,0,0-.377.423c.084.081-.264.258-.185.261a.475.475,0,0,0-.2.329c-.08,0-.165-.006-.173.076l.006.111c-.057.059-.074.058-.194.085-.643.735-1.583,1.023-2.229,1.752-.171.081-.343.156-.515.232s-.116.332-.268.238c.007-.083-.222.075-.3.072-.181.162-.45.043-.616.032.006-.082-.091-.065-.167-.151l-.091.079a.869.869,0,0,0-.343-.269c-.074-.085.089-.175.006-.179l.094-.081c.008-.082-.131-.1-.213-.108-.147-.178.168-.044.1-.221l-.323-.025c-.076-.167-.233-.171-.3-.347.015-.166.377-.162.392-.335.164.012.116-.015.29-.094l-.061-.119c.175-.081.148-.225.228-.223,0,.086.064-.012.145-.008s.164.008.173-.076a.33.33,0,0,1,.106-.252c.082.008.082.008.164.012a3.331,3.331,0,0,0,.5-.517c.007-.084.007-.084.015-.168.089-.079.1-.249.279-.326-.008.086-.021.169.067.174.26-.158.1-.251.037-.422.091-.083.091-.083.182-.161-.009.085.137.019.056.015-.008.085.086-.2.168-.193.2-.314.054.057.357-.524.064-.064.219-.123.232-.166-.017-.008.194-.082.119-.17-.012-.068.02-.1-.153-.016.1-.166.387-.415.4-.587.241.1.049-.284.213-.276-.088.078-.171-.083-.169,0l.274-.008c.183-.161-.254-.153-.09-.336,0-.081-.027-.131-.107-.125-.006-.085-.024-.157.058-.159l.084.079c.079-.088-.077-.375.085-.469,0-.085,0-.171-.006-.258.245-.18.135-.151.21-.41l-.083-.079c0,.084.176-.078.095-.075,0-.089,0-.089,0-.174.163-.093.276-.657.271-.829,0,.171-.192-.388-.025-.312.238-.355.076-.827.113-1.26-.173-.062.133-.188.038-.344-.081.008-.163.018-.173-.066.074-.095.074-.095.144-.194-.007-.081-.015-.167-.1-.155-.009-.085-.015-.172.066-.18-.012-.085-.017-.168-.1-.159l.146-.192c-.009-.083-.089-.075-.171-.062.049-.351-.3-.6-.175-.961-.079.008-.089-.075-.1-.162.221-.285-.079-.626.058-.9-.171-.064-.106-.245-.125-.416.074-.092-.137-.177-.146-.26a6.007,6.007,0,0,1-.282-1.155c-.163.147-.281-1.184-.422-1.7-.213-.332-.07-.708-.2-1.05.088-.011.176-.022.169-.11-.117-.254.139-.376.2-.652.176-.021.341-.133.536.022.167-.108.064-.274.053-.363.35-.042.617-.078.97-.122.009.089.015.178.1.167.263-.033.372.13.634.1.01.092.016.179.106.169a.438.438,0,0,1,.371.134c.088-.013.176-.024.167-.109l.1.073.08-.1a.3.3,0,0,0,.271.053c.1.08.123.343.291.236a21.182,21.182,0,0,1,1.263,1.9" transform="translate(-1.41 -0.371)" fill="#fff"/>
      <path id="패스_21797" data-name="패스 21797" d="M12.666,15.677c-.028-.142-.233-.184-.317-.186s-.246.176-.328.036a1.389,1.389,0,0,1-.31.349.5.5,0,0,1-.289.069c-.042.218-.066.241.124.748.087.016.176.5.27.524-.04-.186.251.4.345.484l.12.03c.059.016.03.071,0,.122l.263.188c.027.071.084.091.021.193a1.432,1.432,0,0,1,.5.21c.059.024.022.072-.012.122.056.024.111.049.148,0,.145,0,.041.149.063.22l.09-.023c.021.074.134.123.134.123.176.266,1.036.593,1.25.836l.084-.042c.067.139.443.166.443.348l.08-.049c.04.067.607.174.765.259.079-.049-.035-.134.052-.175.094.078.29.259.38.343a3.272,3.272,0,0,1,.42.058c.221.234.674.089.943.21a.19.19,0,0,0,.15.1l.085-.043.034.067c.168-.086.259,0,.371-.1l.034.069.083-.045.066.141c.235.05.447.16.7.032a.183.183,0,0,0,.15.094c.083-.043.083-.043.17-.082.175.038.206.107.411.091l.031.07a.859.859,0,0,1,.664-.038c.051-.109.177.042.227-.072l.033.071c.2-.142.5-.069.7-.076l.03.071c.087-.04.052.006.052.006.17-.08.585-.085.7-.178a.912.912,0,0,0,.545.062c.067.015.2.045.258.064a.62.62,0,0,1,.711-.038A4.121,4.121,0,0,0,25,20.565c.065.017.132.037.195.057.1-.037.162-.015.228-.122a3.041,3.041,0,0,0,.758-.376c.029.073.193-.064.224,0,.034-.051.034-.051.067-.1.128.039.223-.122.353-.083.034-.05.034-.05.065-.1.2-.066.118-.117.313-.183.166-.113.4-.5.778-.668-.01-.126.241-.194.3-.3.029-.055.095-.042.159-.028l-.037-.069c.092-.042.065-.224.153-.143.024-.056.136-.2.08-.211.186-.145.183-.619.455-.677l.047-.112c.109-.144.067-.413.128-.451.022-.053-.008-.093.049-.079.07-.217.12-.547.186-.841-.056-.01-.031-.066-.006-.123.053.013.076-.044.1-.1-.054-.013-.031-.07-.008-.125l.078-.043c-.11-.025.015-.177-.1-.2l.077-.045c-.095-.267.043-.537-.051-.8l.073-.044a.351.351,0,0,1,0-.468.209.209,0,0,1,0-.183c-.149-.094.035-.195-.059-.278.053-.167-.134-.333-.021-.491-.073-.138-.087-.2-.167-.331.015-.059.032-.117.047-.174-.054-.012-.113-.024-.1-.081.089-.106-.01-.183.024-.3-.113-.02-.053-.119-.092-.185a1.637,1.637,0,0,0-.3-.81c.077-.113-.08-.564-.072-.708l-.111-.057a.488.488,0,0,0-.208-.3c.006-.072.006-.072.009-.141-.056,0-.114-.006-.106-.077l.006-.142-.063.067a.413.413,0,0,1-.143-.362c-.208-.293-.288-.5-.584-.932-.117.073-.006-.22-.146-.154a1.614,1.614,0,0,0-.5-.673c.008-.07.008-.07.013-.143-.064,0-.064,0-.13,0s-.057-.073-.049-.142c-.372-.227-1.691-.412-1.893-.776-.117,0-.228-.08-.3.063-.052-.076-.052-.076-.1-.147-.31.2-.568-.162-.853-.242l-.063.067c-.1-.215-.291-.008-.408-.009a.172.172,0,0,0-.166-.079c-.3.134-.58-.017-.841.334l-.051-.076L22.9,7.886A5.3,5.3,0,0,0,23.246,9.1c.059.011.135.149.176.228-.015.066-.015.066-.029.135.087.159.175.318.262.479-.059-.014-.075.051-.09.121.071.226.069.47.136.689.093.081-.015.131.086.234.012.01-.061.142-.046.15a.354.354,0,0,0,.029.245c.034.245.021.049.192.225-.158.187.106.5-.049.681.083.088.086-.036.113.033-.028.049-.028.049-.054.1s.025.071.081.094c.054.136-.045.217.028.35.055.013,0,.183.06.195.016.125.172.163.023.249-.055-.015-.023.235-.08.4a1.069,1.069,0,0,1-.018.409c.057.013.095-.055.075,0s-.019.055-.038.11c.055.012.049.114.028.167,0,.177-.114.268-.173.432-.064.356.121.648-.12.775.086.078-.021.173-.045.23-.08.038-.058.212-.133.255-.09.219-.135.207-.224.425-.148.085-.172.18-.318.266-.024.052-.024.052-.046.107s-.074.042-.123.031c-.1.1-.43.253-.477.357l.03.069a2.33,2.33,0,0,0-.479.225c-.219.131-.38.133-.609.249-.2-.057-.368.091-.568.034-.076.042-.152.083-.228.117-.1-.026-.251.051-.325-.029-.1-.024-.078.158-.177.134l-.1-.029-.025-.067c-.153.08-.274-.016-.427.062l-.023-.064c-.153.076-.279-.01-.375.088a1.2,1.2,0,0,0-.63-.072c.021-.057-.027-.066-.08-.074l-.073.045c.023-.055-.428-.024-.478-.029l-.1-.019-.032-.066-.072.045c-.081-.072-.62-.127-.748-.266-.1.1-.2.053-.318.03A5.349,5.349,0,0,1,15.5,17.4l-.036-.071a.449.449,0,0,1-.518-.139c-.059-.014-.14-.02-.2-.038-.062-.143-.442-.116-.491-.258a1.86,1.86,0,0,1-.27-.229c-.125.076-.438-.3-.5-.322l-.208-.008-.076-.226-.28-.21c-.113-.21-.227-.044-.265-.223" transform="translate(-0.364 -0.204)" fill="#fff"/>
      <path id="패스_21798" data-name="패스 21798" d="M17.21,7.413c.078,0,.157.007.23.011.374.381,1.108.27,1.6.516.194-.141.406-.058.582-.122.059.076.059.076.116.154.428-.128.657.086,1.064.057.1-.063.1-.063.2-.129.076.009.151.021.129.091l.1-.065.053.08.1-.061c-.025.072.051.081.129.086.2-.123.319.045.544-.144a.246.246,0,0,0,.2.107c.227-.19.306.009.584-.08L22.89,8l.1-.054-.044-.086c.025-.07.1-.052.175-.036.122.1.206.258.416.162l.042.085c.132-.092-.879-.137.7-.188l.2-.09a.241.241,0,0,0,.18.124c.2-.092.372-.119.572-.207.071.017.181.121.312.012l.04.081c.172-.022.411-.032.581-.055-.026.064-.113-.089-.046-.059.242-.123.505-.266.731-.086.27-.03.387-.166.659-.185.087.127.306-.123.435-.053s.131-.115.216.015l.022.092c.041-.054.041-.054.08-.114a.364.364,0,0,0,.308-.065c.062.036.124.075.165.017a2.9,2.9,0,0,1,.482-.1c.024.1.17-.046.132.015a.4.4,0,0,1,.329.027c.038-.056.079-.113.142-.078l.073.056c.073-.011.078-.022.162-.088.841-.075,1.31-.486,2.146-.486.146-.067.293-.132.44-.2s.278.111.3-.039c-.058-.041.172-.1.217-.153.205-.021.331-.378.414-.492-.06-.041,0-.092-.014-.192l.1-.016a1.73,1.73,0,0,1,0-.558c-.018-.095-.165-.034-.125-.092L33.5,4.842c-.059-.041.017-.144.06-.2-.04-.2-.217.025-.3-.114l.153-.226c-.07-.138-.379-.219-.5-.3-.083.117-.076.071-.22.142l-.049-.106c-.144.077-.229-.015-.27.039.061.039-.041.034-.078.088s-.084.116-.145.074a.3.3,0,0,0-.224-.061c-.042.06-.042.06-.081.111a3.239,3.239,0,0,1-1.417-.033l-.2.05c.066.034-.052.108-.014.048.063.035-.185-.033-.223.028-.325,0-1.039.069-.9-.014-.165-.007-.486.078-.613.013-.048.21-.277-.119-.348,0,.1-.027-.127-.042-.061-.012l.008.084c-.2.062-.215-.128-.417-.054-.068-.03-.1-.063-.065-.122-.069-.026-.116-.066-.148,0l.032.087c-.1.037-.27-.168-.406-.075l-.2-.081a1.644,1.644,0,0,1-.724.145l-.046-.08c.07.015-.117.128-.092.06-.07-.015-.07-.015-.142-.029a1.379,1.379,0,0,1-.776.079c.142.033-.288-.247-.263-.1-.36.139-.774-.071-1.158-.075-.024-.147-.185.1-.306.006.024-.068.046-.135-.024-.147-.1.054-.166.03-.261.088-.073-.009-.147-.017-.123-.085-.075-.009-.149-.017-.169.047-.073-.01-.146-.02-.125-.084-.094.053-.19.128-.282.188-.072-.007-.054-.075-.037-.141-.315.045-.494-.239-.826-.132.017-.064-.052-.07-.131-.077-.277.183-.668-.016-.925.114-.044-.136-.209-.07-.357-.072-.089.064-.148-.1-.221-.1a5.505,5.505,0,0,0-1-.152c.141-.141-1.029-.147-1.476-.227-.28-.153-.624-.011-.918-.09-.017.073-.033.145-.11.144-.217-.076-.347.141-.6.211-.032.145-.192.215-.148.341-.108.143-.124.168-.2.167-.065.291-.116.261-.191.549.077.008.156.01.136.082-.057.215.078.3.02.514.076.006.156.008.136.081a.306.306,0,0,0,.079.3c-.019.072-.038.144-.115.14l.056.076-.1.069a.218.218,0,0,1,.02.22c.059.076.29.089.177.23a15.386,15.386,0,0,0,1.554.953" transform="translate(-0.487 -0.106)" fill="#fff"/>
      <path id="패스_21799" data-name="패스 21799" d="M103.8,21.006a.213.213,0,0,1-.073.146.236.236,0,0,1-.171.073h-1.708v2.831c0,.147-.081.22-.244.22H98.8a.194.194,0,0,1-.22-.22V21.224H91.359a.236.236,0,0,1-.171-.073.213.213,0,0,1-.073-.146V18.711a.853.853,0,0,1,.036-.207.72.72,0,0,1,.086-.207L98.411,6.168a.729.729,0,0,1,.134-.146.256.256,0,0,1,.159-.073h2.9a.218.218,0,0,1,.17.085.25.25,0,0,1,.074.159v12.2h1.708c.163,0,.244.09.244.269Zm-5.222-9.127L94.7,18.394h3.88Z" transform="translate(-2.908 -0.19)" fill="#fff"/>
      <path id="패스_21800" data-name="패스 21800" d="M108.919,13.284a2.084,2.084,0,0,1,2.075,2.075,1.952,1.952,0,0,1-.611,1.451,2.09,2.09,0,0,1-2.927,0,1.952,1.952,0,0,1-.611-1.451,2.084,2.084,0,0,1,2.075-2.075" transform="translate(-3.41 -0.424)" fill="#fff"/>
      <path id="패스_21801" data-name="패스 21801" d="M117.87,10.208a.222.222,0,0,1-.123.146.269.269,0,0,1-.195.024l-2.587-.83a.22.22,0,0,1-.17-.122.155.155,0,0,1,0-.17,5.25,5.25,0,0,1,.718-1.428A5.1,5.1,0,0,1,116.65,6.67a5.488,5.488,0,0,1,1.524-.781,5.979,5.979,0,0,1,1.917-.292,7.33,7.33,0,0,1,2.1.3,5.527,5.527,0,0,1,1.817.915,4.636,4.636,0,0,1,1.281,1.537,4.546,4.546,0,0,1,.489,2.147,5.175,5.175,0,0,1-.733,2.819,4.417,4.417,0,0,1-1.879,1.7,3.984,3.984,0,0,1,2.1,1.647A5.717,5.717,0,0,1,126,19.749a4.372,4.372,0,0,1-1.782,3.649,5.793,5.793,0,0,1-1.865.9,7.879,7.879,0,0,1-2.186.3,6.732,6.732,0,0,1-2.195-.342,6.4,6.4,0,0,1-1.758-.9,5.127,5.127,0,0,1-1.244-1.306,4.5,4.5,0,0,1-.658-1.525c-.034-.163.016-.26.145-.293l2.612-.732c.113-.016.2.057.268.22A2.537,2.537,0,0,0,118,20.9a3.175,3.175,0,0,0,1.06.7,2.965,2.965,0,0,0,1.221.207,2.418,2.418,0,0,0,2.026-1.2,2.684,2.684,0,0,0,.341-1.415,2.559,2.559,0,0,0-.281-1.244,2.3,2.3,0,0,0-.793-.842,3.758,3.758,0,0,0-1.231-.488,7.348,7.348,0,0,0-1.574-.159.223.223,0,0,1-.172-.085.254.254,0,0,1-.072-.159V13.82a.216.216,0,0,1,.244-.244,4.5,4.5,0,0,0,2.683-.72,2.485,2.485,0,0,0,1-2.16,2.132,2.132,0,0,0-.634-1.683,2.28,2.28,0,0,0-1.441-.6,2.7,2.7,0,0,0-1.549.415,2.093,2.093,0,0,0-.963,1.379" transform="translate(-3.648 -0.178)" fill="#fff"/>
      <path id="패스_21805" data-name="패스 21805" d="M221.748,17.543c0,.163-.074.244-.22.244H207.448q-.195,0-.195-.244V15.176a.229.229,0,0,1,.061-.146.173.173,0,0,1,.134-.074h4.466V10.613a.189.189,0,0,1,.085-.159.281.281,0,0,1,.159-.061h2.66a.194.194,0,0,1,.22.22v4.344h6.491a.2.2,0,0,1,.159.074.229.229,0,0,1,.061.146Zm-1.123-3.88c0,.163-.073.244-.22.244h-2.684a.213.213,0,0,1-.147-.073.238.238,0,0,1-.073-.171v-6.1h-8.932a.209.209,0,0,1-.146-.073.235.235,0,0,1-.074-.171V4.976a.231.231,0,0,1,.074-.17.207.207,0,0,1,.146-.074h11.835c.147,0,.22.081.22.244Zm5.589,12.226a.2.2,0,0,1-.074.159.229.229,0,0,1-.146.061h-14.3a1.232,1.232,0,0,1-.927-.415,1.409,1.409,0,0,1-.39-1V19.544c0-.163.065-.244.2-.244h2.709a.229.229,0,0,1,.146.061.226.226,0,0,1,.074.183V23.3h12.494a.229.229,0,0,1,.146.061.2.2,0,0,1,.074.159Zm-.44-5.173a.231.231,0,0,1-.074.17.207.207,0,0,1-.146.074H222.87c-.146,0-.22-.081-.22-.244V4.732a.194.194,0,0,1,.22-.22h2.685a.227.227,0,0,1,.146.061.2.2,0,0,1,.074.159v6.345h2.441a.229.229,0,0,1,.146.061.226.226,0,0,1,.074.183v2.343a.239.239,0,0,1-.074.171.211.211,0,0,1-.146.073h-2.441Z" transform="translate(-77.391 -0.144)" fill="#fff"/>
      <path id="패스_21806" data-name="패스 21806" d="M242.981,24.474a.261.261,0,0,1-.22.22H231.609a1.277,1.277,0,0,1-.952-.4,1.365,1.365,0,0,1-.39-.988V13.371c0-.163.074-.244.22-.244h7.931V7.562h-7.931c-.146,0-.22-.081-.22-.244V4.976c0-.163.074-.244.22-.244h10.933c.146,0,.22.081.22.244V15.664a.194.194,0,0,1-.22.22h-7.932v6h9.273a.207.207,0,0,1,.146.074.231.231,0,0,1,.074.17Zm4.466,1.415a.194.194,0,0,1-.22.22h-2.684a.229.229,0,0,1-.146-.061.2.2,0,0,1-.074-.159V4.732a.2.2,0,0,1,.074-.159.229.229,0,0,1,.146-.061h2.684a.194.194,0,0,1,.22.22Z" transform="translate(-78.126 -0.144)" fill="#fff"/>
      <path id="패스_21807" data-name="패스 21807" d="M263.791,23.122a.341.341,0,0,1,.013.17c-.009.081-.037.13-.085.146l-2.368.732a.211.211,0,0,1-.317-.122l-3.807-13.958L253.42,24.049c-.048.131-.155.171-.318.122l-2.343-.732a.147.147,0,0,1-.109-.146.341.341,0,0,1,.013-.17l4.954-17.937a1.1,1.1,0,0,1,.6-.732,2.276,2.276,0,0,1,2.05,0,1.1,1.1,0,0,1,.6.732Zm5.271,2.757a.194.194,0,0,1-.22.22h-2.684a.2.2,0,0,1-.22-.22V4.722a.2.2,0,0,1,.22-.22h2.684a.194.194,0,0,1,.22.22Z" transform="translate(-78.776 -0.134)" fill="#fff"/>
      <path id="패스_21808" data-name="패스 21808" d="M292.378,24.68c0,.163-.073.244-.219.244H273.417c-.146,0-.219-.081-.219-.244V22.337a.194.194,0,0,1,.219-.22h18.742a.194.194,0,0,1,.219.22Zm-2.952-6.833a.223.223,0,0,1-.159.037.183.183,0,0,1-.134-.085L282.788,7.94,276.444,17.8a.192.192,0,0,1-.136.085.223.223,0,0,1-.159-.037l-2.1-1.44a.155.155,0,0,1-.06-.159.417.417,0,0,1,.06-.183L281.3,4.84a1.472,1.472,0,0,1,.647-.573,2.015,2.015,0,0,1,.842-.183,2.094,2.094,0,0,1,.854.183,1.457,1.457,0,0,1,.659.573l7.224,11.226a.3.3,0,0,1,.084.183.146.146,0,0,1-.084.159Z" transform="translate(-79.496 -0.13)" fill="#fff"/>
      <path id="패스_21809" data-name="패스 21809" d="M304.882,15.542a.231.231,0,0,1-.074.17.209.209,0,0,1-.146.074h-8.492a1.206,1.206,0,0,1-.94-.427,1.446,1.446,0,0,1-.378-.988v-9.4c0-.163.073-.244.219-.244H304a.211.211,0,0,1,.147.074.234.234,0,0,1,.073.17V7.1a.2.2,0,0,1-.073.159.231.231,0,0,1-.147.061h-6.027V8.929h4.905c.146,0,.22.089.22.268v1.977c0,.179-.074.268-.22.268h-4.905v1.733h6.687a.2.2,0,0,1,.146.085.275.275,0,0,1,.074.183Zm8.028,9.151a1.429,1.429,0,0,1-.379,1,1.218,1.218,0,0,1-.939.415h-12.3a1.218,1.218,0,0,1-.939-.415,1.429,1.429,0,0,1-.379-1V17.665c0-.163.074-.244.22-.244h14.5c.146,0,.22.081.22.244Zm-3.124-4.466H301.1V23.3h8.688ZM304,11.443a.256.256,0,0,1-.159-.073.248.248,0,0,1-.085-.2V8.832a.2.2,0,0,1,.085-.146A.252.252,0,0,1,304,8.612h2V4.732a.2.2,0,0,1,.074-.159.229.229,0,0,1,.146-.061h2.343a.227.227,0,0,1,.146.061.2.2,0,0,1,.074.159V16.25a.252.252,0,0,1-.074.159.2.2,0,0,1-.146.085h-2.343a.2.2,0,0,1-.146-.085A.258.258,0,0,1,306,16.25V11.443Zm8.907,4.808a.281.281,0,0,1-.061.159.187.187,0,0,1-.159.085h-2.343a.168.168,0,0,1-.134-.085.281.281,0,0,1-.061-.159V4.732c0-.146.065-.22.195-.22h2.343a.2.2,0,0,1,.22.22Z" transform="translate(-80.187 -0.144)" fill="#fff"/>
    </g>
  </g>
</svg>
