<svg xmlns="http://www.w3.org/2000/svg" xmlns:xlink="http://www.w3.org/1999/xlink" width="274.179" height="30.65" viewBox="0 0 274.179 30.65">
  <defs>
    <clipPath id="clip-path">
      <rect id="사각형_502" data-name="사각형 502" width="274.179" height="30.65" fill="#fff"/>
    </clipPath>
  </defs>
  <g id="그룹_1405" data-name="그룹 1405" transform="translate(0 0)">
    <g id="그룹_1403" data-name="그룹 1403" transform="translate(0 0)" clip-path="url(#clip-path)">
      <path id="패스_22287" data-name="패스 22287" d="M173.661,25.92a.215.215,0,0,1-.074.149.24.24,0,0,1-.174.075h-1.739v2.883c0,.149-.084.224-.249.224h-2.858a.2.2,0,0,1-.224-.224V26.143h-7.356a.238.238,0,0,1-.174-.075.214.214,0,0,1-.075-.149V23.584a.865.865,0,0,1,.037-.211.727.727,0,0,1,.087-.211l7.307-12.351a.711.711,0,0,1,.137-.149.256.256,0,0,1,.162-.075h2.957a.226.226,0,0,1,.174.087.259.259,0,0,1,.075.162V23.26h1.739q.248,0,.248.273Zm-5.318-9.295-3.952,6.635h3.952Z" transform="translate(-71.813 -4.729)" fill="#fff"/>
      <path id="패스_22288" data-name="패스 22288" d="M190.883,23.658A2.121,2.121,0,0,1,193,25.77a1.993,1.993,0,0,1-.621,1.479,2.129,2.129,0,0,1-2.982,0,1.991,1.991,0,0,1-.621-1.479,2.121,2.121,0,0,1,2.112-2.112" transform="translate(-84.337 -10.569)" fill="#fff"/>
      <path id="패스_22289" data-name="패스 22289" d="M205.69,14.654a.223.223,0,0,1-.124.149.277.277,0,0,1-.2.024l-2.634-.845a.229.229,0,0,1-.174-.124.162.162,0,0,1,0-.174,5.333,5.333,0,0,1,.733-1.454,5.225,5.225,0,0,1,1.156-1.181A5.608,5.608,0,0,1,206,10.255a6.049,6.049,0,0,1,1.951-.3,7.461,7.461,0,0,1,2.137.31,5.665,5.665,0,0,1,1.852.932,4.72,4.72,0,0,1,1.3,1.566,4.63,4.63,0,0,1,.5,2.187A5.27,5.27,0,0,1,213,17.823a4.5,4.5,0,0,1-1.914,1.727,4.057,4.057,0,0,1,2.137,1.677,5.825,5.825,0,0,1,.746,3.143,4.453,4.453,0,0,1-1.814,3.715,5.866,5.866,0,0,1-1.9.919,8.022,8.022,0,0,1-2.224.311,6.884,6.884,0,0,1-2.237-.348,6.492,6.492,0,0,1-1.79-.919,5.207,5.207,0,0,1-1.267-1.329,4.626,4.626,0,0,1-.671-1.553q-.05-.248.149-.3l2.659-.746q.173-.024.273.224a2.583,2.583,0,0,0,.683,1.193,3.253,3.253,0,0,0,1.081.708,3.019,3.019,0,0,0,1.243.211,2.463,2.463,0,0,0,2.063-1.218,2.733,2.733,0,0,0,.348-1.442,2.609,2.609,0,0,0-.286-1.267,2.358,2.358,0,0,0-.808-.858,3.838,3.838,0,0,0-1.255-.5,7.481,7.481,0,0,0-1.6-.162.222.222,0,0,1-.174-.087.258.258,0,0,1-.075-.162V18.332a.22.22,0,0,1,.248-.248,4.588,4.588,0,0,0,2.734-.733,2.533,2.533,0,0,0,1.018-2.2,2.169,2.169,0,0,0-.646-1.714,2.32,2.32,0,0,0-1.466-.609,2.752,2.752,0,0,0-1.578.423,2.14,2.14,0,0,0-.981,1.4" transform="translate(-90.271 -4.448)" fill="#fff"/>
      <path id="패스_22290" data-name="패스 22290" d="M250.127,20.532a.237.237,0,0,1-.062.149.2.2,0,0,1-.162.075H230.818a.2.2,0,0,1-.162-.075.233.233,0,0,1-.062-.149V18.37c0-.165.074-.248.224-.248h7.953v-2.51a.2.2,0,0,1,.075-.162.235.235,0,0,1,.149-.062h2.734a.29.29,0,0,1,.162.062.192.192,0,0,1,.087.162v2.51H249.9q.223,0,.224.248Zm-2.634-3.8a.229.229,0,0,1-.347.075l-6.785-4.175L233.576,16.8a.229.229,0,0,1-.348-.075l-1.317-2.038c-.1-.133-.083-.24.05-.323l5.095-3.057h-4.2a.217.217,0,0,1-.149-.074.239.239,0,0,1-.075-.174V8.678a.239.239,0,0,1,.075-.174.215.215,0,0,1,.149-.075h15.01a.215.215,0,0,1,.149.075.239.239,0,0,1,.075.174v2.386a.239.239,0,0,1-.075.174.217.217,0,0,1-.149.074h-4.2l5.095,3.057q.2.124.049.323Zm.845,9.643a3.381,3.381,0,0,1-.571,1.939,4.618,4.618,0,0,1-1.628,1.429,9.127,9.127,0,0,1-2.522.895,17.2,17.2,0,0,1-6.512,0,8.936,8.936,0,0,1-2.51-.895,4.639,4.639,0,0,1-1.615-1.429,3.376,3.376,0,0,1-.572-1.939,3.337,3.337,0,0,1,.572-1.914,4.634,4.634,0,0,1,1.615-1.429,8.936,8.936,0,0,1,2.51-.895,17.2,17.2,0,0,1,6.512,0,9.127,9.127,0,0,1,2.522.895,4.612,4.612,0,0,1,1.628,1.429,3.341,3.341,0,0,1,.571,1.914m-3.231,0q0-.795-1.28-1.23a11.14,11.14,0,0,0-3.467-.435,11.011,11.011,0,0,0-3.454.435q-1.268.436-1.267,1.23t1.267,1.243a10.707,10.707,0,0,0,3.454.448,10.833,10.833,0,0,0,3.467-.448q1.28-.447,1.28-1.243" transform="translate(-103.023 -3.766)" fill="#fff"/>
      <path id="패스_22291" data-name="패스 22291" d="M281.816,14.176a4.562,4.562,0,0,1-1.677,3.6,5.932,5.932,0,0,1-1.914,1.043,7.614,7.614,0,0,1-2.447.373,7.529,7.529,0,0,1-2.423-.373,5.779,5.779,0,0,1-1.9-1.043,4.6,4.6,0,0,1-1.665-3.6,4.006,4.006,0,0,1,.324-1.677,3.159,3.159,0,0,1,.969-1.205h-1.988a.2.2,0,0,1-.223-.224V8.907a.283.283,0,0,1,.062-.162.191.191,0,0,1,.162-.087h5V6.5a.263.263,0,0,1,.224-.224h2.957a.2.2,0,0,1,.162.075.237.237,0,0,1,.062.149V8.659h5.019a.207.207,0,0,1,.15.087.256.256,0,0,1,.074.162v2.162a.2.2,0,0,1-.074.162.235.235,0,0,1-.15.062h-1.988a3.38,3.38,0,0,1,.958,1.205,3.9,3.9,0,0,1,.335,1.677m5.22,13.619a1.435,1.435,0,0,1-.4,1.019,1.254,1.254,0,0,1-.944.423h-12.5a1.321,1.321,0,0,1-.982-.423,1.413,1.413,0,0,1-.41-1.019V19.917a.223.223,0,0,1,.087-.174.258.258,0,0,1,.161-.074h2.71c.148,0,.223.083.223.248v1.69h8.873v-1.69a.239.239,0,0,1,.074-.174.217.217,0,0,1,.149-.074h2.734q.224,0,.224.248ZM278.66,14.176a2.073,2.073,0,0,0-.77-1.615,3.072,3.072,0,0,0-2.088-.671,2.989,2.989,0,0,0-2.037.671,2.068,2.068,0,0,0-.771,1.615,2.03,2.03,0,0,0,.771,1.6,3.025,3.025,0,0,0,2.037.659,3.11,3.11,0,0,0,2.088-.659,2.035,2.035,0,0,0,.77-1.6m5.194,10.164h-8.873v2.137h8.873Zm3.181-5.393c0,.166-.075.248-.224.248h-2.734a.215.215,0,0,1-.149-.075.236.236,0,0,1-.074-.174V7.466a.2.2,0,0,1,.074-.162.236.236,0,0,1,.149-.062h2.734a.2.2,0,0,1,.224.224v4.076h2.509a.234.234,0,0,1,.149.063.2.2,0,0,1,.074.162v2.41a.236.236,0,0,1-.074.174.215.215,0,0,1-.149.075h-2.509Z" transform="translate(-120.122 -2.802)" fill="#fff"/>
      <path id="패스_22292" data-name="패스 22292" d="M320.872,17.518a.169.169,0,0,1,.024.162.247.247,0,0,1-.1.162l-2.113,1.392a.231.231,0,0,1-.186.025.247.247,0,0,1-.162-.1l-3.579-5.766-3.579,5.766a.25.25,0,0,1-.162.1.233.233,0,0,1-.186-.025l-2.112-1.392a.246.246,0,0,1-.1-.162.166.166,0,0,1,.025-.162l3.927-6.164h-3.256a.2.2,0,0,1-.162-.074.233.233,0,0,1-.062-.149V8.746c0-.165.074-.249.223-.249H320.2c.149,0,.224.084.224.249v2.386a.237.237,0,0,1-.062.149.2.2,0,0,1-.162.074h-3.256Zm5.467,8.2a4,4,0,0,1-.571,2.113,4.772,4.772,0,0,1-1.628,1.591,8.619,8.619,0,0,1-2.548.994,14.69,14.69,0,0,1-3.33.348,14.521,14.521,0,0,1-3.318-.348,8.608,8.608,0,0,1-2.535-.994,4.765,4.765,0,0,1-1.628-1.591,4,4,0,0,1-.571-2.113,3.936,3.936,0,0,1,.571-2.1,4.8,4.8,0,0,1,1.628-1.578,8.623,8.623,0,0,1,2.535-.994,14.521,14.521,0,0,1,3.318-.348,14.69,14.69,0,0,1,3.33.348,8.634,8.634,0,0,1,2.548.994,4.805,4.805,0,0,1,1.628,1.578,3.936,3.936,0,0,1,.571,2.1m-3.206,0q0-1.044-1.3-1.591a9.459,9.459,0,0,0-3.566-.547,9.275,9.275,0,0,0-3.529.547q-1.293.547-1.292,1.591t1.292,1.6a9.078,9.078,0,0,0,3.529.559,9.258,9.258,0,0,0,3.566-.559q1.3-.559,1.3-1.6m-3.355-10.413a.2.2,0,0,1-.224-.224V12.672c0-.165.074-.248.224-.248h3.181V8.249c0-.149.066-.224.2-.224h2.759a.235.235,0,0,1,.149.062.2.2,0,0,1,.075.162v12.2a.238.238,0,0,1-.075.174.214.214,0,0,1-.149.075h-2.759c-.133,0-.2-.082-.2-.248V15.307Z" transform="translate(-137.878 -3.585)" fill="#fff"/>
      <path id="패스_22293" data-name="패스 22293" d="M366.03,28.759q0,.248-.223.248H346.721c-.149,0-.224-.083-.224-.248V26.373a.2.2,0,0,1,.224-.224h7.953V22.571H349.9a1.26,1.26,0,0,1-.969-.435,1.474,1.474,0,0,1-.4-1.031V8.678a.238.238,0,0,1,.075-.174.215.215,0,0,1,.149-.075h2.734q.223,0,.223.248v3.927h9.1V8.678a.219.219,0,0,1,.248-.248h2.709a.215.215,0,0,1,.149.075.238.238,0,0,1,.075.174V21.055a1.569,1.569,0,0,1-.4,1.056,1.235,1.235,0,0,1-.969.46h-4.747v3.579h7.928a.2.2,0,0,1,.223.224Zm-5.219-13.271h-9.1v4.2h9.1Z" transform="translate(-154.805 -3.766)" fill="#fff"/>
      <path id="패스_22294" data-name="패스 22294" d="M396.961,26.747a.355.355,0,0,1,.012.174c-.008.084-.037.133-.087.149l-2.41.745a.216.216,0,0,1-.323-.124l-3.877-14.215L386.4,27.691c-.05.133-.158.174-.323.124l-2.386-.745a.149.149,0,0,1-.112-.149.347.347,0,0,1,.013-.174L388.635,8.48a1.115,1.115,0,0,1,.609-.745,2.312,2.312,0,0,1,2.087,0,1.118,1.118,0,0,1,.609.745Zm5.368,2.808a.2.2,0,0,1-.224.224h-2.734a.2.2,0,0,1-.223-.224V8.008a.2.2,0,0,1,.223-.224h2.734a.2.2,0,0,1,.224.224Z" transform="translate(-171.37 -3.344)" fill="#fff"/>
      <path id="패스_22295" data-name="패스 22295" d="M443.3,28.236q0,.248-.224.248H423.99q-.223,0-.224-.248V25.851a.2.2,0,0,1,.224-.224h19.086a.2.2,0,0,1,.224.224Zm-3.007-6.959a.219.219,0,0,1-.162.037.188.188,0,0,1-.137-.087l-6.462-10.04-6.461,10.04a.19.19,0,0,1-.137.087.217.217,0,0,1-.161-.037l-2.138-1.466a.156.156,0,0,1-.062-.162.413.413,0,0,1,.062-.186l7.381-11.432a1.494,1.494,0,0,1,.658-.584,2.048,2.048,0,0,1,.858-.186,2.134,2.134,0,0,1,.87.186,1.483,1.483,0,0,1,.67.584l7.356,11.432a.306.306,0,0,1,.087.186.149.149,0,0,1-.087.162Z" transform="translate(-189.326 -3.244)" fill="#fff"/>
      <path id="패스_22296" data-name="패스 22296" d="M472.57,19.258a.239.239,0,0,1-.075.174.214.214,0,0,1-.149.074H463.7a1.224,1.224,0,0,1-.957-.435,1.468,1.468,0,0,1-.385-1.006V8.5q0-.248.224-.248h9.1a.215.215,0,0,1,.149.075.238.238,0,0,1,.075.174v2.162a.2.2,0,0,1-.075.162.234.234,0,0,1-.149.063h-6.139v1.64h5c.149,0,.224.091.224.274v2.013c0,.183-.074.273-.224.273h-5v1.765h6.809a.207.207,0,0,1,.149.087.284.284,0,0,1,.075.186Zm8.176,9.32a1.46,1.46,0,0,1-.385,1.019,1.243,1.243,0,0,1-.957.422H466.879a1.241,1.241,0,0,1-.957-.422,1.458,1.458,0,0,1-.385-1.019V21.42c0-.165.075-.248.224-.248h14.762c.149,0,.224.084.224.248Zm-3.181-4.548h-8.847v3.131h8.847Zm-5.89-8.947a.258.258,0,0,1-.161-.074.247.247,0,0,1-.087-.2V12.424a.2.2,0,0,1,.087-.149.256.256,0,0,1,.161-.075h2.038V8.249a.2.2,0,0,1,.075-.162.236.236,0,0,1,.149-.062h2.386a.234.234,0,0,1,.149.062.2.2,0,0,1,.075.162v11.73a.257.257,0,0,1-.075.162.2.2,0,0,1-.149.087h-2.386a.2.2,0,0,1-.149-.087.257.257,0,0,1-.075-.162v-4.9Zm9.071,4.9a.287.287,0,0,1-.062.162.191.191,0,0,1-.162.087h-2.386A.171.171,0,0,1,478,20.14a.283.283,0,0,1-.062-.162V8.249c0-.149.066-.224.2-.224h2.386a.2.2,0,0,1,.224.224Z" transform="translate(-206.567 -3.585)" fill="#fff"/>
      <path id="패스_22297" data-name="패스 22297" d="M85.5.082a.3.3,0,0,0-.149-.074c-.23-.048-.454.117-.8.391l-.265.2c-.94.5-1.657,2.845-1.817,3.809-.028.013-.049.028-.1.052A4.107,4.107,0,0,0,79.637,2.4c.438,1.667,1.905,6.7,3.859,6.265.992-.221,3.063-4.4,3.084-6.7V1.883C86.565.666,86,.23,85.5.082" transform="translate(-35.579 0)" fill="#fff"/>
      <path id="패스_22298" data-name="패스 22298" d="M108.7,46.487a15.981,15.981,0,0,0-5.661.759,1.989,1.989,0,0,0-.9.631c.039.505-.264,1.3.206,1.495.024,0,.022.078.045.12.138.139.283.16.423.338.09.128.165-.014.26.039.044.046.068.126.115.135.235.109.452.067.686.181a.619.619,0,0,0,.354.094c.074-.027.165.139.19.182a2.959,2.959,0,0,0,1.307.011c1.36-.02,1.1-.154,2.462-.175,1.145-.017,2.26.158,3.4.138.621-.018,1.292,0,1.911-.043,1.095-.064,2.191.106,3.288.118.548-.013,1.184.2,1.735.241a8.632,8.632,0,0,1,1.765-.028,1.532,1.532,0,0,1,.574.077,1.592,1.592,0,0,0,.538.191,3.505,3.505,0,0,0,1.5-.352,3.359,3.359,0,0,0,.886-.318.782.782,0,0,0,.322-.509,2.05,2.05,0,0,0,.108-1.326c-.027,0-.1.033-.122-.009-.053-.078-.039-.268-.115-.275a4.278,4.278,0,0,0-.653-.159c-.29-.06-.586-.2-.875-.251a74.391,74.391,0,0,0-13.757-1.3" transform="translate(-45.605 -20.761)" fill="#fff"/>
      <path id="패스_22299" data-name="패스 22299" d="M39.384,47.306c.246.055.527.05.66.213.133.128-.132.338-.116.508,0,.4.148.769.141,1.172a.246.246,0,0,1-.1.206,1.068,1.068,0,0,1-.3.279c-.343.217-.79.134-1.186.248a8.418,8.418,0,0,1-1.577.264,20.915,20.915,0,0,1-2.823-.132,2.81,2.81,0,0,0-1.07.142,4.411,4.411,0,0,1-1.318.082c-2.294-.082-4.545-.13-6.83-.112-.4.015-.838.066-1.238.08-1.836.1-3.667.072-5.5.119-.642.016-1.281.035-1.924.017l-1.04.025c-1.358.07-2.751.134-4.114.076l-1.6.015a42.438,42.438,0,0,1-4.592.244A7.815,7.815,0,0,1,1.642,49.9,4.317,4.317,0,0,1,0,48.436a1.813,1.813,0,0,1,1.093-.581,30.3,30.3,0,0,1,3-.629c.872-.145,1.672-.219,2.508-.294a206.867,206.867,0,0,1,28.115-.294,30.546,30.546,0,0,1,4.669.664" transform="translate(0 -20.683)" fill="#fff"/>
      <path id="패스_22300" data-name="패스 22300" d="M104.226,25.9v.127c.1.249.293.314.488.5h.637c0-.126.146,0,.146-.126a.536.536,0,0,0,.469-.25h.1a.54.54,0,0,1,.473-.319q.393-.471.786-.941a.368.368,0,0,1,.155-.317,11.43,11.43,0,0,1,.526-1.761,2.6,2.6,0,0,0,.053-.627c.051,0,.1,0,.1-.061a.524.524,0,0,1,.21-.5c.106,0,.208,0,.262-.127v-.124a1.1,1.1,0,0,1,.763.437h.344c0,.13.07.13.141.194a3.657,3.657,0,0,1,1.159.06c0,.188.274.126.344.315a1.808,1.808,0,0,0,.208.567.224.224,0,0,1-.072.191c.139.185.275.5.072.687.068.252,0,.566.136.819-.136.126-.069.316-.069.44a3.55,3.55,0,0,1,.207.881c.275.314.206.693.415,1.007v.373c.136,0,0,.192.136.192a7.117,7.117,0,0,1-.136,1.2c-.071.06-.14.126-.209.188v.126c-.071,0-.137,0-.137-.065-.141.19-.345.315-.485.5-.137-.062-.206.064-.275.064-.137,0,0,.189-.137.189a.542.542,0,0,0-.348.126c-.138.062-.606-.065-.742.062l-.059-.069a.386.386,0,0,1-.278.126c0-.064,0-.126-.07-.126a.5.5,0,0,1-.552.252c-.059-.126-.035-.219-.192-.277a2.507,2.507,0,0,0-.262-1.078c.051,0,.051-.056.051-.112a1.969,1.969,0,0,1-.154-.511c-.16-.23-.212-.568-.42-.739.053-.058-.107-.114-.055-.17-.1-.111-.155-.17-.261-.284-.1,0-.1.058-.155.113-.054.283-.315.511-.368.795l-.051-.056c-.053.17-.21.283-.21.455-.1.055-.159.226-.259.283v.114c-.369.34-.568.89-1.008,1.127-.109.237-.387.286-.495.55a2.408,2.408,0,0,0-.628.131c-.139-.066-.345-.2-.481-.066,0-.065-.071-.065-.136-.065l-.069.065c-.137-.134-.341,0-.547-.065a8.965,8.965,0,0,0-1.369-.729c-.139,0,0-.2-.139-.2a.258.258,0,0,1-.2-.065c0-.2.069-.332-.138-.464l.07-.066c0-.064-.07-.064-.136-.064-.069-.4-.275-.73-.341-1.124a1.658,1.658,0,0,1-.138-.134,1.156,1.156,0,0,0-.139-.529c-.067-.265.17-.486.037-.741a.209.209,0,0,1,.07-.184,1.722,1.722,0,0,1,.064-.821c-.064,0-.064-.06-.064-.125a1.557,1.557,0,0,0,.129-.755c.063-.188.194-.376.259-.565l-.066-.062c.131-.127.066-.316.262-.44,0-.065,0-.124-.065-.124,0-.129.13-.191.195-.256a2.59,2.59,0,0,1,.475-.714l-.05-.076a.926.926,0,0,1,.638-.25,1.523,1.523,0,0,1,.607.209c.075.151,0,.265.1.455h.1v.127c0,.063.047.063.1.063a1.132,1.132,0,0,1,.1.566c0,.061.05.061.1.061-.05.126.1.253.1.379-.1.123,0,.314-.049.5.147.312.1.691.244,1a1.579,1.579,0,0,0,.2.694" transform="translate(-45.009 -9.549)" fill="#fff"/>
      <path id="패스_22301" data-name="패스 22301" d="M60.541,27.7a1.339,1.339,0,0,1,.323.288.823.823,0,0,0,.3.313,2.481,2.481,0,0,1,.267.13l.085.176.213.2c.227.069.271-.067.442.17.076,0,.151,0,.151.065l.076-.065c.075.134.225.2.3.266a.862.862,0,0,1,.572.215c.075,0,.085.153.085.088.231.06.386.214.538.078.074,0,.149,0,.149.068l.075-.068c.151-.065.184.113.336.049.076,0,.076.064.076.133h.149c.15.135.792-.044.944.092a10.879,10.879,0,0,0,2.241-.089c.008-.13.217.01.223-.118l.071.066c.285.079.585-.248.867-.108.076-.059.076-.059.151-.12.145-.057.353.209.505.026-.006.063.068.066.139.069a.894.894,0,0,1,.006-.128c.224-.117.5-.087.659-.263.074.006.216.018.288.029l.157-.114c.372-.089.7-.383,1.122-.479.067-.072.211-.082.27-.219.071-.009.144-.015.218-.017.064-.07.131-.143.2-.21.223.043.416-.26.628-.291-.01-.062-.02-.128.048-.138l.083.053c.134-.088.134-.088.182-.225.222.029.344-.245.465-.394l.142-.018c.059-.076.059-.076.121-.15l.145-.024c.19-.161.3-.371.573-.479-.011-.062-.022-.126.049-.14.154.042.121-.148.18-.221.062-.045.252-.179.3-.117-.01.1.186-.272.176-.17.05.064.3-.581.355-.623l-.6-1.564c-.223.312-1.007,1.338-1.428,1.434.007.329-.36.346-.611.535.015.059.032.124-.041.14-.21.047-.3.283-.442.312-.015-.061-.085-.046-.156-.029-.055.078-.195.109-.233.253-.212.046-.275.255-.4.4l-.081-.051c-.251.232-.621.209-.795.5-.408.191-.755.258-1.178.416-.071,0-.142.009-.148-.058-.061.134-.357.026-.418.159a7.425,7.425,0,0,0-1.224.08c-.011-.127-.221.015-.226-.11-.345.152-.7-.048-1.068-.048-.071-.065-.215-.065-.288-.191a.836.836,0,0,1-.793-.194c-.217,0-.361-.195-.577-.258v-.127c-.071-.065-.071-.065-.145-.129,0-.192.217-.192.361-.256.144-.192.534-.147.678-.34,0-.065.2-.189.2-.254.071-.129.119-.25.194-.25.217-.128.075-.279.364-.341,0-.065.228-.222.153-.288.288-.191.282-.3.356-.685.141-.19.356-.4.356-.658.071-.062-.017-.342.129-.407.07-.446-.114-.685-.114-1.132-.075-.065-.075-.065-.145-.129,0-.2-.144-.32-.073-.512-.215-.195-.163-.254-.379-.445l-.125-.13H67.13c-.071-.13-.288-.192-.288-.322a4.789,4.789,0,0,1-.862-.385l-.075.067-.074-.067c-.072.067-.072.067-.144.131,0-.2-.216,0-.287-.131-.146,0-.29-.065-.433.067-.434-.132-.9.094-1.334-.1,0,.128-.288-.065-.288.128-.144.062-.355.058-.424.118H62.7a1.122,1.122,0,0,1-.83.418c-.144,0,0,.191-.144.191h-.144a7.176,7.176,0,0,1-1.082.962c0,.065-.146.126-.071.256,0,.066-.076.066-.146.066a.325.325,0,0,1-.143.255c0,.064,0,.128.073.128,0,.065-.111.227-.182.227-.072.255-.072.513-.289.641,0,.511-.15.758-.183,1.322a7.26,7.26,0,0,1,.076,1.016c.225.137-.056.129.094.328.075,0,.036.115.036.182.073.135.314.231.236.366,0,.067.126.126.2.126.076.134-.11.282.041.348,0,.066.24.015.164.147Zm4.7-4.171c-.145.069,0,.2-.145.271l.074.067A2.647,2.647,0,0,1,64,25.69c-.073,0-.146,0-.146-.067,0-.137-.148-.339-.072-.474,0-.067-.076-.067-.148-.067.148-.136-.1-.271-.021-.475-.076,0-.076-.066-.076-.135.221-.137.042-.483.261-.618l-.073-.07a2.119,2.119,0,0,1,.328-.482v-.135a2.89,2.89,0,0,1,1.04-.52c.074,0,.145,0,.145.062.219.276.073.543,0,.814" transform="translate(-26.611 -9.015)" fill="#fff"/>
      <path id="패스_22302" data-name="패스 22302" d="M85.71,22.993c.009.09.019.178.028.262.493.48.4,1.293.725,1.879-.156.2-.046.455-.113.644l.194.153c-.131.465.182.872.138,1.326-.081.1-.081.1-.16.2.009.087.019.177.106.167l-.078.1.1.078-.079.1c.087-.014.1.075.106.167-.157.2.132.43-.112.636a.322.322,0,0,1,.113.257c-.246.209-.1.59-.266.865l.089.084-.085.095-.092-.086c-.088,0-.085.1-.082.182.09.172.272.34.1.53l.09.081a1.131,1.131,0,0,0-.416.678l-.161.178a.3.3,0,0,1,.089.251c-.161.179-.241.353-.4.532,0,.084.09.251-.075.343l.086.083c-.082.174-.157.432-.234.609.083-.006.083.079.083.163-.243.184-.523.379-.434.715-.158.262-.363.351-.524.616.089.163-.288.242-.285.411s-.244.1-.158.264l.083.082c-.081.006-.081.006-.162.009a.408.408,0,0,1-.242.267c0,.085,0,.172-.08.174a3,3,0,0,0-.377.423c.084.081-.264.258-.185.261a.474.474,0,0,0-.2.329c-.08,0-.165-.006-.173.076l.006.111c-.057.059-.074.058-.194.085-.643.735-1.583,1.023-2.228,1.752-.171.081-.343.156-.515.232s-.116.332-.268.238c.007-.083-.222.075-.3.072-.181.162-.45.043-.616.032.006-.082-.091-.065-.167-.151l-.091.079a.873.873,0,0,0-.343-.269c-.074-.085.089-.175.006-.179l.094-.081c.008-.082-.131-.1-.213-.108-.147-.178.168-.044.1-.221l-.323-.025c-.076-.167-.233-.171-.3-.347.015-.166.377-.162.392-.335.164.012.116-.015.29-.094l-.061-.119c.175-.081.148-.225.228-.223,0,.086.064-.012.145-.008s.164.008.173-.076a.33.33,0,0,1,.106-.252c.082.008.082.008.164.012a3.347,3.347,0,0,0,.5-.517c.007-.084.007-.084.015-.168.089-.079.1-.249.279-.326-.008.086-.021.169.067.174.259-.158.1-.251.037-.422.091-.083.091-.083.182-.161-.009.085.137.019.056.015-.008.085.086-.2.168-.193.2-.314.054.057.357-.524.064-.064.219-.123.232-.166-.017-.008.194-.082.119-.17-.012-.067.02-.1-.153-.015.1-.167.387-.415.4-.587.241.1.049-.284.213-.276-.088.078-.171-.083-.169,0l.274-.008c.183-.161-.254-.153-.09-.336,0-.081-.027-.131-.107-.125-.006-.085-.024-.157.058-.159l.084.079c.079-.088-.077-.375.085-.469,0-.085,0-.171-.006-.258.245-.18.135-.151.21-.41L81.48,32.2c0,.084.176-.078.1-.075V31.95c.163-.093.276-.657.271-.829,0,.171-.192-.388-.025-.312.238-.355.076-.827.113-1.26-.173-.062.133-.188.038-.344-.081.008-.163.018-.173-.066.074-.1.074-.1.144-.194-.007-.081-.015-.167-.1-.155-.009-.085-.015-.172.066-.18-.012-.085-.017-.168-.1-.159l.145-.192c-.009-.083-.089-.075-.171-.063.049-.351-.3-.6-.175-.96-.079.008-.089-.075-.1-.162.221-.285-.079-.626.058-.9-.171-.064-.106-.245-.125-.416.074-.092-.137-.177-.146-.26a6,6,0,0,1-.282-1.155c-.163.147-.281-1.184-.422-1.7-.213-.332-.07-.708-.2-1.05.089-.011.176-.022.169-.11-.117-.254.139-.376.2-.652.176-.021.341-.133.536.022.167-.108.064-.274.053-.363.35-.042.617-.078.97-.122.009.089.015.178.1.167.263-.033.372.13.634.1.01.092.016.179.106.169a.438.438,0,0,1,.371.134c.088-.013.176-.024.167-.109l.1.073.08-.1a.3.3,0,0,0,.271.053c.1.08.123.343.291.236a21.226,21.226,0,0,1,1.263,1.9" transform="translate(-34.542 -9.1)" fill="#fff"/>
      <path id="패스_22303" data-name="패스 22303" d="M21.207,20.475c-.028-.142-.233-.184-.317-.186s-.246.176-.328.036a1.393,1.393,0,0,1-.31.349.5.5,0,0,1-.289.069c-.042.218-.066.241.124.748.087.016.176.5.27.524-.04-.186.251.4.345.484l.12.03c.059.016.03.071,0,.122l.263.188c.027.071.084.091.021.193a1.42,1.42,0,0,1,.5.21c.059.024.022.072-.012.122.056.024.111.049.148,0,.145,0,.041.149.063.22l.09-.023c.021.074.134.123.134.123.176.266,1.036.593,1.25.836l.084-.042c.067.139.443.166.443.348l.08-.049c.04.067.607.174.765.259.079-.049-.035-.134.052-.175.094.078.29.259.38.343a3.369,3.369,0,0,1,.42.058c.221.234.674.089.943.21a.19.19,0,0,0,.15.1l.085-.043.034.067c.168-.086.259,0,.371-.1l.034.069.083-.045.066.141c.235.05.447.16.7.032a.183.183,0,0,0,.15.094c.083-.043.083-.043.17-.082.175.038.206.107.411.091l.031.07a.859.859,0,0,1,.664-.038c.051-.109.177.042.227-.072l.033.071c.2-.142.5-.069.7-.076l.03.071c.087-.04.052.006.052.006.17-.08.585-.085.7-.178a.909.909,0,0,0,.545.062c.067.015.2.045.258.064a.62.62,0,0,1,.711-.038,4.109,4.109,0,0,0,.89-.375c.065.017.132.037.2.057.1-.037.162-.015.228-.122a3.039,3.039,0,0,0,.758-.376c.029.073.193-.064.224,0l.067-.1c.128.039.223-.122.353-.083.034-.05.034-.05.065-.1.2-.066.118-.117.313-.183.166-.113.4-.5.778-.668-.01-.126.241-.194.3-.3.029-.055.1-.042.159-.028l-.037-.069c.092-.042.065-.224.153-.143.024-.056.136-.2.08-.211.186-.146.183-.619.455-.677l.047-.112c.109-.144.067-.413.128-.451.022-.053-.008-.093.049-.079.07-.217.12-.547.186-.841-.056-.011-.032-.066-.006-.123.053.013.076-.044.1-.1-.054-.013-.031-.07-.008-.125l.078-.043c-.11-.025.015-.177-.1-.2l.077-.045c-.095-.267.043-.537-.051-.8L38.2,19.4a.352.352,0,0,1,0-.468.209.209,0,0,1,0-.183c-.149-.094.035-.195-.059-.278.053-.167-.134-.333-.02-.491-.073-.138-.087-.2-.167-.331.015-.059.032-.117.047-.174-.054-.012-.113-.024-.1-.081.089-.106-.01-.183.024-.3-.113-.02-.053-.119-.092-.185a1.64,1.64,0,0,0-.3-.81c.077-.113-.08-.564-.072-.708l-.111-.057a.485.485,0,0,0-.208-.3c.006-.072.006-.072.009-.141-.056,0-.114-.006-.106-.077l.006-.142-.063.067a.414.414,0,0,1-.143-.362c-.208-.293-.288-.5-.584-.932-.117.073-.006-.22-.146-.154a1.617,1.617,0,0,0-.5-.673c.008-.07.008-.07.013-.143H35.5c-.066,0-.057-.073-.049-.142-.372-.227-1.691-.412-1.893-.776-.117,0-.228-.08-.3.063l-.1-.147c-.31.2-.568-.162-.853-.242l-.063.067c-.1-.215-.291-.008-.408-.009a.172.172,0,0,0-.166-.079c-.3.134-.58-.017-.841.334l-.051-.076.663,1.217a5.3,5.3,0,0,0,.346,1.214c.059.011.135.149.176.228-.015.066-.015.066-.029.135.087.159.175.318.262.479-.059-.014-.075.051-.09.121.071.226.069.47.136.689.093.081-.015.131.086.233.012.011-.061.142-.046.15a.353.353,0,0,0,.029.245c.034.245.021.049.192.225-.158.187.106.5-.049.681.083.088.086-.036.113.033-.028.049-.028.049-.054.1s.025.071.081.094c.054.136-.045.217.028.35.055.013,0,.183.06.195.016.125.172.163.023.249-.055-.015-.023.235-.08.4a1.06,1.06,0,0,1-.018.409c.057.013.1-.055.075,0s-.019.055-.038.11c.055.012.049.114.028.167,0,.177-.114.268-.173.432-.064.356.121.648-.12.775.086.078-.021.173-.045.23-.08.038-.058.212-.133.255-.09.219-.135.207-.224.425-.148.085-.172.18-.318.266-.024.052-.024.052-.046.107s-.074.041-.123.031c-.1.1-.43.253-.477.357l.03.069a2.339,2.339,0,0,0-.479.225c-.219.131-.38.133-.609.249-.2-.057-.368.091-.568.034-.076.042-.152.083-.228.117-.1-.026-.251.051-.325-.029-.1-.024-.078.158-.177.134l-.1-.029-.025-.067c-.153.08-.274-.016-.427.062l-.023-.064c-.153.076-.279-.01-.375.088a1.2,1.2,0,0,0-.63-.072c.021-.057-.027-.066-.08-.074l-.073.045c.023-.055-.428-.024-.478-.029l-.1-.019-.032-.066-.072.045c-.081-.072-.62-.127-.748-.266-.1.1-.2.053-.318.03a5.353,5.353,0,0,1-1.135-.255L24,22.127a.449.449,0,0,1-.518-.139c-.059-.014-.14-.02-.2-.038-.062-.143-.441-.116-.491-.258a1.876,1.876,0,0,1-.27-.229c-.125.076-.438-.3-.5-.322l-.208-.008-.076-.226-.28-.21c-.113-.21-.227-.044-.265-.223" transform="translate(-8.906 -5.004)" fill="#fff"/>
      <path id="패스_22304" data-name="패스 22304" d="M28.637,9.919c.078,0,.157.007.23.011.374.381,1.108.27,1.6.516.194-.141.406-.058.581-.122.059.076.059.076.116.154.428-.128.657.086,1.064.057.1-.063.1-.063.2-.129.076.009.151.021.129.091l.1-.065.053.08.1-.061c-.025.072.051.081.129.086.2-.123.319.045.544-.144a.247.247,0,0,0,.2.107c.227-.19.306.009.584-.08l.049.086.1-.054-.044-.086c.025-.07.1-.052.175-.036.122.1.206.258.415.162l.042.085c.132-.092-.879-.137.7-.188l.2-.09a.24.24,0,0,0,.18.124c.2-.092.372-.119.572-.207.071.017.181.121.312.012l.04.081c.172-.022.411-.032.581-.055-.026.064-.113-.089-.046-.059.242-.123.505-.266.731-.086.27-.03.387-.166.659-.185.087.127.306-.123.435-.053s.131-.115.216.015l.022.092c.041-.054.041-.054.08-.114a.363.363,0,0,0,.308-.065c.062.036.124.075.165.017a2.93,2.93,0,0,1,.482-.1c.024.1.17-.046.132.015a.4.4,0,0,1,.329.027c.038-.056.079-.113.142-.078l.073.056c.073-.011.078-.022.162-.088.841-.075,1.31-.486,2.146-.486.146-.067.293-.132.44-.2s.278.111.3-.039c-.058-.041.172-.1.217-.153.2-.021.331-.378.414-.492-.06-.041,0-.092-.014-.192l.1-.016a1.746,1.746,0,0,1,0-.558c-.018-.1-.165-.034-.125-.092l-.032-.072c-.059-.041.017-.144.06-.2-.04-.2-.217.025-.3-.114l.153-.226c-.07-.138-.379-.219-.5-.3-.083.117-.076.071-.22.142l-.049-.106c-.144.077-.229-.015-.27.039.061.039-.041.034-.078.088s-.084.116-.145.074a.3.3,0,0,0-.224-.061c-.041.06-.041.06-.081.111a3.24,3.24,0,0,1-1.417-.033l-.2.05c.066.034-.051.108-.014.048.063.035-.185-.033-.223.028-.325,0-1.039.069-.9-.014-.165-.007-.486.078-.612.013-.048.21-.277-.119-.348,0,.1-.027-.127-.042-.061-.012l.008.084c-.2.062-.215-.128-.417-.054-.068-.03-.1-.063-.065-.122-.069-.026-.116-.066-.148,0l.032.087c-.1.037-.27-.168-.406-.075l-.2-.081a1.64,1.64,0,0,1-.724.145l-.046-.08c.07.015-.117.128-.092.06L37.3,6.811a1.383,1.383,0,0,1-.776.079c.142.033-.288-.247-.263-.1-.36.139-.774-.071-1.158-.075-.024-.147-.185.1-.306.006.024-.068.046-.135-.024-.147-.1.054-.166.03-.261.089-.073-.009-.147-.017-.123-.085-.075-.009-.149-.017-.169.047-.073-.01-.146-.02-.125-.084-.094.053-.19.128-.282.188-.072-.007-.054-.075-.037-.141-.315.045-.494-.239-.826-.132.017-.064-.052-.07-.131-.077-.277.183-.668-.016-.925.114-.044-.136-.209-.07-.357-.072-.089.064-.148-.1-.221-.1a5.552,5.552,0,0,0-1-.152c.141-.141-1.029-.147-1.476-.227-.28-.153-.623-.011-.918-.09-.017.073-.033.145-.11.144-.217-.076-.347.141-.6.211-.032.145-.192.215-.148.341-.108.143-.124.168-.2.167-.065.291-.116.261-.191.549.077.008.156.01.136.082-.057.215.078.3.02.514.076.006.156.008.136.081a.306.306,0,0,0,.079.3c-.019.072-.038.144-.115.14l.056.076-.1.069a.218.218,0,0,1,.02.22c.059.076.29.089.177.23a15.33,15.33,0,0,0,1.554.953" transform="translate(-11.915 -2.614)" fill="#fff"/>
    </g>
  </g>
</svg>
