<svg xmlns="http://www.w3.org/2000/svg" xmlns:xlink="http://www.w3.org/1999/xlink" width="206.661" height="30" viewBox="0 0 206.661 30">
  <defs>
    <clipPath id="clip-path">
      <rect id="사각형_1437" data-name="사각형 1437" width="206.661" height="30" fill="none"/>
    </clipPath>
  </defs>
  <g id="그룹_1719" data-name="그룹 1719" transform="translate(0 0)">
    <g id="그룹_1718" data-name="그룹 1718" transform="translate(0 0)" clip-path="url(#clip-path)">
      <path id="패스_22697" data-name="패스 22697" d="M170.855,26.3a.215.215,0,0,1-.074.149.24.24,0,0,1-.174.075h-1.74V29.4c0,.149-.083.224-.249.224H165.76a.2.2,0,0,1-.223-.224V26.519H158.18a.238.238,0,0,1-.174-.075.213.213,0,0,1-.075-.149V23.96a.915.915,0,0,1,.037-.211.748.748,0,0,1,.088-.212l7.307-12.352a.7.7,0,0,1,.137-.149.257.257,0,0,1,.161-.074h2.958a.224.224,0,0,1,.174.087.261.261,0,0,1,.074.162V23.636h1.74c.166,0,.249.092.249.273ZM165.537,17l-3.952,6.636h3.952Z" transform="translate(-72.412 -5.025)" fill="#1a1311"/>
      <path id="패스_22698" data-name="패스 22698" d="M188.687,24.317a2.121,2.121,0,0,1,2.112,2.112,1.991,1.991,0,0,1-.621,1.479,2.13,2.13,0,0,1-2.983,0,1.989,1.989,0,0,1-.621-1.479,2.121,2.121,0,0,1,2.112-2.112" transform="translate(-85.545 -11.149)" fill="#1a1311"/>
      <path id="패스_22699" data-name="패스 22699" d="M203.782,15.015a.221.221,0,0,1-.124.149.276.276,0,0,1-.2.025l-2.634-.845a.231.231,0,0,1-.174-.125.162.162,0,0,1,0-.174,5.333,5.333,0,0,1,.733-1.454,5.217,5.217,0,0,1,1.156-1.18,5.6,5.6,0,0,1,1.553-.8,6.066,6.066,0,0,1,1.952-.3,7.466,7.466,0,0,1,2.137.311,5.657,5.657,0,0,1,1.852.932,4.736,4.736,0,0,1,1.3,1.566,4.635,4.635,0,0,1,.5,2.187,5.271,5.271,0,0,1-.746,2.871,4.505,4.505,0,0,1-1.914,1.727,4.062,4.062,0,0,1,2.137,1.678,5.829,5.829,0,0,1,.746,3.144,4.457,4.457,0,0,1-1.814,3.716,5.879,5.879,0,0,1-1.9.92,8.029,8.029,0,0,1-2.225.31,6.882,6.882,0,0,1-2.236-.348,6.478,6.478,0,0,1-1.79-.919,5.18,5.18,0,0,1-1.268-1.329,4.626,4.626,0,0,1-.671-1.554c-.034-.166.016-.265.149-.3l2.659-.746q.174-.024.273.224a2.581,2.581,0,0,0,.684,1.193,3.244,3.244,0,0,0,1.081.708,3.008,3.008,0,0,0,1.243.212,2.459,2.459,0,0,0,2.063-1.218,2.737,2.737,0,0,0,.348-1.441,2.61,2.61,0,0,0-.286-1.268,2.357,2.357,0,0,0-.807-.858,3.857,3.857,0,0,0-1.255-.5,7.487,7.487,0,0,0-1.6-.161.222.222,0,0,1-.174-.087.257.257,0,0,1-.075-.161V18.694a.22.22,0,0,1,.249-.249,4.584,4.584,0,0,0,2.734-.734,2.531,2.531,0,0,0,1.019-2.2,2.174,2.174,0,0,0-.646-1.715,2.327,2.327,0,0,0-1.466-.609,2.755,2.755,0,0,0-1.578.423,2.139,2.139,0,0,0-.982,1.4" transform="translate(-91.766 -4.731)" fill="#1a1311"/>
      <path id="패스_22700" data-name="패스 22700" d="M248.841,21.369q0,.249-.224.249H229.53c-.149,0-.224-.083-.224-.249V19.206a.235.235,0,0,1,.062-.149.2.2,0,0,1,.162-.074h7.953V17.665h-4.772a1.28,1.28,0,0,1-.969-.422,1.4,1.4,0,0,1-.4-.994V8.569a.2.2,0,0,1,.075-.162.238.238,0,0,1,.149-.062H234.3a.2.2,0,0,1,.224.224v1.74h9.1V8.569c0-.149.082-.224.249-.224h2.709a.236.236,0,0,1,.149.062.2.2,0,0,1,.075.162v7.68a1.4,1.4,0,0,1-.4.994,1.282,1.282,0,0,1-.969.422h-4.747v1.317h7.929a.2.2,0,0,1,.162.074.238.238,0,0,1,.062.149ZM246.8,30.117a.2.2,0,0,1-.075.161.234.234,0,0,1-.149.062H243.87c-.166,0-.249-.075-.249-.224V25.544H231.344a.233.233,0,0,1-.149-.062.2.2,0,0,1-.075-.161V22.934a.2.2,0,0,1,.075-.161.236.236,0,0,1,.149-.062h15.236a.234.234,0,0,1,.149.062.2.2,0,0,1,.075.161Zm-3.181-17.124h-9.1v1.963h9.1Z" transform="translate(-105.138 -3.826)" fill="#1a1311"/>
      <path id="패스_22701" data-name="패스 22701" d="M281.625,27.308a.352.352,0,0,1,.012.174c-.008.083-.037.133-.087.149l-2.361.746c-.182.034-.3,0-.348-.1L275.287,16l-3.554,12.278a.241.241,0,0,1-.149.1.4.4,0,0,1-.2,0l-2.361-.746c-.05-.016-.079-.066-.087-.149a.344.344,0,0,1,.012-.174l4.573-15.633h-3.8a.26.26,0,0,1-.162-.074.2.2,0,0,1-.087-.149V9.066a.222.222,0,0,1,.087-.174.258.258,0,0,1,.162-.075h11.134a.215.215,0,0,1,.149.075.24.24,0,0,1,.074.174v2.386a.262.262,0,0,1-.224.224h-3.8Zm5.145,2.809a.2.2,0,0,1-.224.224h-2.734a.2.2,0,0,1-.224-.224V8.569a.2.2,0,0,1,.224-.224h2.734a.2.2,0,0,1,.224.224Z" transform="translate(-123.307 -3.826)" fill="#1a1311"/>
      <path id="패스_22702" data-name="패스 22702" d="M320.553,14.558a6.662,6.662,0,0,1-.447,2.473,5.8,5.8,0,0,1-1.268,1.963A5.909,5.909,0,0,1,316.9,20.3a6.256,6.256,0,0,1-2.461.472,6.351,6.351,0,0,1-2.473-.472,5.879,5.879,0,0,1-1.951-1.306,5.8,5.8,0,0,1-1.267-1.963,7.052,7.052,0,0,1,0-4.946,5.807,5.807,0,0,1,1.267-1.963,5.9,5.9,0,0,1,1.951-1.306,6.36,6.36,0,0,1,2.473-.472,6.265,6.265,0,0,1,2.461.472,5.926,5.926,0,0,1,1.939,1.306,5.807,5.807,0,0,1,1.268,1.963,6.664,6.664,0,0,1,.447,2.473m6.164,15.558a.2.2,0,0,1-.075.161.234.234,0,0,1-.149.063H312.4a1.323,1.323,0,0,1-.982-.423,1.412,1.412,0,0,1-.41-1.019V22.934a.19.19,0,0,1,.087-.162.29.29,0,0,1,.161-.062h2.709a.2.2,0,0,1,.224.224v4.548h12.3a.236.236,0,0,1,.149.062.2.2,0,0,1,.075.162Zm-9.345-15.558a4.086,4.086,0,0,0-.211-1.317,3.209,3.209,0,0,0-.6-1.068,2.81,2.81,0,0,0-.932-.708,2.857,2.857,0,0,0-2.386,0,2.93,2.93,0,0,0-.944.708,3.069,3.069,0,0,0-.609,1.068,4.243,4.243,0,0,0,0,2.647,3.082,3.082,0,0,0,.609,1.056,2.93,2.93,0,0,0,.944.708,2.857,2.857,0,0,0,2.386,0,2.81,2.81,0,0,0,.932-.708,3.224,3.224,0,0,0,.6-1.056,4.049,4.049,0,0,0,.211-1.33m8.9,9.792a.237.237,0,0,1-.075.174.213.213,0,0,1-.149.075h-2.734c-.149,0-.224-.082-.224-.249V8.568a.2.2,0,0,1,.224-.224h2.734a.233.233,0,0,1,.149.062.2.2,0,0,1,.075.161v5.493h2.485a.2.2,0,0,1,.149.087.283.283,0,0,1,.075.186V16.72a.263.263,0,0,1-.224.224H326.27Z" transform="translate(-141.357 -3.825)" fill="#1a1311"/>
      <path id="패스_22703" data-name="패스 22703" d="M357.864,27.483a.235.235,0,0,1-.062.149.2.2,0,0,1-.161.075h-8.177a1.3,1.3,0,0,1-.969-.41,1.386,1.386,0,0,1-.4-1.006V8.817q0-.249.224-.249h2.734c.149,0,.224.083.224.249V24.848h6.363c.149,0,.224.083.224.249Zm3.753,2.634a.2.2,0,0,1-.224.224h-2.51a.235.235,0,0,1-.149-.062.2.2,0,0,1-.075-.161V8.569a.2.2,0,0,1,.075-.162.237.237,0,0,1,.149-.062h2.51a.2.2,0,0,1,.224.224v7.9h1.69v-7.9a.191.191,0,0,1,.087-.162.288.288,0,0,1,.161-.062h2.485a.2.2,0,0,1,.224.224V30.117a.2.2,0,0,1-.224.224h-2.485a.285.285,0,0,1-.161-.062.189.189,0,0,1-.087-.161V19.33h-1.69Z" transform="translate(-159.603 -3.826)" fill="#1a1311"/>
      <path id="패스_22704" data-name="패스 22704" d="M85.376.081a.3.3,0,0,0-.146-.073c-.225-.047-.445.115-.783.383l-.259.2c-.92.49-1.622,2.784-1.778,3.728-.028.012-.048.027-.1.051a4.02,4.02,0,0,0-2.675-2.017c.429,1.632,1.865,6.557,3.777,6.132.971-.217,3-4.307,3.018-6.558v-.08C86.418.651,85.867.225,85.376.081" transform="translate(-36.514 0)" fill="#ed6b00"/>
      <path id="패스_22705" data-name="패스 22705" d="M108.559,46.487a15.642,15.642,0,0,0-5.541.743,1.947,1.947,0,0,0-.881.617c.038.494-.258,1.273.2,1.463.024,0,.022.076.044.118.135.136.277.156.414.331.088.125.161-.014.255.038.043.045.067.123.113.132.23.107.442.066.671.177a.606.606,0,0,0,.347.092c.072-.027.161.136.186.178a2.9,2.9,0,0,0,1.279.01c1.331-.019,1.076-.151,2.41-.171,1.12-.017,2.212.155,3.327.135.608-.018,1.264,0,1.87-.042,1.072-.063,2.144.1,3.218.115.536-.012,1.159.2,1.7.236a8.449,8.449,0,0,1,1.727-.028,1.5,1.5,0,0,1,.562.075,1.558,1.558,0,0,0,.526.187,3.431,3.431,0,0,0,1.468-.345,3.288,3.288,0,0,0,.867-.311.765.765,0,0,0,.315-.5,2.007,2.007,0,0,0,.106-1.3c-.027,0-.1.032-.12-.009-.051-.076-.038-.263-.112-.269a4.188,4.188,0,0,0-.64-.156c-.284-.058-.573-.2-.856-.245a72.813,72.813,0,0,0-13.465-1.273" transform="translate(-46.803 -21.306)" fill="#00905f"/>
      <path id="패스_22706" data-name="패스 22706" d="M38.549,47.285c.241.054.515.049.646.208.13.125-.129.331-.114.5,0,.392.145.753.138,1.147a.241.241,0,0,1-.1.2,1.045,1.045,0,0,1-.293.273c-.336.212-.773.131-1.16.243a8.239,8.239,0,0,1-1.544.258,20.473,20.473,0,0,1-2.763-.129,2.75,2.75,0,0,0-1.047.139,4.318,4.318,0,0,1-1.29.081c-2.245-.081-4.449-.127-6.685-.11-.392.015-.82.065-1.212.079-1.8.1-3.59.07-5.388.116-.628.016-1.254.034-1.883.017l-1.018.024c-1.329.068-2.692.131-4.027.074l-1.566.015a41.536,41.536,0,0,1-4.494.239,7.65,7.65,0,0,1-3.143-.83A4.225,4.225,0,0,1,0,48.39a1.774,1.774,0,0,1,1.07-.569A29.659,29.659,0,0,1,4,47.206c.853-.142,1.636-.214,2.455-.288a202.48,202.48,0,0,1,27.518-.288,29.9,29.9,0,0,1,4.57.65" transform="translate(0 -21.226)" fill="#0061b1"/>
      <path id="패스_22707" data-name="패스 22707" d="M104.152,25.8v.125c.1.244.287.307.478.489h.623c0-.123.143,0,.143-.123a.525.525,0,0,0,.459-.244h.1a.529.529,0,0,1,.463-.312q.384-.461.769-.921a.361.361,0,0,1,.152-.31,11.187,11.187,0,0,1,.515-1.724,2.541,2.541,0,0,0,.052-.614c.05,0,.1,0,.1-.06a.513.513,0,0,1,.206-.49c.1,0,.2,0,.257-.124v-.121a1.076,1.076,0,0,1,.747.428h.336c0,.127.069.127.138.19a3.58,3.58,0,0,1,1.134.059c0,.184.268.123.337.308a1.77,1.77,0,0,0,.2.555.219.219,0,0,1-.07.187c.136.181.269.49.07.673.067.246,0,.554.133.8-.133.123-.067.309-.067.43a3.475,3.475,0,0,1,.2.862c.269.308.2.678.406.986v.365c.133,0,0,.188.133.188a6.967,6.967,0,0,1-.133,1.175c-.069.058-.137.123-.2.184v.123c-.069,0-.134,0-.134-.063-.138.186-.338.308-.475.489-.134-.061-.2.063-.269.063-.134,0,0,.185-.134.185a.53.53,0,0,0-.341.123c-.135.061-.593-.063-.727.061l-.058-.067a.378.378,0,0,1-.272.123c0-.062,0-.123-.068-.123a.489.489,0,0,1-.54.246c-.057-.123-.034-.214-.188-.271a2.454,2.454,0,0,0-.256-1.055c.05,0,.05-.055.05-.109a1.928,1.928,0,0,1-.151-.5c-.156-.225-.207-.556-.411-.723.052-.056-.1-.112-.054-.166-.1-.108-.152-.166-.256-.278-.1,0-.1.057-.152.11-.053.277-.308.5-.36.778l-.05-.055c-.052.166-.206.277-.206.445-.1.054-.155.221-.253.277v.112c-.361.332-.556.871-.987,1.1-.107.232-.379.28-.484.538a2.357,2.357,0,0,0-.615.128c-.136-.064-.338-.2-.471-.064,0-.063-.069-.063-.133-.063l-.067.063c-.134-.131-.334,0-.536-.063a8.774,8.774,0,0,0-1.34-.714c-.136,0,0-.2-.136-.2a.252.252,0,0,1-.2-.064c0-.2.068-.325-.135-.454l.068-.065c0-.062-.068-.062-.133-.062-.067-.392-.269-.715-.334-1.1a1.622,1.622,0,0,1-.135-.131,1.132,1.132,0,0,0-.136-.518c-.066-.259.167-.476.036-.726a.2.2,0,0,1,.069-.18,1.685,1.685,0,0,1,.062-.8c-.062,0-.062-.058-.062-.122a1.524,1.524,0,0,0,.126-.739c.062-.184.19-.368.253-.553l-.064-.061c.128-.124.064-.309.256-.43,0-.063,0-.121-.063-.121,0-.126.127-.187.191-.251a2.535,2.535,0,0,1,.465-.7l-.049-.075a.906.906,0,0,1,.624-.244,1.49,1.49,0,0,1,.595.2c.073.148,0,.259.1.446h.1V22.6c0,.062.046.062.1.062a1.108,1.108,0,0,1,.1.554c0,.06.049.06.1.06-.049.123.1.248.1.371-.1.121,0,.308-.048.49.144.305.1.676.239.978a1.545,1.545,0,0,0,.2.68" transform="translate(-46.191 -9.799)" fill="#1a1311"/>
      <path id="패스_22708" data-name="패스 22708" d="M60.52,27.536a1.31,1.31,0,0,1,.316.282.806.806,0,0,0,.293.306,2.428,2.428,0,0,1,.262.127l.083.172.208.2c.223.068.265-.066.433.167.075,0,.148,0,.148.063l.075-.063c.073.131.22.2.293.26a.844.844,0,0,1,.56.211c.073,0,.083.149.083.086.226.058.378.21.527.076.072,0,.146,0,.146.067l.073-.067c.148-.064.18.11.329.048.074,0,.074.063.074.131h.146c.147.132.775-.043.924.09a10.648,10.648,0,0,0,2.193-.087c.008-.127.212.01.218-.115l.069.064c.279.077.573-.243.849-.106.075-.058.075-.058.148-.118.142-.056.345.2.494.025-.006.062.067.064.136.068a.876.876,0,0,1,.006-.125c.219-.115.49-.086.645-.258.073.006.212.018.282.029l.153-.112c.364-.087.686-.375,1.1-.469.066-.07.207-.08.264-.214.07-.009.141-.015.213-.017.063-.068.128-.14.191-.205.218.042.407-.255.615-.285-.01-.061-.019-.126.047-.135l.081.052c.131-.086.131-.086.178-.22.217.029.336-.239.455-.386l.139-.018c.057-.074.057-.074.118-.147l.142-.023c.186-.158.294-.363.561-.469-.011-.061-.022-.123.048-.137.151.041.118-.145.176-.217.061-.044.246-.175.293-.114-.01.1.182-.266.172-.166.049.062.293-.569.348-.61l-.588-1.531c-.218.305-.986,1.309-1.4,1.4.006.322-.353.338-.6.524.015.057.031.121-.04.137-.205.046-.293.277-.433.305-.015-.06-.083-.045-.153-.029-.054.076-.191.107-.228.247-.207.045-.269.25-.392.392l-.079-.05c-.246.227-.608.2-.778.485-.4.187-.739.252-1.153.407-.069,0-.139.009-.145-.057-.06.131-.349.025-.409.155a7.267,7.267,0,0,0-1.2.079c-.011-.125-.217.015-.221-.108-.337.149-.69-.047-1.045-.047-.069-.063-.211-.063-.282-.187a.819.819,0,0,1-.776-.19c-.212,0-.353-.191-.565-.252v-.124c-.069-.064-.069-.064-.142-.127,0-.188.212-.188.354-.25.141-.188.523-.144.663-.333,0-.063.191-.185.191-.249.069-.126.117-.245.19-.245.212-.125.074-.273.356-.334,0-.064.223-.217.15-.282.282-.187.276-.293.348-.671.138-.186.348-.392.348-.644.07-.061-.016-.335.127-.4.068-.436-.112-.67-.112-1.108-.074-.064-.074-.064-.142-.126,0-.191-.141-.314-.071-.5-.211-.191-.16-.249-.371-.435l-.122-.127H66.97c-.069-.127-.282-.188-.282-.315a4.688,4.688,0,0,1-.844-.377l-.073.066L65.7,20.21c-.07.066-.07.066-.141.128,0-.2-.212,0-.281-.128-.143,0-.284-.063-.423.066-.425-.129-.881.092-1.306-.1,0,.126-.282-.063-.282.126-.141.061-.348.057-.415.115h-.213a1.1,1.1,0,0,1-.813.409c-.141,0,0,.187-.141.187h-.141a7.024,7.024,0,0,1-1.059.941c0,.064-.143.123-.069.251,0,.064-.074.064-.143.064a.318.318,0,0,1-.14.25c0,.063,0,.126.071.126,0,.063-.109.222-.178.222-.07.25-.07.5-.283.628,0,.5-.147.742-.179,1.294a7.106,7.106,0,0,1,.074.994c.22.134-.055.126.092.321.073,0,.035.113.035.178.071.132.307.226.231.358,0,.066.123.123.2.123.074.131-.108.276.04.341,0,.064.235.015.16.144Zm4.6-4.083c-.142.068,0,.2-.142.265l.073.066a2.591,2.591,0,0,1-1.143,1.789c-.071,0-.142,0-.142-.066,0-.134-.145-.332-.071-.464,0-.066-.074-.066-.145-.066.145-.133-.1-.265-.021-.465-.074,0-.074-.064-.074-.132.216-.134.041-.473.255-.6l-.071-.068a2.074,2.074,0,0,1,.321-.472V23.1a2.828,2.828,0,0,1,1.018-.509c.073,0,.142,0,.142.061.214.27.071.531,0,.8" transform="translate(-27.31 -9.251)" fill="#1a1311"/>
      <path id="패스_22709" data-name="패스 22709" d="M85.532,22.937c.009.088.018.174.028.257.483.469.392,1.266.709,1.839-.153.2-.045.445-.11.63l.19.149c-.128.455.178.853.135,1.3-.08.1-.08.1-.156.2.009.085.018.173.1.164l-.076.1.1.076-.077.1c.085-.014.1.073.1.163-.154.191.129.421-.11.623a.315.315,0,0,1,.111.251c-.241.2-.093.578-.26.847l.087.082-.083.093-.09-.084c-.086,0-.083.093-.08.178.088.168.266.332.1.519l.088.079a1.107,1.107,0,0,0-.407.664l-.158.174a.294.294,0,0,1,.087.246c-.158.175-.236.345-.392.52,0,.082.088.246-.074.336l.084.081c-.08.171-.154.423-.229.6.081-.006.081.077.081.16-.238.18-.512.371-.425.7-.155.256-.356.343-.513.6.087.16-.282.237-.279.4s-.239.1-.154.258l.081.081c-.08.005-.08.005-.159.009a.4.4,0,0,1-.237.261c0,.083,0,.168-.079.171a2.936,2.936,0,0,0-.369.414c.082.08-.259.253-.181.256a.464.464,0,0,0-.2.322c-.079,0-.161-.006-.169.074l.006.109c-.056.057-.073.057-.19.083-.629.72-1.549,1-2.181,1.715-.167.079-.336.153-.5.227s-.114.325-.263.233c.007-.081-.217.074-.293.071-.177.158-.44.042-.6.031.006-.08-.089-.063-.164-.148l-.089.077a.854.854,0,0,0-.336-.263c-.073-.083.087-.171.005-.175l.092-.08c.008-.08-.128-.1-.208-.106-.144-.174.165-.043.1-.217l-.316-.024c-.074-.164-.228-.167-.293-.34.015-.162.369-.159.384-.328.16.011.113-.015.284-.092l-.06-.116c.172-.08.145-.22.224-.218,0,.084.062-.012.142-.008s.16.008.169-.074a.323.323,0,0,1,.1-.247c.08.008.08.008.16.012a3.276,3.276,0,0,0,.49-.506c.007-.082.007-.082.015-.165.087-.077.1-.244.273-.319-.008.084-.021.165.066.17.254-.154.1-.245.036-.413.089-.081.089-.081.178-.158-.009.083.134.018.055.015-.008.083.084-.2.164-.189.2-.308.053.056.349-.513.063-.063.214-.121.227-.162-.017-.008.19-.081.116-.167-.012-.066.02-.1-.15-.015.1-.163.379-.407.392-.575.236.1.048-.278.208-.27-.086.076-.167-.081-.165,0l.268-.008c.179-.158-.249-.149-.088-.329,0-.079-.026-.128-.1-.122-.006-.083-.023-.154.057-.155l.082.077c.077-.086-.076-.367.083-.459,0-.083,0-.167-.006-.252.24-.177.132-.148.206-.4l-.081-.077c0,.082.172-.076.093-.074V31.7c.159-.091.27-.643.265-.812,0,.167-.188-.38-.024-.305.233-.347.075-.809.11-1.233-.169-.061.13-.184.037-.337-.079.008-.159.018-.169-.064.073-.093.073-.093.141-.19-.007-.079-.015-.163-.1-.152-.009-.083-.015-.168.064-.176-.011-.083-.016-.165-.1-.155l.142-.188c-.009-.081-.087-.074-.167-.061.048-.343-.293-.587-.171-.94-.077.008-.087-.074-.1-.159.217-.279-.077-.613.057-.881-.167-.063-.1-.24-.122-.407.073-.09-.134-.173-.143-.255a5.875,5.875,0,0,1-.276-1.13c-.16.143-.275-1.159-.413-1.664-.208-.325-.069-.693-.2-1.028.087-.01.173-.021.166-.107-.115-.249.136-.368.2-.638.172-.021.334-.13.525.022.164-.106.063-.268.052-.355.343-.041.6-.076.949-.12.009.087.015.174.1.164.257-.032.364.127.621.1.01.09.016.175.1.165a.429.429,0,0,1,.363.132c.086-.013.172-.024.164-.107l.1.071.079-.1a.3.3,0,0,0,.265.052c.1.078.12.336.285.231a20.776,20.776,0,0,1,1.236,1.859" transform="translate(-35.449 -9.339)" fill="#1a1311"/>
      <path id="패스_22710" data-name="패스 22710" d="M21.18,20.278c-.028-.139-.228-.18-.31-.182s-.241.172-.321.035a1.363,1.363,0,0,1-.3.342.489.489,0,0,1-.283.067c-.041.213-.065.236.121.732.085.016.172.49.264.513-.04-.182.245.392.337.474l.118.029c.058.016.029.07,0,.12l.257.184c.027.069.082.089.021.189a1.39,1.39,0,0,1,.49.205c.058.023.022.07-.012.12.055.023.109.048.145,0,.142,0,.04.146.062.215l.088-.022c.021.072.132.12.132.12.172.26,1.014.58,1.223.818l.082-.041c.066.136.433.162.433.341l.079-.048c.039.066.594.171.749.254.077-.048-.035-.132.051-.172.092.076.284.253.371.336a3.3,3.3,0,0,1,.412.057c.216.229.66.087.923.206a.186.186,0,0,0,.147.1l.083-.042.033.066c.165-.084.253,0,.363-.1l.033.068.081-.044.064.138c.23.049.438.156.686.031a.179.179,0,0,0,.147.092c.081-.042.081-.042.166-.08.171.037.2.1.4.089l.03.069a.841.841,0,0,1,.65-.037c.05-.107.173.041.222-.07l.032.069c.2-.139.49-.068.685-.074l.029.069c.086-.039.051.006.051.006.167-.079.573-.083.685-.174a.89.89,0,0,0,.533.061c.066.015.2.044.253.063a.607.607,0,0,1,.7-.037,4.022,4.022,0,0,0,.871-.367c.064.016.129.036.191.056.1-.036.159-.015.223-.12a2.974,2.974,0,0,0,.742-.368c.028.071.189-.062.219,0l.066-.1c.125.038.218-.12.345-.081.033-.049.033-.049.063-.1.2-.064.116-.114.306-.179.162-.11.392-.489.761-.654-.01-.123.236-.19.293-.293.029-.054.093-.041.156-.028l-.036-.068c.09-.041.063-.219.15-.14.023-.055.133-.2.078-.206.182-.142.179-.606.445-.663l.046-.109c.107-.141.066-.4.126-.442.022-.051-.008-.091.048-.077.069-.213.118-.536.182-.823-.055-.01-.031-.065-.006-.121.051.013.074-.043.1-.1-.053-.013-.03-.069-.008-.122l.076-.042c-.108-.024.015-.173-.1-.2l.075-.044c-.093-.262.042-.526-.05-.783l.071-.043a.344.344,0,0,1,0-.458.2.2,0,0,1,0-.179c-.146-.092.034-.191-.058-.272.052-.164-.131-.326-.02-.481-.071-.135-.086-.2-.164-.324.015-.058.031-.115.046-.171-.053-.011-.111-.023-.1-.079.087-.1-.01-.179.023-.293-.11-.019-.052-.116-.09-.181a1.6,1.6,0,0,0-.293-.793c.075-.11-.079-.552-.07-.693l-.109-.056a.475.475,0,0,0-.2-.293c.006-.071.006-.071.009-.138-.055,0-.112-.006-.1-.075l.006-.139-.062.066a.4.4,0,0,1-.14-.354c-.2-.287-.282-.49-.571-.912-.115.071-.006-.215-.143-.151a1.583,1.583,0,0,0-.49-.659c.008-.068.008-.068.013-.14h-.127c-.065,0-.056-.071-.048-.139-.364-.222-1.655-.4-1.852-.759-.115,0-.223-.079-.293.062l-.1-.144c-.3.2-.556-.159-.835-.237l-.062.066c-.1-.211-.285-.008-.4-.009a.168.168,0,0,0-.162-.077c-.293.131-.567-.017-.823.327l-.05-.074.649,1.191a5.188,5.188,0,0,0,.338,1.188c.058.011.132.146.172.223-.015.064-.015.064-.028.132.085.155.171.311.256.469-.057-.014-.073.05-.088.118.069.221.068.46.133.675.091.079-.015.128.084.229.012.01-.06.139-.045.147a.346.346,0,0,0,.028.239c.034.24.021.048.188.22-.154.183.1.49-.048.667.081.086.084-.035.11.032-.028.048-.028.048-.053.1s.025.07.08.092c.053.133-.044.212.027.343.054.012,0,.179.059.191.016.122.168.16.022.244-.054-.015-.022.23-.078.392a1.038,1.038,0,0,1-.018.4c.056.013.093-.054.074,0s-.018.054-.037.108c.054.012.048.112.028.164,0,.173-.112.262-.169.423-.063.348.119.634-.118.759.084.076-.021.169-.044.225-.079.037-.057.207-.13.25-.088.214-.132.2-.219.416-.145.083-.168.177-.311.26-.023.051-.023.051-.045.105s-.073.041-.121.03c-.1.1-.421.247-.467.349l.03.067a2.289,2.289,0,0,0-.469.22c-.214.128-.372.131-.6.244-.2-.056-.36.089-.556.034-.075.041-.149.081-.224.114-.1-.025-.245.05-.318-.028-.1-.024-.076.154-.173.131l-.1-.029-.024-.066c-.149.079-.268-.016-.418.061l-.022-.062c-.15.074-.273-.01-.367.086a1.17,1.17,0,0,0-.617-.07c.021-.056-.026-.065-.078-.073l-.071.044c.022-.054-.419-.023-.468-.028l-.1-.018-.031-.065-.07.044c-.079-.071-.606-.125-.732-.26-.1.1-.2.052-.311.029a5.24,5.24,0,0,1-1.111-.25l-.035-.069a.44.44,0,0,1-.507-.136c-.058-.014-.137-.02-.2-.037-.061-.14-.432-.114-.48-.252a1.836,1.836,0,0,1-.264-.224c-.122.074-.429-.294-.49-.315l-.2-.008L21.7,20.7,21.43,20.5c-.11-.205-.222-.043-.259-.218" transform="translate(-9.14 -5.135)" fill="#1a1311"/>
      <path id="패스_22711" data-name="패스 22711" d="M28.6,9.833c.076,0,.154.007.225.011.366.373,1.084.264,1.566.5.19-.138.4-.056.569-.119.058.074.058.074.114.151.419-.125.643.084,1.041.056.1-.062.1-.062.2-.126.074.009.148.021.126.089l.1-.064.051.079.1-.06c-.024.07.05.079.126.084.2-.12.312.044.532-.141a.242.242,0,0,0,.2.1c.222-.186.3.009.571-.078l.048.084.1-.053-.043-.084c.024-.069.1-.051.172-.035.119.1.2.252.407.159l.041.083c.129-.09-.86-.134.685-.184l.2-.088a.235.235,0,0,0,.176.121c.2-.09.364-.116.56-.2.069.017.177.118.305.011l.039.08c.168-.022.4-.031.569-.054-.025.063-.11-.087-.045-.057.237-.12.494-.26.715-.084.264-.029.379-.162.645-.181.085.125.3-.12.426-.052s.128-.113.211.015l.022.09c.04-.053.04-.053.079-.112a.355.355,0,0,0,.3-.064c.061.035.121.074.161.017a2.868,2.868,0,0,1,.472-.1c.023.1.166-.045.129.015a.392.392,0,0,1,.322.027c.037-.055.077-.11.139-.076l.071.055c.071-.011.076-.022.159-.086.823-.073,1.282-.475,2.1-.475.143-.066.286-.129.43-.2s.272.109.293-.038c-.056-.04.168-.1.213-.15.2-.021.324-.37.405-.481-.059-.04,0-.09-.014-.188l.1-.016a1.709,1.709,0,0,1,0-.546c-.017-.093-.161-.034-.122-.09l-.031-.07c-.057-.04.017-.141.059-.2-.039-.2-.212.024-.293-.112l.149-.221c-.068-.135-.371-.214-.489-.293-.081.114-.075.069-.216.139l-.048-.1c-.141.075-.224-.015-.264.038.06.038-.04.033-.076.086s-.082.113-.142.072A.294.294,0,0,0,43,6.667c-.041.059-.041.059-.079.109a3.171,3.171,0,0,1-1.387-.032l-.2.049c.065.034-.05.106-.014.047.062.034-.181-.032-.218.028-.318,0-1.017.067-.881-.014-.161-.006-.475.076-.6.013-.047.206-.271-.116-.341,0,.1-.027-.125-.041-.06-.012l.008.082c-.2.061-.211-.125-.408-.053-.067-.03-.1-.062-.063-.12-.068-.025-.114-.064-.145,0l.031.085c-.1.036-.264-.164-.4-.073l-.2-.08a1.605,1.605,0,0,1-.709.142L37.3,6.76c.068.015-.114.125-.09.058l-.139-.028a1.353,1.353,0,0,1-.759.077c.139.032-.282-.242-.258-.1C35.7,6.906,35.3,6.7,34.92,6.7c-.023-.143-.181.1-.3.006.024-.067.045-.132-.023-.144-.1.053-.162.03-.256.087-.071-.009-.144-.017-.12-.083-.074-.009-.146-.017-.166.046-.071-.01-.143-.019-.122-.082-.092.052-.186.125-.276.184-.07-.007-.053-.074-.036-.138-.309.044-.484-.234-.808-.129.017-.062-.051-.068-.128-.075-.271.179-.654-.016-.905.112-.043-.133-.2-.068-.349-.07-.087.063-.145-.1-.216-.1a5.434,5.434,0,0,0-.979-.148c.138-.138-1.007-.144-1.445-.223-.274-.149-.61-.011-.9-.088-.016.071-.032.142-.108.141-.212-.074-.34.138-.587.206-.031.142-.188.211-.145.334-.106.14-.122.164-.2.163-.063.285-.114.256-.187.538.075.008.153.01.133.08-.056.211.076.293.019.5.074.006.153.008.133.079a.3.3,0,0,0,.077.294c-.018.07-.037.141-.112.137l.055.074-.1.068a.213.213,0,0,1,.019.215c.058.075.284.087.173.225a15.006,15.006,0,0,0,1.521.932" transform="translate(-12.228 -2.682)" fill="#1a1311"/>
    </g>
  </g>
</svg>
