<svg xmlns="http://www.w3.org/2000/svg" xmlns:xlink="http://www.w3.org/1999/xlink" width="225.672" height="86.262" viewBox="0 0 225.672 86.262">
  <defs>
    <clipPath id="clip-path">
      <rect id="사각형_413" data-name="사각형 413" width="6.571" height="11.514" fill="#54362b"/>
    </clipPath>
  </defs>
  <g id="그룹_1379" data-name="그룹 1379" transform="translate(-3513.748 -4113.278)">
    <path id="패스_21901" data-name="패스 21901" d="M1.838,17.022a12.771,12.771,0,0,1,1.02-.944A2.018,2.018,0,0,1,3.7,15.7a6.282,6.282,0,0,1,1.25-.1q3.316,0,4.234,3.469a4.412,4.412,0,0,1-.153,2.883A4.807,4.807,0,0,1,7.3,24.164a7.543,7.543,0,0,1-2.525,1.148A4.028,4.028,0,0,1,2.2,25.133,3.437,3.437,0,0,1,.359,23.194a4.581,4.581,0,0,1-.179-3.06,8.156,8.156,0,0,1,1.658-3.112m4.8,1.632q-1.53-1.531-2.959-.765T2.246,21a4.131,4.131,0,0,0,.1,1.071,1.257,1.257,0,0,0,.306.561,3.062,3.062,0,0,0,.663.459,2.435,2.435,0,0,0,1.173.255,3.91,3.91,0,0,0,1.378-.612,2.723,2.723,0,0,0,1.658-1.888,2.513,2.513,0,0,0-.892-2.193M13.01,31.1a16.931,16.931,0,0,1,2.959-.179,1.649,1.649,0,0,1,1.123.485.99.99,0,0,1,.28.842,5.176,5.176,0,0,1-.638,1.4,8.6,8.6,0,0,0-.867,1.811q0,.23,1.378.485a8.4,8.4,0,0,1,3.061,1.48,4.781,4.781,0,0,1,1.25,1.1,1.234,1.234,0,0,1,.178.943.945.945,0,0,1-1.173.715A11.854,11.854,0,0,1,17.4,39.059a5.4,5.4,0,0,0-2.653-.765,2.413,2.413,0,0,0-.714.612,5.456,5.456,0,0,0-.816,1.224,3.465,3.465,0,0,1-1.5,1.658q-.741.28-1.2-.637a1.576,1.576,0,0,1-.077-1.173,11.317,11.317,0,0,1,1.1-2.347,17.1,17.1,0,0,0,1.836-3.979q.306-.918.153-1.02a30.073,30.073,0,0,0-4.387.612q-2.448.409-2.3-.408L7,32.53q.153-.356,2.041-.791A31.467,31.467,0,0,1,13.01,31.1m7.959-20.916q1.478-.612,1.811.077a15.252,15.252,0,0,1,.383,4.259,53.022,53.022,0,0,1-.563,9.44q-.919,5.866-1.939,5.917-.612,0-1.326-1.837-.663-1.428-.357-6.632a74.987,74.987,0,0,1,.689-8.341q.433-2.525,1.3-2.882" transform="translate(3573.924 4103.869)" fill="#54362b"/>
    <path id="패스_21902" data-name="패스 21902" d="M65.516,24.519a3.247,3.247,0,0,1,1.964-.281q.943.179,1.046.842a8.657,8.657,0,0,1-.868,3.214,19.731,19.731,0,0,1-1.785,3.826q-.562.868-.434,1.2t1.352,1.071a5.8,5.8,0,0,1,1.964,1.938,4.577,4.577,0,0,1,.74,2.423q0,.97-.791,1.046a1.721,1.721,0,0,1-1.5-.892,5.971,5.971,0,0,0-1.684-1.632,3.748,3.748,0,0,0-1.684-.816q-.256,0-.714.51a8.089,8.089,0,0,0-.867,1.173q-1.122,1.633-1.99,1.53-1.48-.2-.561-2.194.509-.918,1.479-2.449,3.367-4.947,3.367-7.3c0-.374-.094-.594-.281-.663a3.221,3.221,0,0,0-1.25.051.868.868,0,0,1-.357.051,44.5,44.5,0,0,1-4.514.536q-.638-.026-.638-.791v-.1a1.112,1.112,0,0,1,.663-1.173,18.993,18.993,0,0,1,3.622-.51,18.437,18.437,0,0,0,3.724-.612M79.086,21.2a2.967,2.967,0,0,1,1.556-.28q.433.128.791.943.408.97.408,10.713v9.642H80.616a3.055,3.055,0,0,1-.969-.153,2.157,2.157,0,0,1-.791-.459,3.119,3.119,0,0,1-.561-.689,2.071,2.071,0,0,1-.28-.842q0-.2-.2-2.959-.052-2.5.153-8.825.153-4.8.331-5.79a1.664,1.664,0,0,1,.791-1.3" transform="translate(3542.179 4097.8)" fill="#54362b"/>
    <path id="패스_21903" data-name="패스 21903" d="M121.567,14.9a3.284,3.284,0,0,1,3.545.306,4.317,4.317,0,0,1,1.454,3.571,4.636,4.636,0,0,1-.408,1.786,6.913,6.913,0,0,1-1.1,1.785,4.851,4.851,0,0,1-1.352,1.173,4.713,4.713,0,0,1-2.806.357,5.048,5.048,0,0,1-2.6-.867,2.748,2.748,0,0,1-.74-1.836,4.173,4.173,0,0,1,.485-2.244,16.23,16.23,0,0,1,1.786-2.372,7.989,7.989,0,0,1,1.735-1.658m2.4,2.6a1.534,1.534,0,0,0-1.53-.868,2.1,2.1,0,0,0-1.785,1.072,4.486,4.486,0,0,0-.714,2.55,1.588,1.588,0,0,0,.28,1.072,2.938,2.938,0,0,0,1.046.612,2.155,2.155,0,0,0,1.25.179,4.693,4.693,0,0,0,1.25-.893,2.919,2.919,0,0,0,.893-1.581,5.685,5.685,0,0,0-.689-2.142M122.23,29.9q.2-.509,1.224-.51,2.3,0,2.3,4.643,0,2.7.357,3.01a4.456,4.456,0,0,0,2.244-.306A8.035,8.035,0,0,1,132,36.655q1.759.383,1.913,1.352.1.815-.2.918c-.069,0-.247.008-.536.026s-.689.043-1.2.077-1,.051-1.479.051q-2.654.255-3.724.332a11.919,11.919,0,0,1-1.913,0,1.767,1.767,0,0,1-1.021-.28,6.74,6.74,0,0,1-.485-.663,8.279,8.279,0,0,1-.51-3.367,12.009,12.009,0,0,0-.409-3.52,2.608,2.608,0,0,1-.2-1.684m18.314,2.551a7.014,7.014,0,0,1,2.194-.153,5.953,5.953,0,0,1,1.607.128c.22.085.332.3.332.637a1.184,1.184,0,0,1-.408,1.046.794.794,0,0,1-.969-.127q-.459-.408-2.959-.051-5.509.918-5.509-.153a.771.771,0,0,1,.612-.765A12.642,12.642,0,0,1,138.1,32.7a8.572,8.572,0,0,0,2.449-.255M136.768,27.8a7.065,7.065,0,0,1,1.76-.841,6.731,6.731,0,0,1,1.811.535q1.887.612,2.092,1.48a.3.3,0,0,1-.153.408,12.488,12.488,0,0,1-3.774.051q-3.266-.2-3.265-.459,0-.357,1.53-1.174m.817,9.539a4.151,4.151,0,0,1,2.4-.485,4.676,4.676,0,0,1,2.449.536,2.514,2.514,0,0,1,.765,2.143,3.587,3.587,0,0,1-1.25,2.729,4.2,4.2,0,0,1-2.933,1.148,3.3,3.3,0,0,1-1.428-.2,2.2,2.2,0,0,1-.715-1.071,4.719,4.719,0,0,1-.28-2.679,3.07,3.07,0,0,1,.995-2.117m1.479-28.057a1.266,1.266,0,0,1,1.148-.459,1.71,1.71,0,0,1,1.2.561,6.206,6.206,0,0,1,.255,2.933,17.436,17.436,0,0,1-.51,3.9.477.477,0,0,0,.383.612,13.216,13.216,0,0,0,2.168.306,9.42,9.42,0,0,1,3.035.612.937.937,0,0,1,.536,1.224.72.72,0,0,1-.613.612,9.353,9.353,0,0,1-2.091.153q-3.01,0-3.545.459T140.7,23a10.126,10.126,0,0,1,.1,2.321,1.194,1.194,0,0,1-.715.791,1.027,1.027,0,0,1-.867.178,3.563,3.563,0,0,1-1.02-.74,5.842,5.842,0,0,1-.535-.689,4.191,4.191,0,0,1-.357-.74,4.488,4.488,0,0,1-.255-1q-.076-.536-.127-1.4a33.528,33.528,0,0,1,.536-7.091q.689-4.132,1.607-5.357m2.193,29.792a.947.947,0,0,0-.74-.561,1.009,1.009,0,0,0-.893.2q-.306.306-.255,1.658c.033.9.153,1.352.357,1.352q.46,0,1.1-1.046a2.029,2.029,0,0,0,.434-1.607" transform="translate(3509.033 4104.462)" fill="#54362b"/>
    <path id="패스_21904" data-name="패스 21904" d="M196.487,24.789a1.909,1.909,0,0,1,1.02-.561q.357,0,.995.689a1.947,1.947,0,0,1,.638,1.046q.56,9.335,1.173,10.764l.459,1.224,4.694-.306q4.846-.255,5.306-.357c.135-.033.263.051.382.255a1.93,1.93,0,0,1,.23.765,1.531,1.531,0,0,1-.077.969,1.261,1.261,0,0,1-.842.459,3.068,3.068,0,0,1-1.989-.153,5.448,5.448,0,0,0-2.959-.051q-2.5.255-8.876.408-4.49.1-5.663,0t-1.275-.51a.565.565,0,0,1,.357-.612,5.464,5.464,0,0,1,1.48-.357q2.142-.2,3.01-.2,1.377,0,1.709-.536a3.806,3.806,0,0,0-.026-2.321,43.8,43.8,0,0,1-.51-6.02,25.025,25.025,0,0,1,.077-3.469,1.552,1.552,0,0,1,.689-1.122m3.265-10.1q4.692-.662,6.53,0a1.643,1.643,0,0,1,.918.765,7,7,0,0,1,.2,2.194,35.028,35.028,0,0,1-.663,6.122q-.153.816-.306,1.76t-.306,1.862q0,.1-.816.1a1.312,1.312,0,0,1-1.1-.485,3.582,3.582,0,0,1-.535-1.709,34.113,34.113,0,0,1-.153-3.826l-.1-4.9h-2.5a32.924,32.924,0,0,0-4.642.306q-.765.1-1.148.128a3.748,3.748,0,0,1-.637,0q-.255-.026-.255-.153v-.332a.893.893,0,0,1,.587-.663,8.557,8.557,0,0,1,1.684-.51q1.148-.254,3.239-.663" transform="translate(3469.21 4101.407)" fill="#54362b"/>
    <path id="패스_21905" data-name="패스 21905" d="M281.541,25.182a10.8,10.8,0,0,1,2.3-.153q2.755-.05,3.163,1.76t-1.28,6.711a26.7,26.7,0,0,1-2.194,5.459q-.663.868-1.939-.051a1.809,1.809,0,0,1-.663-1.53,13.485,13.485,0,0,1,.816-3.52,13.669,13.669,0,0,0,.765-5q-.052-1.632-.408-1.811a6.507,6.507,0,0,0-2.449.179,4,4,0,0,1-1.327.127c-.171-.051-.255-.263-.255-.638a.863.863,0,0,1,.306-.739,3.207,3.207,0,0,1,1.275-.383q1.785-.357,1.887-.409M299.7,18.6a1.9,1.9,0,0,1,1.76-.51,1.544,1.544,0,0,1,.995,1.326,42.75,42.75,0,0,1,.28,5.943q.025,4.617-.229,9.769l-.2,5.917H301.13a2.027,2.027,0,0,1-1.836-.969,6.8,6.8,0,0,1-.536-2.653q-.128-1.938-.026-8.264.153-7.142.28-8.647A2.629,2.629,0,0,1,299.7,18.6" transform="translate(3235.681 4152.316)" fill="#54362b"/>
    <path id="패스_21906" data-name="패스 21906" d="M340.731,19.512a10.1,10.1,0,0,1,.918-1.122,1.918,1.918,0,0,1,.74-.485,3.875,3.875,0,0,1,1.147-.128,3.121,3.121,0,0,1,1.454.306,6.28,6.28,0,0,1,1.4,1.122,5.078,5.078,0,0,1,1.556,4.719,5.721,5.721,0,0,1-3.036,4.106,6.311,6.311,0,0,1-1.709.689,2.375,2.375,0,0,1-1.25-.23,4.343,4.343,0,0,1-3.01-3.469q-.306-2.346,1.785-5.509m5.2,3.316A2.916,2.916,0,0,0,345.6,21.5a2.343,2.343,0,0,0-1.046-.816,2.87,2.87,0,0,0-1.887-.51q-.97.256-1.429,2.423t.357,2.933a1.826,1.826,0,0,0,1.658.485,3.432,3.432,0,0,0,1.913-.841,2.875,2.875,0,0,0,.766-2.347m5.254,11.325a21.221,21.221,0,0,1,4.157-.51q2.117-.05,2.525.408a8.666,8.666,0,0,1,.383,3.214,22.236,22.236,0,0,1-.179,4.234q-.458,2.244-1.632,2.193-1.021,0-1.53-1.938a7.126,7.126,0,0,1-.2-2.143v-.255a11.659,11.659,0,0,0-.077-3.418q-.23-.459-1.71-.255h-.153q-.816.1-3.52.51-1.53.2-1.53-.1a1.265,1.265,0,0,1,.765-1.1,10.411,10.411,0,0,1,2.7-.841m9.9-21.12a2.067,2.067,0,0,1,1.5-.561,1.3,1.3,0,0,1,1.148.765q.407.816.051,6.555a64.486,64.486,0,0,1-1.02,8.851,11.753,11.753,0,0,1-1.02,3.188,1.516,1.516,0,0,1-1.326.841q-.817,0-1.021-1.275a34.1,34.1,0,0,1-.1-5.1,23.767,23.767,0,0,0-.1-4.387,5.555,5.555,0,0,0-1.581.663,8.27,8.27,0,0,1-3.52.765q-2.092.052-2.244-.663-.052-.2.28-.433a3.711,3.711,0,0,1,1.1-.434q.765-.2,1.964-.459t3.035-.561h.2a1.2,1.2,0,0,0,1.1-.689,25.846,25.846,0,0,0,.638-3.851c.034-.237.068-.425.1-.561a5.045,5.045,0,0,1,.816-2.653" transform="translate(3202.1 4155.385)" fill="#54362b"/>
    <path id="패스_21907" data-name="패스 21907" d="M404.668,21.5l5.1-.153q1.683-.05,2.755-.026a4.886,4.886,0,0,1,1.3.128.361.361,0,0,1,.23.357q0,.765-.995,1.122A24.015,24.015,0,0,1,409,23.7q-8.009.918-8.417-.2a.985.985,0,0,1,.561-1.377,10.357,10.357,0,0,1,3.52-.612m.51,6.836a5.16,5.16,0,0,1,1.913-1.224,2.657,2.657,0,0,1,1.709.357,5.174,5.174,0,0,1,2.3,2.449,3.14,3.14,0,0,1,.051,2.857,4.308,4.308,0,0,1-2.78,1.811,3.885,3.885,0,0,1-3.24-.076,3.335,3.335,0,0,1-.995-1.4A5.233,5.233,0,0,1,403.7,31a2.665,2.665,0,0,1,.331-1.378,5.652,5.652,0,0,1,1.148-1.275M406.963,5.7a1.571,1.571,0,0,1,1.275-.408q.714.1.817,3.6a47.256,47.256,0,0,1-.332,7.065q-.434,3.572-1.046,3.826-.918.306-1.428-.918a13.509,13.509,0,0,1-.663-4.081,29.31,29.31,0,0,1,.255-5.841q.408-2.678,1.122-3.239m1.531,24.129a2.653,2.653,0,0,0-1.582-.357q-.868,0-1.071.484a3.446,3.446,0,0,0,.2,1.913A1.447,1.447,0,0,0,406.984,33a1.748,1.748,0,0,0,1.506-.357,1.624,1.624,0,0,0,.765-1.429,1.5,1.5,0,0,0-.765-1.378M420.58,15.7a1.284,1.284,0,0,1,1-.587,2.238,2.238,0,0,1,1.2.638,2.382,2.382,0,0,1,.587,1.4,35.425,35.425,0,0,1,.128,3.8v4.54l2.7-.153q2.6-.306,3.163.306.612.765.127,1.275a2.752,2.752,0,0,1-1.964.51,9.52,9.52,0,0,0-3.112.459q-.97.358-1.123.791a12.546,12.546,0,0,0-.153,2.678,12.107,12.107,0,0,1-.306,3.571,1.33,1.33,0,0,1-1.377.714,2.541,2.541,0,0,1-1.25-.23q-.382-.229-.586-1.5a18.151,18.151,0,0,1-.179-3.086q.025-1.81.179-5.841.459-8.519.969-9.285" transform="translate(3168.107 4159.361)" fill="#54362b"/>
    <path id="패스_21908" data-name="패스 21908" d="M473.5,16.966a13.4,13.4,0,0,1,3.6-.357,5.19,5.19,0,0,1,2.678.561,1.63,1.63,0,0,1,.586,1.021,14.865,14.865,0,0,1,.077,2.6,26.711,26.711,0,0,1-.637,5.05,8.081,8.081,0,0,1-1.148,3.265q-.409.409-1.53,0-1.174-.408-1.072-1.377.153-1.785.561-5a17.259,17.259,0,0,0,.153-4.234q-.306-.408-2.4-.1-2.754.306-2.958-.357-.1-.306.663-.612a6.431,6.431,0,0,1,1.429-.459M487.018,31.1a1.265,1.265,0,0,1,.816-.433,1.99,1.99,0,0,1,.918.586,2.053,2.053,0,0,1,.051,2.908q-.663.715-.663,1.046t2.7,1.964a16.443,16.443,0,0,1,2.7,1.836,1.637,1.637,0,0,1-.382.969q-.383.509-.74.51a7.86,7.86,0,0,1-2.449-1.071,4.253,4.253,0,0,0-2.55-.842q-.765.18-1.173,1.709a3.859,3.859,0,0,1-.561,1.352,1.249,1.249,0,0,1-.918.434q-1.328.153-1.326-.969a15.778,15.778,0,0,1,1.428-4.489,24.105,24.105,0,0,0,1.632-4.54,1.313,1.313,0,0,1,.51-.969m9.029-17.752a1.465,1.465,0,0,1,.715-.459,2.382,2.382,0,0,1,1.02.2q.714.255.663,2.423A28.334,28.334,0,0,1,497.629,21q-.918,4.541-1.02,5.152-.46,2.7-2.6,1.938a1.228,1.228,0,0,1-.816-.765,10.361,10.361,0,0,1-.051-2.551q.2-3.009-.306-3.112a10.547,10.547,0,0,0-3.265.459,24.8,24.8,0,0,1-3.418.561,2.87,2.87,0,0,1-1.684-.357q-.918-.56.817-1.173,1.07-.306,3.519-.867,1.734-.357,2.423-.536a16.293,16.293,0,0,0,1.582-.51q.892-.331,1.1-.434a1.853,1.853,0,0,0,.535-.586,3.246,3.246,0,0,0,.434-.816q.1-.331.255-1.148a10.565,10.565,0,0,1,.918-2.908m1.632,19.844q1.378-2.346,2.245-1.964t.051,2.984a.87.87,0,0,0,.459,1.275,11.721,11.721,0,0,1,2.806,1.837,10.336,10.336,0,0,1,2.245,2.193q.867,1.581-.459,1.48a12.025,12.025,0,0,1-4.234-1.938q-.664-.357-.969-.561a1.618,1.618,0,0,0-.688-.255c-.255-.033-.426-.008-.51.077a2.192,2.192,0,0,0-.331.612,8.894,8.894,0,0,0-.357,1.02q-.153.536-.357,1.658-.511,2.55-.816,2.551a1.975,1.975,0,0,1-1.454-.587,1.917,1.917,0,0,1-.587-1.4,15.353,15.353,0,0,1,.97-4.234,28.454,28.454,0,0,1,1.989-4.744m6.02-20.3a3.233,3.233,0,0,1,1.53-.408.563.563,0,0,1,.637.51,21.425,21.425,0,0,1-.127,3.061,33.384,33.384,0,0,1-.918,6.071q-.153.511-.357,1.454t-.408,1.632q-.2.689-.306,1.148-.663,2.755-2.4,1.786-1.633-.919-.867-3.418.408-1.479,1.071-5.458a34.443,34.443,0,0,1,.969-4.719A2.933,2.933,0,0,1,503.7,12.9" transform="translate(3128.964 4155.38)" fill="#54362b"/>
    <path id="패스_21909" data-name="패스 21909" d="M571.54,18.751a6.28,6.28,0,0,1,2.525-.23,4.4,4.4,0,0,1,2.168.383q.255.256-.255,1.275a2.152,2.152,0,0,1-1.4,1.224,2.632,2.632,0,0,1-1.964-.153q-.817-.459-6.581-.255a57.4,57.4,0,0,0-8.774.816q-3.164.612-3.163-.1,0-.255.459-.714.612-.663,4.49-1.224a58.791,58.791,0,0,1,7.6-.612q4.132,0,4.9-.408M565.724.488q.764-.765,1.25-.332t-.485,2.627Q565.213,5.9,565.928,5.9a.458.458,0,0,0,.2-.051q.713-.255,4.132,1.99t3.52,3.01a.843.843,0,0,1-.076.715.82.82,0,0,1-.638.2,3.408,3.408,0,0,1-1.632-.408q-1.53-.765-5.152-2.3a5.87,5.87,0,0,0-1.454-.408c-.221,0-.451.171-.689.51a7.092,7.092,0,0,0-1.02,2.6,19.308,19.308,0,0,1-.561,2.066,3.3,3.3,0,0,1-.357.74,1.221,1.221,0,0,1-.561.357.876.876,0,0,1-.944-.153,1.793,1.793,0,0,1-.587-1.02,4.485,4.485,0,0,1-.051-1.53,21.676,21.676,0,0,1,.918-2.933q.662-1.76,1.479-3.443t1.684-3.163A11.123,11.123,0,0,1,565.724.488M571.59,23.9a2.93,2.93,0,0,1,.893-.969q.279-.1.995.357a.941.941,0,0,1,.332.791,16.21,16.21,0,0,1-.229,2.372,27.653,27.653,0,0,1-2.117,5.866Q569.8,35.89,569.04,36.3q-.612.153-3.673.459l-2.959.255-.306-2.4a37.977,37.977,0,0,1-.2-5.688,13.2,13.2,0,0,1,.51-4,1.953,1.953,0,0,1,1.429-1.122q.765-.153.867.2a11.412,11.412,0,0,1,0,2.3,9.772,9.772,0,0,0,.026,2.3.756.756,0,0,0,.638.561q.306,0,.995.051a6.991,6.991,0,0,1,.893.1,5.678,5.678,0,0,1,.663.051,4.847,4.847,0,0,0,2.142.051q.357-.2.51-1.581a.35.35,0,0,1,.026-.153.359.359,0,0,0,.025-.153v-.2a8.987,8.987,0,0,1,.969-3.418m-2.346,7.7q-.307-.356-2.066-.485t-2.066.179a1.582,1.582,0,0,0-.1,1.02,3.828,3.828,0,0,0,.459,1.3q.357.637.714.689a2.758,2.758,0,0,0,2.653-.689q1.121-1.045.408-2.015" transform="translate(3083.314 4162.268)" fill="#54362b"/>
    <path id="패스_21910" data-name="패스 21910" d="M610.254,23.475a1.718,1.718,0,0,1,2.092.1,1.842,1.842,0,0,1,.51,1.326q.05.918-.153,4.081-.256,4.847,0,5.3.255.511,3.979.153a43.115,43.115,0,0,1,5.586-.357.969.969,0,0,1,.995.969,1.138,1.138,0,0,1-.51,1.3,5.89,5.89,0,0,1-2.6.383q-2.092,0-6.121.408a30.173,30.173,0,0,1-3.291.23q-.842-.026-1.046-.332-.409-.662-.153-6.989t.714-6.581m18.671-3.316a1.961,1.961,0,0,1,1.428-.306,1.743,1.743,0,0,1,1.276.663,4.427,4.427,0,0,1,.459,2.193q.1,1.787.051,6.734-.153,7.7-.459,10.968l-.306,2.7-1.479.1a1.8,1.8,0,0,1-2.041-1.148,14.908,14.908,0,0,1-.2-5.076q.357-5.51.51-10.2.255-6.376.765-6.632" transform="translate(3052.761 4151.319)" fill="#54362b"/>
    <path id="패스_21911" data-name="패스 21911" d="M670.749,25.3a39.645,39.645,0,0,1,4.846-.663,1.629,1.629,0,0,1,1.48.714q.713,1.224-1.276,1.632a27.588,27.588,0,0,1-4.54.408q-5.459.306-5.458-.459a.886.886,0,0,1,.255-.459q.408-.407,4.694-1.173m-1.429,4.744a1.043,1.043,0,0,1,1.377-.255q.765.358,1.021,3.316a13.818,13.818,0,0,0,.51,3.367q.306.46,4.03.1,5.051-.408,5.612,0,.407.358.2,1.275a1.451,1.451,0,0,1-1.173.842,50.408,50.408,0,0,1-5.051.586,5.917,5.917,0,0,0-.714.051q-1.531.1-2.168.178a10.691,10.691,0,0,1-1.556.051q-.919-.025-1.173-.051a1.785,1.785,0,0,1-.715-.332,1.523,1.523,0,0,1-.535-.484,5.433,5.433,0,0,1-.2-.893,7.011,7.011,0,0,1-.127-1.2q0-.484.051-1.709V34.48q0-3.775.612-4.438m19.844-8.672a1.88,1.88,0,0,1,1.4-.637,1.016,1.016,0,0,1,.994.689,30.3,30.3,0,0,1,.459,5.2l.255,4.438,3.214-.255a10.78,10.78,0,0,1,3.545.1,1.3,1.3,0,0,1,.944,1.378.654.654,0,0,1-.434.612,6.3,6.3,0,0,1-1.658.357q-.715.052-2.168.255l-1.811.255-1.734.255v4.132q0,4.132-.306,4.693a1.674,1.674,0,0,1-1.275.714,2.5,2.5,0,0,1-1.581-.306,2.636,2.636,0,0,1-.612-1.632q-.153-1.224-.255-5.917-.307-13.161,1.02-14.335" transform="translate(3021.651 4150.824)" fill="#54362b"/>
    <path id="패스_21912" data-name="패스 21912" d="M749.374,67.237q1.734-.663,2.6.2a1.76,1.76,0,0,1,.408,1.785,3.5,3.5,0,0,1-1.582,1.785,5.049,5.049,0,0,1-1.046.561,1.235,1.235,0,0,1-.689-.153,2.373,2.373,0,0,1-1.02-1.1,1.974,1.974,0,0,1-.2-1.352,2.226,2.226,0,0,1,1.53-1.735" transform="translate(2976.387 4125.311)" fill="#54362b"/>
    <g id="그룹_1280" data-name="그룹 1280" transform="translate(3555.087 4113.734)">
      <g id="그룹_1279" data-name="그룹 1279" clip-path="url(#clip-path)">
        <path id="패스_21915" data-name="패스 21915" d="M6.455.8a1.636,1.636,0,0,1,.1.885.913.913,0,0,1-.622.754A4.26,4.26,0,0,0,3.981,3.9a3.221,3.221,0,0,0-.508,2.015,2.735,2.735,0,0,1,.868.147,2.088,2.088,0,0,1,.786.475,2.6,2.6,0,0,1,.573.852A3.1,3.1,0,0,1,5.93,8.63a2.71,2.71,0,0,1-.835,2.146,2.9,2.9,0,0,1-1.982.737A2.94,2.94,0,0,1,.77,10.629,4.12,4.12,0,0,1,0,7.877V7.123A7.562,7.562,0,0,1,.459,4.371,7.315,7.315,0,0,1,1.622,2.34,6.8,6.8,0,0,1,3.162.947a7.5,7.5,0,0,1,1.589-.8A1.266,1.266,0,0,1,5.816.1a1.7,1.7,0,0,1,.639.7" fill="#54362b"/>
      </g>
    </g>
    <g id="그룹_1281" data-name="그룹 1281" transform="translate(3739.419 4178.182) rotate(180)">
      <g id="그룹_1279-2" data-name="그룹 1279" clip-path="url(#clip-path)">
        <path id="패스_21915-2" data-name="패스 21915" d="M6.455.8a1.636,1.636,0,0,1,.1.885.913.913,0,0,1-.622.754A4.26,4.26,0,0,0,3.981,3.9a3.221,3.221,0,0,0-.508,2.015,2.735,2.735,0,0,1,.868.147,2.088,2.088,0,0,1,.786.475,2.6,2.6,0,0,1,.573.852A3.1,3.1,0,0,1,5.93,8.63a2.71,2.71,0,0,1-.835,2.146,2.9,2.9,0,0,1-1.982.737A2.94,2.94,0,0,1,.77,10.629,4.12,4.12,0,0,1,0,7.877V7.123A7.562,7.562,0,0,1,.459,4.371,7.315,7.315,0,0,1,1.622,2.34,6.8,6.8,0,0,1,3.162.947a7.5,7.5,0,0,1,1.589-.8A1.266,1.266,0,0,1,5.816.1a1.7,1.7,0,0,1,.639.7" fill="#54362b"/>
      </g>
    </g>
  </g>
</svg>
