<svg xmlns="http://www.w3.org/2000/svg" xmlns:xlink="http://www.w3.org/1999/xlink" width="568.109" height="59.33" viewBox="0 0 568.109 59.33">
  <defs>
    <clipPath id="clip-path">
      <rect id="사각형_413" data-name="사각형 413" width="10.115" height="17.723" fill="#54362b"/>
    </clipPath>
  </defs>
  <g id="그룹_3437" data-name="그룹 3437" transform="translate(-435.945 -154.333)">
    <path id="패스_21901" data-name="패스 21901" d="M2.829,20.864A19.657,19.657,0,0,1,4.4,19.411a3.106,3.106,0,0,1,1.3-.589,9.67,9.67,0,0,1,1.924-.157q5.1,0,6.517,5.339a6.791,6.791,0,0,1-.235,4.437,7.4,7.4,0,0,1-2.67,3.415,11.611,11.611,0,0,1-3.886,1.767,6.2,6.2,0,0,1-3.966-.275A5.291,5.291,0,0,1,.552,30.365a7.051,7.051,0,0,1-.274-4.711,12.555,12.555,0,0,1,2.552-4.79m7.381,2.513Q7.855,21.02,5.656,22.2t-2.2,4.79a6.359,6.359,0,0,0,.157,1.649,1.935,1.935,0,0,0,.471.864,4.714,4.714,0,0,0,1.021.707,3.748,3.748,0,0,0,1.806.392,6.018,6.018,0,0,0,2.12-.942,4.191,4.191,0,0,0,2.551-2.906,3.868,3.868,0,0,0-1.374-3.376m9.815,19.16a26.061,26.061,0,0,1,4.555-.275,2.539,2.539,0,0,1,1.728.746,1.523,1.523,0,0,1,.432,1.3,7.968,7.968,0,0,1-.982,2.159,13.245,13.245,0,0,0-1.335,2.787q0,.354,2.12.746a12.923,12.923,0,0,1,4.712,2.278,7.36,7.36,0,0,1,1.924,1.688,1.9,1.9,0,0,1,.274,1.452,1.454,1.454,0,0,1-1.806,1.1,18.246,18.246,0,0,1-4.869-1.728q-3.062-1.413-4.083-1.178a3.714,3.714,0,0,0-1.1.943,8.4,8.4,0,0,0-1.256,1.885,5.334,5.334,0,0,1-2.316,2.551q-1.14.431-1.845-.981A2.425,2.425,0,0,1,16.06,56.2a17.421,17.421,0,0,1,1.689-3.612,26.318,26.318,0,0,0,2.827-6.125q.471-1.413.235-1.57-.314-.157-6.753.942-3.768.63-3.533-.628l.236-.471Q11,44.187,13.9,43.518a48.436,48.436,0,0,1,6.124-.981m12.25-32.195q2.276-.942,2.787.118t.589,6.556a81.616,81.616,0,0,1-.863,14.527q-1.414,9.03-2.984,9.109-.942,0-2.042-2.827-1.021-2.2-.549-10.208a115.424,115.424,0,0,1,1.06-12.839q.666-3.887,2-4.437" transform="translate(464.94 151.261)" fill="#54362b"/>
    <path id="패스_21902" data-name="패스 21902" d="M69.835,26.475a5,5,0,0,1,3.023-.432q1.452.276,1.61,1.3.235.786-1.336,4.947a30.37,30.37,0,0,1-2.748,5.89q-.865,1.336-.668,1.845T71.8,41.669a8.919,8.919,0,0,1,3.022,2.984,7.046,7.046,0,0,1,1.139,3.73q0,1.493-1.217,1.609a2.649,2.649,0,0,1-2.316-1.374,9.191,9.191,0,0,0-2.591-2.513,5.769,5.769,0,0,0-2.591-1.256q-.394,0-1.1.785a12.449,12.449,0,0,0-1.335,1.806q-1.727,2.514-3.062,2.356-2.279-.313-.863-3.377.783-1.413,2.277-3.769,5.182-7.615,5.183-11.228c0-.576-.145-.915-.432-1.021a4.957,4.957,0,0,0-1.924.079,1.335,1.335,0,0,1-.55.079,68.5,68.5,0,0,1-6.949.825q-.983-.039-.982-1.217v-.157A1.711,1.711,0,0,1,58.528,28.2a29.236,29.236,0,0,1,5.575-.785,28.381,28.381,0,0,0,5.732-.942m20.887-5.1a4.568,4.568,0,0,1,2.395-.432q.666.2,1.217,1.452.628,1.493.628,16.491V53.723H93.078a4.7,4.7,0,0,1-1.492-.236,3.319,3.319,0,0,1-1.217-.707,4.8,4.8,0,0,1-.864-1.06,3.187,3.187,0,0,1-.432-1.3q0-.313-.314-4.555-.08-3.846.236-13.585.236-7.38.51-8.912a2.561,2.561,0,0,1,1.218-2" transform="translate(447.089 147.848)" fill="#54362b"/>
    <path id="패스_21903" data-name="패스 21903" d="M123.732,18.174q3.218-1.334,5.457.471a6.645,6.645,0,0,1,2.238,5.5,7.136,7.136,0,0,1-.628,2.749,10.642,10.642,0,0,1-1.688,2.748,7.468,7.468,0,0,1-2.081,1.806,7.254,7.254,0,0,1-4.319.55,7.77,7.77,0,0,1-4-1.335,4.23,4.23,0,0,1-1.139-2.827,6.424,6.424,0,0,1,.746-3.455,24.983,24.983,0,0,1,2.749-3.651,12.3,12.3,0,0,1,2.67-2.552m3.69,4.005a2.361,2.361,0,0,0-2.356-1.336,3.23,3.23,0,0,0-2.748,1.649,6.905,6.905,0,0,0-1.1,3.926,2.444,2.444,0,0,0,.432,1.649,4.522,4.522,0,0,0,1.609.942,3.317,3.317,0,0,0,1.924.275,7.224,7.224,0,0,0,1.924-1.374,4.493,4.493,0,0,0,1.374-2.434,8.75,8.75,0,0,0-1.061-3.3M124.752,41.26q.312-.784,1.885-.785,3.533,0,3.533,7.146,0,4.162.55,4.633.705.315,3.454-.471a12.368,12.368,0,0,1,5.615-.118q2.708.59,2.945,2.081.156,1.255-.314,1.413c-.105,0-.38.012-.825.039s-1.06.066-1.845.118-1.545.079-2.276.079q-4.085.392-5.732.51a18.346,18.346,0,0,1-2.945,0,2.719,2.719,0,0,1-1.571-.432,10.386,10.386,0,0,1-.746-1.021,12.743,12.743,0,0,1-.785-5.182,18.486,18.486,0,0,0-.629-5.418,4.015,4.015,0,0,1-.314-2.591m28.19,3.926a10.8,10.8,0,0,1,3.377-.236,9.163,9.163,0,0,1,2.473.2c.339.131.51.459.51.981a1.823,1.823,0,0,1-.628,1.609,1.223,1.223,0,0,1-1.492-.2q-.706-.628-4.555-.079-8.48,1.413-8.48-.236a1.187,1.187,0,0,1,.943-1.178,19.459,19.459,0,0,1,4.083-.471q3.611-.156,3.769-.392m-5.811-7.146a10.874,10.874,0,0,1,2.709-1.3,10.361,10.361,0,0,1,2.787.824q2.9.942,3.22,2.278a.465.465,0,0,1-.236.628q-.785.394-5.81.079t-5.026-.706q0-.549,2.356-1.807m1.257,14.684a6.39,6.39,0,0,1,3.69-.746,7.2,7.2,0,0,1,3.769.825q1.178.866,1.178,3.3a5.521,5.521,0,0,1-1.924,4.2,6.459,6.459,0,0,1-4.515,1.767,5.076,5.076,0,0,1-2.2-.314,3.387,3.387,0,0,1-1.1-1.649,7.264,7.264,0,0,1-.432-4.123,4.726,4.726,0,0,1,1.532-3.259m2.277-43.187a1.949,1.949,0,0,1,1.767-.707,2.632,2.632,0,0,1,1.845.864q.548.706.392,4.515a26.84,26.84,0,0,1-.785,6.007.734.734,0,0,0,.59.943,20.343,20.343,0,0,0,3.337.471,14.5,14.5,0,0,1,4.672.943,1.443,1.443,0,0,1,.825,1.885,1.108,1.108,0,0,1-.943.942,14.4,14.4,0,0,1-3.219.236q-4.634,0-5.457.707t-.51,4.318a15.579,15.579,0,0,1,.157,3.573,1.838,1.838,0,0,1-1.1,1.217,1.581,1.581,0,0,1-1.335.274,5.485,5.485,0,0,1-1.57-1.139,9,9,0,0,1-.824-1.06,6.454,6.454,0,0,1-.55-1.138,6.912,6.912,0,0,1-.393-1.532q-.117-.824-.2-2.159a51.609,51.609,0,0,1,.825-10.915q1.06-6.36,2.474-8.245m3.376,45.858a1.458,1.458,0,0,0-1.138-.863,1.553,1.553,0,0,0-1.374.314q-.472.471-.392,2.552c.051,1.386.236,2.08.55,2.08q.707,0,1.688-1.609a3.122,3.122,0,0,0,.667-2.474" transform="translate(428.449 151.594)" fill="#54362b"/>
    <path id="패스_21904" data-name="패스 21904" d="M200.149,30.415a2.938,2.938,0,0,1,1.57-.864q.549,0,1.531,1.061a3,3,0,0,1,.982,1.609q.863,14.369,1.806,16.568l.706,1.885,7.225-.471q7.459-.393,8.167-.55c.208-.051.4.079.588.393a2.971,2.971,0,0,1,.354,1.178,2.357,2.357,0,0,1-.118,1.492,1.942,1.942,0,0,1-1.3.707,4.723,4.723,0,0,1-3.062-.235q-1.336-.628-4.555-.079-3.849.393-13.663.628-6.911.158-8.716,0t-1.963-.785a.87.87,0,0,1,.55-.943,8.41,8.41,0,0,1,2.278-.55q3.3-.312,4.633-.314,2.119,0,2.63-.825t-.039-3.573a67.407,67.407,0,0,1-.785-9.266,38.517,38.517,0,0,1,.118-5.339,2.39,2.39,0,0,1,1.061-1.727m5.025-15.548q7.223-1.019,10.051,0a2.53,2.53,0,0,1,1.413,1.178,10.779,10.779,0,0,1,.314,3.377,53.92,53.92,0,0,1-1.021,9.423q-.236,1.256-.472,2.709t-.471,2.866q0,.158-1.256.157a2.02,2.02,0,0,1-1.688-.746,5.514,5.514,0,0,1-.824-2.63,52.52,52.52,0,0,1-.236-5.89l-.157-7.538H206.98a50.68,50.68,0,0,0-7.145.471q-1.178.159-1.767.2a5.77,5.77,0,0,1-.981,0c-.262-.026-.392-.1-.392-.235v-.51a1.374,1.374,0,0,1,.9-1.021,13.173,13.173,0,0,1,2.591-.785q1.767-.391,4.986-1.021" transform="translate(406.054 149.876)" fill="#54362b"/>
    <path id="패스_21905" data-name="패스 21905" d="M283.411,29.041a16.625,16.625,0,0,1,3.533-.235q4.241-.078,4.868,2.709T289.851,41.84q-2.356,7.068-3.377,8.4t-2.984-.079a2.784,2.784,0,0,1-1.02-2.356,20.756,20.756,0,0,1,1.256-5.418,21.036,21.036,0,0,0,1.178-7.7q-.08-2.512-.628-2.787t-3.769.275a6.153,6.153,0,0,1-2.042.2c-.263-.079-.392-.4-.392-.982a1.329,1.329,0,0,1,.471-1.138,4.937,4.937,0,0,1,1.963-.589q2.747-.549,2.905-.629m27.954-10.129a2.919,2.919,0,0,1,2.709-.785,2.377,2.377,0,0,1,1.531,2.042,65.791,65.791,0,0,1,.432,9.148q.039,7.107-.352,15.038l-.314,9.109h-1.807a3.12,3.12,0,0,1-2.826-1.492,10.463,10.463,0,0,1-.825-4.083q-.2-2.983-.039-12.721.235-10.993.432-13.31t1.06-2.945" transform="translate(378.62 148.737)" fill="#54362b"/>
    <path id="패스_21906" data-name="패스 21906" d="M341.715,23.31a15.566,15.566,0,0,1,1.414-1.727,2.954,2.954,0,0,1,1.139-.746,5.965,5.965,0,0,1,1.766-.2,4.8,4.8,0,0,1,2.238.471,9.671,9.671,0,0,1,2.16,1.727,7.817,7.817,0,0,1,2.395,7.264,8.806,8.806,0,0,1-4.673,6.321,9.714,9.714,0,0,1-2.63,1.061,3.656,3.656,0,0,1-1.924-.354q-4.163-1.726-4.633-5.339t2.748-8.48m8.01,5.1a4.488,4.488,0,0,0-.511-2.041,3.606,3.606,0,0,0-1.61-1.256,4.418,4.418,0,0,0-2.9-.785q-1.494.394-2.2,3.73t.55,4.515a2.811,2.811,0,0,0,2.552.746,5.283,5.283,0,0,0,2.944-1.3,4.426,4.426,0,0,0,1.178-3.613m8.087,17.432a32.665,32.665,0,0,1,6.4-.785q3.258-.078,3.887.628.471.55.59,4.947a34.227,34.227,0,0,1-.276,6.518q-.705,3.454-2.512,3.376-1.572,0-2.356-2.984a10.971,10.971,0,0,1-.314-3.3v-.392q.235-4.553-.118-5.261t-2.631-.392h-.235q-1.257.158-5.418.785-2.355.314-2.356-.157a1.948,1.948,0,0,1,1.178-1.689,16.026,16.026,0,0,1,4.162-1.3m15.233-32.509a3.182,3.182,0,0,1,2.316-.863,2,2,0,0,1,1.767,1.178q.627,1.257.078,10.09a99.272,99.272,0,0,1-1.57,13.624,18.088,18.088,0,0,1-1.571,4.908,2.333,2.333,0,0,1-2.041,1.3q-1.257,0-1.571-1.963a52.49,52.49,0,0,1-.156-7.853Q370.374,27,370.141,27a8.55,8.55,0,0,0-2.434,1.021,12.73,12.73,0,0,1-5.419,1.178q-3.22.08-3.454-1.021-.08-.312.432-.667a5.711,5.711,0,0,1,1.688-.668q1.178-.313,3.023-.707t4.672-.863h.314a1.848,1.848,0,0,0,1.688-1.061,39.818,39.818,0,0,0,.981-5.928c.052-.365.1-.654.157-.864a7.768,7.768,0,0,1,1.256-4.083" transform="translate(359.736 150.463)" fill="#54362b"/>
    <path id="패스_21907" data-name="패스 21907" d="M406.923,30.262l7.851-.235q2.591-.078,4.241-.039a7.523,7.523,0,0,1,2,.2.556.556,0,0,1,.354.55q0,1.177-1.532,1.727a36.957,36.957,0,0,1-6.243,1.178q-12.329,1.413-12.956-.314a1.517,1.517,0,0,1,.863-2.12,15.942,15.942,0,0,1,5.419-.943m.785,10.522a7.942,7.942,0,0,1,2.945-1.885,4.09,4.09,0,0,1,2.631.55,7.965,7.965,0,0,1,3.533,3.769,4.833,4.833,0,0,1,.079,4.4q-.942,1.808-4.279,2.787t-4.987-.117a5.134,5.134,0,0,1-1.531-2.16,8.055,8.055,0,0,1-.668-3.258,4.1,4.1,0,0,1,.51-2.12,8.7,8.7,0,0,1,1.767-1.963M410.456,5.92a2.419,2.419,0,0,1,1.963-.628q1.1.158,1.257,5.536a72.73,72.73,0,0,1-.511,10.875q-.667,5.5-1.61,5.89-1.413.471-2.2-1.414a20.8,20.8,0,0,1-1.021-6.282,45.114,45.114,0,0,1,.393-8.991q.628-4.122,1.727-4.986m2.356,37.141a4.083,4.083,0,0,0-2.436-.549q-1.335,0-1.648.745a5.3,5.3,0,0,0,.314,2.944,2.227,2.227,0,0,0,1.452,1.728,2.69,2.69,0,0,0,2.318-.55,2.5,2.5,0,0,0,1.177-2.2,2.316,2.316,0,0,0-1.177-2.12m18.61-21.751a1.977,1.977,0,0,1,1.531-.9,3.444,3.444,0,0,1,1.845.982,3.666,3.666,0,0,1,.9,2.16,54.517,54.517,0,0,1,.2,5.85v6.988l4.161-.235q4-.472,4.869.471.941,1.178.2,1.963t-3.022.785a14.655,14.655,0,0,0-4.79.707q-1.493.551-1.728,1.217a19.319,19.319,0,0,0-.235,4.122q0,4.4-.471,5.5a2.047,2.047,0,0,1-2.12,1.1,3.912,3.912,0,0,1-1.925-.354q-.589-.353-.9-2.316a27.954,27.954,0,0,1-.275-4.75q.039-2.787.275-8.991.707-13.114,1.492-14.291" transform="translate(340.62 152.699)" fill="#54362b"/>
    <path id="패스_21908" data-name="패스 21908" d="M474.634,19.387a20.624,20.624,0,0,1,5.536-.55,7.988,7.988,0,0,1,4.122.863,2.508,2.508,0,0,1,.9,1.571,22.868,22.868,0,0,1,.118,4,41.1,41.1,0,0,1-.981,7.774q-.9,4.163-1.767,5.026-.63.63-2.356,0-1.807-.628-1.649-2.12.236-2.748.864-7.695.548-5.967.236-6.518-.472-.628-3.691-.157-4.24.472-4.554-.55-.158-.471,1.021-.942a9.9,9.9,0,0,1,2.2-.707m20.809,21.751a1.948,1.948,0,0,1,1.256-.667,3.064,3.064,0,0,1,1.414.9q1.884,1.885.078,4.476-1.021,1.1-1.021,1.609t4.162,3.023q4.161,2.591,4.162,2.827A2.52,2.52,0,0,1,504.9,54.8c-.392.523-.773.785-1.138.785A12.1,12.1,0,0,1,500,53.937q-2.749-1.569-3.926-1.3t-1.806,2.631a5.942,5.942,0,0,1-.864,2.081,1.922,1.922,0,0,1-1.413.668q-2.044.235-2.042-1.492,0-1.649,2.2-6.91,2.513-6.047,2.513-6.989a2.021,2.021,0,0,1,.785-1.492m13.9-27.326a2.255,2.255,0,0,1,1.1-.707,3.667,3.667,0,0,1,1.57.314q1.1.393,1.021,3.73a43.608,43.608,0,0,1-1.256,8.441q-1.413,6.989-1.57,7.931-.707,4.162-4.005,2.984a1.891,1.891,0,0,1-1.256-1.178,15.956,15.956,0,0,1-.078-3.926q.311-4.632-.472-4.79-.865-.236-5.026.707a38.17,38.17,0,0,1-5.261.863,4.418,4.418,0,0,1-2.591-.55q-1.413-.863,1.257-1.806,1.648-.471,5.417-1.334,2.669-.549,3.73-.825a25.078,25.078,0,0,0,2.434-.785q1.374-.509,1.689-.668a2.851,2.851,0,0,0,.824-.9,4.992,4.992,0,0,0,.668-1.256q.156-.51.392-1.767a16.26,16.26,0,0,1,1.414-4.476m2.512,30.545q2.12-3.611,3.456-3.023t.079,4.594a1.339,1.339,0,0,0,.707,1.963,18.049,18.049,0,0,1,4.319,2.827,15.916,15.916,0,0,1,3.455,3.376q1.334,2.433-.706,2.278-2.12-.236-6.518-2.984-1.022-.549-1.492-.864a2.49,2.49,0,0,0-1.06-.393c-.393-.051-.656-.012-.785.118a3.368,3.368,0,0,0-.51.943,13.738,13.738,0,0,0-.55,1.57q-.236.824-.549,2.552-.786,3.925-1.256,3.926a3.04,3.04,0,0,1-2.238-.9,2.95,2.95,0,0,1-.9-2.16,23.634,23.634,0,0,1,1.492-6.517,43.8,43.8,0,0,1,3.062-7.3m9.267-31.252a4.977,4.977,0,0,1,2.356-.628.867.867,0,0,1,.981.785,32.963,32.963,0,0,1-.2,4.711,51.4,51.4,0,0,1-1.414,9.344q-.236.786-.55,2.238t-.628,2.513q-.315,1.06-.472,1.767-1.021,4.241-3.69,2.749-2.514-1.414-1.335-5.261.628-2.277,1.649-8.4a52.973,52.973,0,0,1,1.492-7.263,4.514,4.514,0,0,1,1.806-2.552" transform="translate(318.608 150.46)" fill="#54362b"/>
    <path id="패스_21909" data-name="패스 21909" d="M580.948,28.863a9.668,9.668,0,0,1,3.887-.354q2.865.118,3.337.589.392.394-.393,1.963a3.313,3.313,0,0,1-2.159,1.885,4.052,4.052,0,0,1-3.022-.236q-1.258-.706-10.13-.392a88.356,88.356,0,0,0-13.506,1.256q-4.87.942-4.868-.157,0-.392.707-1.1.941-1.02,6.91-1.885a90.5,90.5,0,0,1,11.7-.943q6.36,0,7.538-.628M572,.752q1.177-1.178,1.924-.511t-.746,4.044q-1.964,4.79-.864,4.79A.7.7,0,0,0,572.625,9q1.1-.392,6.36,3.062t5.418,4.633a1.3,1.3,0,0,1-.117,1.1,1.262,1.262,0,0,1-.982.314,5.246,5.246,0,0,1-2.513-.628q-2.355-1.178-7.93-3.533a9.034,9.034,0,0,0-2.239-.628c-.341,0-.694.263-1.06.785a10.92,10.92,0,0,0-1.57,4.005,29.774,29.774,0,0,1-.864,3.18,5.083,5.083,0,0,1-.55,1.138,1.879,1.879,0,0,1-.863.55,1.349,1.349,0,0,1-1.453-.236,2.76,2.76,0,0,1-.9-1.57,6.908,6.908,0,0,1-.078-2.356,33.386,33.386,0,0,1,1.414-4.515q1.019-2.709,2.276-5.3t2.591-4.868A17.12,17.12,0,0,1,572,.752m9.029,36.042A4.509,4.509,0,0,1,582.4,35.3q.43-.156,1.532.55a1.448,1.448,0,0,1,.51,1.217,24.992,24.992,0,0,1-.353,3.651,42.573,42.573,0,0,1-3.259,9.03q-2.553,5.5-3.73,6.126-.942.235-5.653.706l-4.555.392-.471-3.69a58.45,58.45,0,0,1-.314-8.756q.155-4.75.785-6.164a3.006,3.006,0,0,1,2.2-1.727q1.177-.236,1.334.314a17.568,17.568,0,0,1,0,3.534,15.038,15.038,0,0,0,.039,3.533,1.163,1.163,0,0,0,.982.863q.471,0,1.531.079a10.75,10.75,0,0,1,1.374.157,8.742,8.742,0,0,1,1.021.079q2.747.394,3.3.079t.786-2.434a.537.537,0,0,1,.04-.236.555.555,0,0,0,.039-.235v-.314a13.827,13.827,0,0,1,1.492-5.261M577.415,48.65q-.472-.548-3.18-.746t-3.18.275a2.438,2.438,0,0,0-.157,1.57,5.9,5.9,0,0,0,.707,2q.549.981,1.1,1.06a4.245,4.245,0,0,0,4.084-1.06q1.726-1.608.628-3.1" transform="translate(292.937 154.333)" fill="#54362b"/>
    <path id="패스_21910" data-name="패스 21910" d="M610.692,25.439a2.644,2.644,0,0,1,3.22.157,2.836,2.836,0,0,1,.786,2.042q.076,1.413-.236,6.282-.394,7.461,0,8.166.392.786,6.125.236a66.365,66.365,0,0,1,8.6-.55,1.492,1.492,0,0,1,1.531,1.492,1.752,1.752,0,0,1-.785,2,9.068,9.068,0,0,1-4.005.589q-3.22,0-9.422.628a46.445,46.445,0,0,1-5.065.354q-1.3-.039-1.61-.511-.629-1.019-.235-10.757t1.1-10.13m28.74-5.1a3.019,3.019,0,0,1,2.2-.472,2.683,2.683,0,0,1,1.963,1.021q.548.629.707,3.376t.078,10.366q-.236,11.857-.707,16.882l-.471,4.162-2.277.157a2.764,2.764,0,0,1-3.142-1.767q-.706-1.924-.314-7.813.549-8.482.785-15.705.392-9.815,1.178-10.208" transform="translate(275.755 148.177)" fill="#54362b"/>
    <path id="패스_21911" data-name="패스 21911" d="M673.417,27.761a61.024,61.024,0,0,1,7.459-1.021,2.508,2.508,0,0,1,2.278,1.1q1.1,1.885-1.963,2.513a42.464,42.464,0,0,1-6.989.628q-8.4.472-8.4-.707a1.365,1.365,0,0,1,.392-.707q.627-.627,7.225-1.805m-2.2,7.3a1.606,1.606,0,0,1,2.12-.392q1.178.55,1.571,5.1a21.278,21.278,0,0,0,.785,5.182q.472.708,6.2.157,7.774-.628,8.638,0,.627.55.314,1.963a2.235,2.235,0,0,1-1.806,1.3,77.593,77.593,0,0,1-7.774.9,9.115,9.115,0,0,0-1.1.079q-2.356.158-3.338.274a16.456,16.456,0,0,1-2.395.079q-1.414-.038-1.806-.079a2.745,2.745,0,0,1-1.1-.51,2.344,2.344,0,0,1-.824-.745A8.384,8.384,0,0,1,670.393,47a10.792,10.792,0,0,1-.2-1.845q0-.745.079-2.631v-.628q0-5.81.942-6.832m30.546-13.349a2.893,2.893,0,0,1,2.16-.981,1.564,1.564,0,0,1,1.531,1.06q.391,1.022.707,8.009l.392,6.832,4.947-.393a16.593,16.593,0,0,1,5.457.157,2,2,0,0,1,1.453,2.12,1.006,1.006,0,0,1-.668.942,9.706,9.706,0,0,1-2.552.55q-1.1.08-3.337.393l-2.788.392-2.669.392v6.361q0,6.36-.472,7.224a2.578,2.578,0,0,1-1.963,1.1,3.855,3.855,0,0,1-2.434-.471,4.059,4.059,0,0,1-.942-2.513q-.236-1.885-.392-9.109-.472-20.259,1.57-22.065" transform="translate(258.26 147.898)" fill="#54362b"/>
    <path id="패스_21912" data-name="패스 21912" d="M750.224,67.392q2.669-1.02,4.005.314a2.709,2.709,0,0,1,.628,2.748,5.4,5.4,0,0,1-2.435,2.748,7.768,7.768,0,0,1-1.61.864,1.9,1.9,0,0,1-1.061-.236,3.653,3.653,0,0,1-1.57-1.688,3.036,3.036,0,0,1-.314-2.08,3.426,3.426,0,0,1,2.356-2.67" transform="translate(232.807 133.55)" fill="#54362b"/>
    <g id="그룹_1279" data-name="그룹 1279" transform="translate(435.945 161.107)" clip-path="url(#clip-path)">
      <path id="패스_21915" data-name="패스 21915" d="M9.935,1.231a2.519,2.519,0,0,1,.151,1.362,1.4,1.4,0,0,1-.958,1.16A6.557,6.557,0,0,0,6.128,6a4.957,4.957,0,0,0-.782,3.1,4.21,4.21,0,0,1,1.336.227,3.213,3.213,0,0,1,1.21.731,4,4,0,0,1,.883,1.311,4.767,4.767,0,0,1,.353,1.916,4.172,4.172,0,0,1-1.286,3.3,4.46,4.46,0,0,1-3.051,1.135,4.526,4.526,0,0,1-3.606-1.362A6.341,6.341,0,0,1,0,12.124v-1.16A11.64,11.64,0,0,1,.706,6.728,11.26,11.26,0,0,1,2.5,3.6a10.463,10.463,0,0,1,2.37-2.143A11.544,11.544,0,0,1,7.313.222,1.949,1.949,0,0,1,8.952.147a2.611,2.611,0,0,1,.984,1.084" transform="translate(0 0)" fill="#54362b"/>
    </g>
    <g id="그룹_1279-2" data-name="그룹 1279" transform="translate(1004.055 178.83) rotate(180)" clip-path="url(#clip-path)">
      <path id="패스_21915-2" data-name="패스 21915" d="M9.935,1.231a2.519,2.519,0,0,1,.151,1.362,1.4,1.4,0,0,1-.958,1.16A6.557,6.557,0,0,0,6.128,6a4.957,4.957,0,0,0-.782,3.1,4.21,4.21,0,0,1,1.336.227,3.213,3.213,0,0,1,1.21.731,4,4,0,0,1,.883,1.311,4.767,4.767,0,0,1,.353,1.916,4.172,4.172,0,0,1-1.286,3.3,4.46,4.46,0,0,1-3.051,1.135,4.526,4.526,0,0,1-3.606-1.362A6.341,6.341,0,0,1,0,12.125v-1.16A11.64,11.64,0,0,1,.706,6.728,11.26,11.26,0,0,1,2.5,3.6a10.463,10.463,0,0,1,2.37-2.143A11.544,11.544,0,0,1,7.313.222,1.949,1.949,0,0,1,8.952.147a2.611,2.611,0,0,1,.984,1.084" transform="translate(0 0)" fill="#54362b"/>
    </g>
  </g>
</svg>
