<?xml version="1.0" encoding="utf-8"?>
<!-- Generator: Adobe Illustrator 26.0.1, SVG Export Plug-In . SVG Version: 6.00 Build 0)  -->
<svg version="1.1" id="레이어_1" xmlns="http://www.w3.org/2000/svg" xmlns:xlink="http://www.w3.org/1999/xlink" x="0px"
	 y="0px" viewBox="0 0 695.4 72.6" style="enable-background:new 0 0 695.4 72.6;" xml:space="preserve">
<style type="text/css">
	.st0{fill:#FFFFFF;}
</style>
<g id="그룹_1282" transform="translate(-347.509 -210.708)">
	<g id="그룹_1271" transform="translate(383 210.708)">
		<g id="그룹_1270" transform="translate(0 0)">
			<path id="패스_21901" class="st0" d="M3.5,21.8c0.6-0.6,1.2-1.2,1.9-1.8c0.5-0.4,1-0.6,1.6-0.7c0.8-0.1,1.6-0.2,2.4-0.2
				c4.2,0,6.8,2.2,8,6.5c0.5,1.8,0.4,3.7-0.3,5.4c-0.6,1.7-1.8,3.1-3.3,4.2c-1.4,1-3.1,1.7-4.8,2.2c-1.6,0.4-3.3,0.3-4.9-0.3
				c-1.6-0.7-2.8-2-3.5-3.6c-0.8-1.8-0.9-3.9-0.3-5.8C0.9,25.5,2,23.5,3.5,21.8 M12.5,24.9c-1.9-1.9-3.8-2.4-5.6-1.4
				s-2.7,2.9-2.7,5.9c0,0.7,0,1.4,0.2,2c0.1,0.4,0.3,0.8,0.6,1.1c0.4,0.3,0.8,0.6,1.2,0.9c0.7,0.3,1.4,0.5,2.2,0.5
				c0.9-0.2,1.8-0.6,2.6-1.2c1.9-1,2.9-2.1,3.1-3.6C14.3,27.4,13.7,25.9,12.5,24.9 M24.5,48.3c1.8-0.3,3.7-0.4,5.6-0.3
				c0.8,0,1.6,0.3,2.1,0.9c0.4,0.4,0.6,1,0.5,1.6c-0.3,0.9-0.7,1.8-1.2,2.6c-0.7,1.1-1.2,2.2-1.6,3.4c0,0.3,0.9,0.6,2.6,0.9
				c2.1,0.5,4.1,1.5,5.8,2.8c0.9,0.5,1.7,1.2,2.4,2.1c0.3,0.5,0.5,1.2,0.3,1.8c-0.2,1-1.2,1.6-2.1,1.4c0,0-0.1,0-0.1,0
				c-2.1-0.4-4.1-1.1-6-2.1c-2.5-1.2-4.2-1.6-5-1.4c-0.5,0.3-1,0.7-1.3,1.2c-0.6,0.7-1.1,1.5-1.5,2.3c-1,1.7-1.9,2.8-2.8,3.1
				s-1.7-0.1-2.3-1.2c-0.3-0.7-0.4-1.5-0.1-2.2c0.5-1.5,1.2-3,2.1-4.4c1.5-2.3,2.6-4.9,3.5-7.5c0.4-1.2,0.5-1.8,0.3-1.9
				c-0.3-0.1-3,0.3-8.3,1.2c-3.1,0.5-4.5,0.3-4.3-0.8l0.3-0.6c0.2-0.4,1.5-0.9,3.8-1.5C19.5,48.9,22,48.5,24.5,48.3 M39.5,8.9
				c1.9-0.8,3-0.7,3.4,0.1c0.4,0.9,0.7,3.5,0.7,8c0.2,5.9-0.2,11.9-1.1,17.8c-1.2,7.4-2.4,11.1-3.7,11.1c-0.8,0-1.6-1.2-2.5-3.5
				c-0.8-1.8-1.1-6-0.7-12.5c0.1-5.3,0.6-10.5,1.3-15.7C37.6,11.2,38.4,9.3,39.5,8.9"/>
			<path id="패스_21902" class="st0" d="M63.6,24.5c1.1-0.6,2.4-0.7,3.7-0.5c1.2,0.2,1.8,0.8,2,1.6c0.2,0.6-0.4,2.7-1.6,6.1
				c-0.9,2.5-2,4.9-3.4,7.2c-0.7,1.1-1,1.8-0.8,2.3c0.2,0.4,1,1.1,2.5,2c1.5,0.9,2.8,2.2,3.7,3.7c0.9,1.4,1.4,2.9,1.4,4.6
				c0,1.2-0.5,1.9-1.5,2s-1.9-0.5-2.8-1.7c-0.8-1.2-1.9-2.3-3.2-3.1c-0.9-0.8-2-1.3-3.2-1.5c-0.3,0-0.8,0.3-1.3,1
				c-0.6,0.7-1.2,1.4-1.6,2.2c-1.4,2.1-2.7,3-3.7,2.9c-1.9-0.3-2.2-1.6-1.1-4.1c0.6-1.2,1.6-2.7,2.8-4.6c4.2-6.2,6.3-10.8,6.3-13.7
				c0-0.7-0.2-1.1-0.5-1.2c-0.8-0.1-1.6-0.1-2.4,0.1c-0.2,0.1-0.4,0.1-0.7,0.1c-2.8,0.5-5.7,0.8-8.5,1c-0.8,0-1.2-0.5-1.2-1.5v-0.2
				c-0.1-0.9,0.4-1.8,1.2-2.2c2.2-0.5,4.5-0.9,6.8-1C59,25.5,61.3,25.1,63.6,24.5 M89.2,18.2c0.9-0.4,1.9-0.6,2.9-0.5
				c0.5,0.2,1,0.8,1.5,1.8c0.5,1.2,0.8,7.9,0.8,20.2v18.2h-2.3c-0.6,0-1.2-0.1-1.8-0.3c-0.6-0.2-1.1-0.5-1.5-0.9
				c-0.4-0.4-0.8-0.8-1.1-1.3c-0.3-0.5-0.5-1-0.5-1.6c0-0.3-0.1-2.1-0.4-5.6c-0.1-3.1,0-8.7,0.3-16.6c0.2-6,0.4-9.7,0.6-10.9
				C87.8,19.7,88.3,18.7,89.2,18.2"/>
			<path id="패스_21903" class="st0" d="M106.8,18.9c2.6-1.1,4.9-0.9,6.7,0.6c1.8,1.5,2.7,3.7,2.7,6.7c0,1.2-0.3,2.3-0.8,3.4
				c-0.5,1.2-1.2,2.4-2.1,3.4c-0.7,0.9-1.6,1.6-2.5,2.2c-1.7,0.8-3.5,1-5.3,0.7c-1.8-0.1-3.4-0.6-4.9-1.6c-0.9-0.9-1.4-2.2-1.4-3.5
				c-0.1-1.5,0.2-2.9,0.9-4.2c1-1.6,2.1-3.1,3.4-4.5C104.4,20.8,105.5,19.8,106.8,18.9 M111.3,23.8c-0.5-1.1-1.7-1.8-2.9-1.6
				c-1.4,0-2.7,0.8-3.4,2c-0.9,1.4-1.4,3.1-1.3,4.8c-0.1,0.7,0.1,1.4,0.5,2c0.6,0.5,1.2,0.9,2,1.2c0.7,0.3,1.6,0.5,2.4,0.3
				c0.9-0.4,1.7-1,2.4-1.7c0.9-0.8,1.5-1.8,1.7-3C112.4,26.4,112,25,111.3,23.8 M108,47.1c0.3-0.6,1-1,2.3-1c2.9,0,4.3,2.9,4.3,8.7
				c0,3.4,0.2,5.3,0.7,5.7c0.6,0.3,2,0.1,4.2-0.6c2.2-0.6,4.6-0.6,6.9-0.1c2.2,0.5,3.4,1.3,3.6,2.5c0.1,1,0,1.6-0.4,1.7
				c-0.1,0-0.5,0-1,0s-1.3,0.1-2.3,0.1s-1.9,0.1-2.8,0.1c-3.3,0.3-5.7,0.5-7,0.6c-1.2,0.1-2.4,0.1-3.6,0c-0.7,0-1.4-0.2-1.9-0.5
				c-0.3-0.4-0.6-0.8-0.9-1.2c-0.8-2-1.1-4.2-1-6.3c0.1-2.2-0.2-4.5-0.8-6.6C107.9,49.3,107.8,48.2,108,47.1 M142.5,52
				c0.2-0.2,1.6-0.3,4.1-0.3c1-0.1,2,0,3,0.2c0.4,0.2,0.6,0.6,0.6,1.2c0.1,0.7-0.2,1.5-0.8,2c-0.6,0.3-1.3,0.2-1.8-0.2
				c-0.6-0.5-2.4-0.5-5.6-0.1c-6.9,1.2-10.4,1.1-10.4-0.3c0-0.7,0.5-1.3,1.2-1.4c1.6-0.4,3.3-0.6,5-0.6
				C140.9,52.3,142.4,52.1,142.5,52 M135.4,43.2c1-0.7,2.1-1.2,3.3-1.6c1.2,0.2,2.3,0.5,3.4,1c2.4,0.8,3.7,1.7,3.9,2.8
				c0.1,0.3,0,0.6-0.3,0.8c0,0,0,0,0,0c-0.6,0.3-3,0.4-7.1,0.1c-4.1-0.3-6.2-0.5-6.2-0.9C132.5,45,133.5,44.2,135.4,43.2 M137,61.2
				c1.4-0.8,3-1.1,4.5-0.9c1.6-0.1,3.2,0.3,4.6,1c1,0.7,1.4,2.1,1.4,4c0,2-0.9,3.9-2.4,5.1c-1.5,1.4-3.5,2.2-5.5,2.2
				c-0.9,0.1-1.8-0.1-2.7-0.4c-0.6-0.5-1.1-1.2-1.3-2c-0.7-1.6-0.8-3.3-0.5-5C135.4,63.2,136,61.9,137,61.2 M139.8,8.3
				c0.5-0.6,1.3-1,2.2-0.9c0.9,0,1.7,0.4,2.3,1.1c0.4,0.6,0.6,2.4,0.5,5.5c0,2.5-0.4,4.9-1,7.4c-0.1,0.5,0.1,1,0.6,1.1
				c0,0,0.1,0,0.1,0c1.3,0.3,2.7,0.5,4.1,0.6c2,0.1,3.9,0.5,5.7,1.2c0.9,0.3,1.4,1.4,1,2.3c0,0,0,0,0,0c-0.1,0.6-0.6,1.1-1.2,1.2
				c-1.3,0.2-2.6,0.3-3.9,0.3c-3.8,0-6,0.3-6.7,0.9c-0.7,0.6-0.9,2.3-0.6,5.3c0.2,1.4,0.3,2.9,0.2,4.4c-0.2,0.7-0.7,1.2-1.3,1.5
				c-0.5,0.4-1.1,0.5-1.6,0.3c-0.7-0.3-1.4-0.8-1.9-1.4c-0.4-0.4-0.7-0.8-1-1.3c-0.3-0.4-0.5-0.9-0.7-1.4c-0.2-0.6-0.4-1.2-0.5-1.9
				c-0.1-0.7-0.2-1.6-0.2-2.6c-0.1-4.5,0.2-9,1-13.4C137.6,13.2,138.6,9.9,139.8,8.3 M143.9,64.5c-0.2-0.6-0.8-1-1.4-1.1
				c-0.6-0.1-1.2,0-1.7,0.4c-0.4,0.4-0.5,1.4-0.5,3.1c0.1,1.7,0.3,2.5,0.7,2.5c0.6,0,1.3-0.7,2.1-2
				C143.9,66.2,144.1,65.2,143.9,64.5"/>
			<path id="패스_21904" class="st0" d="M172.9,31.8c0.5-0.5,1.2-0.9,1.9-1.1c0.4,0,1.1,0.4,1.9,1.3c0.6,0.5,1,1.2,1.2,2
				c0.7,11.7,1.4,18.5,2.2,20.3l0.9,2.3l8.8-0.6c6.1-0.3,9.4-0.5,10-0.7c0.3-0.1,0.5,0.1,0.7,0.5c0.2,0.4,0.4,0.9,0.4,1.4
				c0.2,0.6,0.1,1.2-0.1,1.8c-0.4,0.5-1,0.8-1.6,0.9c-1.2,0.3-2.6,0.2-3.7-0.3c-1.1-0.5-2.9-0.5-5.6-0.1c-3.1,0.3-8.7,0.6-16.7,0.8
				c-5.6,0.1-9.2,0.1-10.7,0c-1.5-0.1-2.3-0.4-2.4-1c-0.1-0.5,0.2-1,0.7-1.2c0.9-0.4,1.8-0.6,2.8-0.7c2.7-0.3,4.6-0.4,5.7-0.4
				c1.7,0,2.8-0.3,3.2-1s0.4-2.1-0.1-4.4c-0.6-3.8-0.9-7.5-1-11.3c-0.1-2.2-0.1-4.4,0.1-6.5C171.7,33,172.2,32.2,172.9,31.8
				 M179.1,12.7c5.9-0.8,10-0.8,12.3,0c0.7,0.2,1.4,0.8,1.7,1.4c0.3,1.3,0.5,2.7,0.4,4.1c-0.1,3.9-0.5,7.7-1.2,11.5
				c-0.2,1-0.4,2.1-0.6,3.3c-0.2,1.2-0.4,2.4-0.6,3.5c0,0.1-0.5,0.2-1.5,0.2c-0.8,0-1.6-0.3-2.1-0.9c-0.6-1-1-2.1-1-3.2
				c-0.2-2.4-0.3-4.8-0.3-7.2l-0.2-9.2h-4.7c-2.9,0-5.8,0.2-8.7,0.6c-1,0.1-1.7,0.2-2.2,0.2c-0.4,0-0.8,0-1.2,0
				c-0.3,0-0.5-0.1-0.5-0.3v-0.6c0.1-0.6,0.5-1.1,1.1-1.2c1-0.4,2.1-0.8,3.2-1C174.4,13.7,176.4,13.3,179.1,12.7"/>
			<path id="패스_21905" class="st0" d="M241.2,28.7c1.4-0.2,2.9-0.3,4.3-0.3c3.5-0.1,5.4,1,6,3.3c0.5,2.3-0.3,6.5-2.4,12.6
				c-1.9,5.8-3.3,9.2-4.1,10.3c-0.8,1.1-2,1.1-3.7-0.1c-0.9-0.7-1.3-1.8-1.2-2.9c0.2-2.3,0.7-4.5,1.5-6.6c1.1-3,1.6-6.2,1.4-9.4
				c-0.1-2-0.3-3.2-0.8-3.4c-0.4-0.2-2-0.1-4.6,0.3c-0.8,0.2-1.7,0.3-2.5,0.2c-0.3-0.1-0.5-0.5-0.5-1.2c0-0.5,0.2-1,0.6-1.4
				c0.7-0.4,1.6-0.7,2.4-0.7C239.9,29,241.1,28.8,241.2,28.7 M275.5,16.3c0.9-0.9,2.1-1.2,3.3-1c1.1,0.4,1.8,1.4,1.9,2.5
				c0.4,3.7,0.6,7.5,0.5,11.2c0,5.8-0.1,11.9-0.4,18.4l-0.4,11.1h-2.2c-1.4,0.1-2.7-0.6-3.5-1.8c-0.7-1.6-1-3.3-1-5
				c-0.2-2.4-0.2-7.6,0-15.6c0.2-9,0.4-14.4,0.5-16.3C274.3,18,274.8,16.8,275.5,16.3"/>
			<path id="패스_21906" class="st0" d="M289.5,23.8c0.5-0.7,1.1-1.5,1.7-2.1c0.4-0.4,0.9-0.7,1.4-0.9c0.7-0.2,1.4-0.3,2.2-0.2
				c0.9,0,1.9,0.2,2.7,0.6c1,0.6,1.9,1.3,2.6,2.1c2.5,2.3,3.6,5.6,2.9,8.9c-0.6,3.3-2.7,6.2-5.7,7.7c-1,0.6-2.1,1-3.2,1.3
				c-0.8,0.1-1.6-0.1-2.4-0.4c-3.4-1.4-5.3-3.6-5.7-6.5S286.9,27.8,289.5,23.8 M299.3,30c0-0.9-0.2-1.7-0.6-2.5
				c-0.5-0.7-1.2-1.2-2-1.5c-1-0.7-2.3-1.1-3.5-1c-1.2,0.3-2.1,1.8-2.7,4.6s-0.4,4.6,0.7,5.5c0.8,0.8,2,1.2,3.1,0.9
				c1.3-0.1,2.6-0.7,3.6-1.6C299,33.3,299.5,31.7,299.3,30 M309.2,51.4c2.6-0.6,5.2-0.9,7.8-1c2.7-0.1,4.2,0.2,4.8,0.8
				c0.4,0.4,0.6,2.5,0.7,6.1c0.1,2.7,0,5.3-0.3,8c-0.6,2.8-1.6,4.2-3.1,4.1c-1.3,0-2.2-1.2-2.9-3.7c-0.3-1.3-0.5-2.7-0.4-4v-0.5
				c0.2-3.7,0.1-5.9-0.1-6.4c-0.3-0.6-1.4-0.7-3.2-0.5h-0.3c-1,0.1-3.2,0.4-6.6,1c-1.9,0.3-2.9,0.2-2.9-0.2c0-0.9,0.6-1.7,1.4-2.1
				C305.7,52.2,307.4,51.7,309.2,51.4 M327.8,11.6c0.8-0.7,1.8-1.1,2.8-1.1c0.9,0,1.8,0.6,2.2,1.4c0.5,1,0.5,5.1,0.1,12.4
				c-0.3,5.6-0.9,11.2-1.9,16.7c-0.4,2.1-1,4.1-1.9,6c-0.5,1-1.4,1.6-2.5,1.6c-1,0-1.7-0.8-1.9-2.4c-0.3-3.2-0.4-6.4-0.2-9.6
				c0.1-5.5,0-8.3-0.2-8.3c-1.1,0.3-2.1,0.7-3,1.2c-2.1,1-4.3,1.5-6.6,1.4c-2.6,0.1-4-0.3-4.2-1.2c-0.1-0.3,0.1-0.5,0.5-0.8
				c0.6-0.4,1.3-0.7,2.1-0.8c1-0.3,2.2-0.5,3.7-0.9c1.5-0.3,3.4-0.7,5.7-1.1h0.4c0.9,0,1.7-0.5,2.1-1.3c0.6-2.4,1-4.8,1.2-7.3
				c0.1-0.4,0.1-0.8,0.2-1.1C326.6,14.2,327.1,12.5,327.8,11.6"/>
			<path id="패스_21907" class="st0" d="M345.9,35c4.3-0.1,7.5-0.2,9.6-0.3c2.1-0.1,3.8-0.1,5.2,0c0.8,0,1.6,0.1,2.5,0.2
				c0.3,0.1,0.4,0.4,0.4,0.7c0,1-0.6,1.7-1.9,2.1c-2.5,0.7-5.1,1.2-7.6,1.4c-10.1,1.2-15.3,1-15.9-0.4c-0.5-0.9-0.1-2,0.8-2.5
				c0.1,0,0.2-0.1,0.2-0.1C340.4,35.6,342.6,35.2,345.9,35 M346.9,47.9c1-1,2.2-1.8,3.6-2.3c1.1-0.1,2.3,0.1,3.2,0.7
				c1.9,1,3.4,2.6,4.3,4.6c0.9,1.7,0.9,3.7,0.1,5.4c-0.8,1.5-2.5,2.6-5.2,3.4c-2.7,0.8-4.8,0.8-6.1-0.1c-0.8-0.7-1.5-1.6-1.9-2.6
				c-0.5-1.3-0.8-2.6-0.8-4c0-0.9,0.2-1.8,0.6-2.6C345.3,49.4,346,48.6,346.9,47.9 M350.2,5.2c0.6-0.6,1.5-0.9,2.4-0.8
				c0.9,0.1,1.4,2.4,1.5,6.8c0.1,4.4-0.1,8.9-0.6,13.3c-0.5,4.5-1.2,6.9-2,7.2c-1.2,0.4-2-0.2-2.7-1.7c-0.8-2.5-1.2-5.1-1.2-7.7
				c-0.2-3.7,0-7.4,0.5-11C348.6,8,349.3,6,350.2,5.2 M353.1,50.7c-0.9-0.5-1.9-0.8-3-0.7c-1.1,0-1.8,0.3-2,0.9
				c-0.3,0.6-0.1,1.8,0.4,3.6c0.2,1,0.8,1.8,1.8,2.1c1,0.2,2,0,2.8-0.7c0.9-0.6,1.5-1.6,1.4-2.7C354.6,52.2,354,51.2,353.1,50.7
				 M375.9,24.1c0.4-0.6,1.1-1.1,1.9-1.1c0.9,0.2,1.6,0.6,2.3,1.2c0.6,0.7,1,1.7,1.1,2.6c0.2,2.4,0.3,4.8,0.2,7.2v8.6l5.1-0.3
				c3.3-0.4,5.3-0.2,6,0.6c0.8,1,0.8,1.8,0.2,2.4c-0.6,0.6-1.8,1-3.7,1c-2,0-4,0.3-5.9,0.9c-1.2,0.5-1.9,0.9-2.1,1.5
				c-0.3,1.7-0.4,3.4-0.3,5c0,3.6-0.2,5.8-0.6,6.7c-0.5,1-1.5,1.5-2.6,1.3c-0.8,0.1-1.6-0.1-2.4-0.4c-0.5-0.3-0.8-1.2-1.1-2.8
				c-0.3-1.9-0.4-3.9-0.3-5.8c0-2.3,0.1-5.9,0.3-11C374.7,30.9,375.3,25,375.9,24.1"/>
			<path id="패스_21908" class="st0" d="M401.9,19c2.2-0.5,4.5-0.8,6.8-0.7c2.5,0.1,4.1,0.4,5,1.1c0.6,0.5,1,1.2,1.1,1.9
				c0.2,1.6,0.2,3.3,0.1,4.9c-0.1,3.2-0.5,6.4-1.2,9.5c-0.7,3.4-1.5,5.5-2.2,6.2c-0.5,0.5-1.5,0.5-2.9,0c-1.5-0.5-2.1-1.4-2-2.6
				c0.2-2.2,0.5-5.4,1.1-9.4c0.4-4.9,0.5-7.5,0.3-8c-0.4-0.5-1.9-0.6-4.5-0.2c-3.5,0.4-5.3,0.2-5.6-0.7c-0.1-0.4,0.3-0.8,1.2-1.2
				C400,19.5,400.9,19.2,401.9,19 M427.3,45.6c0.4-0.5,0.9-0.7,1.5-0.8c0.7,0.2,1.3,0.6,1.7,1.1c1.5,1.5,1.6,3.4,0.1,5.5
				c-0.8,0.9-1.2,1.6-1.2,2c0,0.4,1.7,1.6,5.1,3.7c3.4,2.1,5.1,3.3,5.1,3.5c0,0.7-0.3,1.3-0.7,1.8c-0.5,0.6-0.9,1-1.4,1
				c-0.6,0-2.2-0.7-4.6-2c-2.2-1.3-3.8-1.8-4.8-1.6c-1,0.2-1.7,1.3-2.2,3.2c-0.2,0.9-0.5,1.8-1.1,2.5c-0.4,0.5-1.1,0.8-1.7,0.8
				c-1.7,0.2-2.5-0.4-2.5-1.8c0-1.3,0.9-4.2,2.7-8.5c2.1-4.9,3.1-7.8,3.1-8.6C426.4,46.7,426.8,46,427.3,45.6 M444.3,12.2
				c0.4-0.4,0.8-0.7,1.3-0.9c0.7,0,1.3,0.1,1.9,0.4c0.9,0.3,1.3,1.8,1.2,4.6c-0.2,3.5-0.7,6.9-1.5,10.3c-1.2,5.7-1.8,8.9-1.9,9.7
				c-0.6,3.4-2.2,4.6-4.9,3.7c-0.7-0.2-1.3-0.7-1.5-1.4c-0.2-1.6-0.3-3.2-0.1-4.8c0.3-3.8,0.1-5.7-0.6-5.9c-0.7-0.2-2.8,0.1-6.2,0.9
				c-2.1,0.5-4.3,0.9-6.4,1.1c-1.1,0.1-2.2-0.1-3.2-0.7c-1.2-0.7-0.6-1.4,1.5-2.2c1.3-0.4,3.6-0.9,6.6-1.6c2.2-0.4,3.7-0.8,4.6-1
				c1-0.3,2-0.6,3-1c1.1-0.4,1.8-0.7,2.1-0.8c0.4-0.3,0.8-0.7,1-1.1c0.3-0.5,0.6-1,0.8-1.5c0.1-0.4,0.3-1.1,0.5-2.2
				C442.9,15.7,443.5,13.9,444.3,12.2 M447.4,49.6c1.7-2.9,3.1-4.2,4.2-3.7c1.1,0.5,1.1,2.4,0.1,5.6c-0.5,0.8-0.2,1.8,0.5,2.3
				c0.1,0.1,0.2,0.1,0.3,0.1c1.9,0.9,3.7,2.1,5.3,3.5c1.6,1.2,3,2.5,4.2,4.1c1.1,2,0.8,2.9-0.9,2.8c-1.7-0.2-4.4-1.4-8-3.7
				c-0.8-0.4-1.4-0.8-1.8-1.1c-0.4-0.3-0.8-0.4-1.3-0.5c-0.3-0.1-0.7,0-1,0.1c-0.3,0.3-0.5,0.7-0.6,1.2c-0.3,0.6-0.5,1.3-0.7,1.9
				c-0.2,0.7-0.4,1.7-0.7,3.1c-0.6,3.2-1.2,4.8-1.5,4.8c-1,0-2-0.4-2.7-1.1c-0.7-0.7-1.1-1.6-1.1-2.6c0.2-2.7,0.8-5.4,1.8-8
				C444.6,55.4,445.9,52.4,447.4,49.6 M458.8,11.3c0.9-0.5,1.9-0.8,2.9-0.8c0.6-0.1,1.1,0.3,1.2,0.9c0,0,0,0,0,0.1
				c0.1,1.9,0,3.9-0.2,5.8c-0.2,3.9-0.8,7.7-1.7,11.4c-0.2,0.6-0.4,1.6-0.7,2.7s-0.5,2.2-0.8,3.1c-0.3,0.9-0.4,1.6-0.6,2.2
				c-0.8,3.5-2.3,4.6-4.5,3.4c-2.1-1.2-2.6-3.3-1.6-6.4c0.5-1.9,1.2-5.3,2-10.3c0.4-3,1-6,1.8-8.9C456.9,13.2,457.7,12,458.8,11.3"
				/>
			<path id="패스_21909" class="st0" d="M500.6,35.3c1.5-0.5,3.2-0.6,4.8-0.4c2.3,0.1,3.7,0.3,4.1,0.7c0.3,0.3,0.2,1.1-0.5,2.4
				c-0.5,1.1-1.5,2-2.6,2.3c-1.2,0.4-2.6,0.3-3.7-0.3c-1-0.6-5.2-0.7-12.4-0.5c-5.5,0.1-11.1,0.6-16.5,1.5c-4,0.8-6,0.7-6-0.2
				c0-0.3,0.3-0.8,0.9-1.3c0.8-0.8,3.6-1.6,8.5-2.3c4.7-0.7,9.5-1.1,14.3-1.2C496.5,36.1,499.6,35.8,500.6,35.3 M489.6,0.9
				c1-1,1.7-1.2,2.4-0.6c0.6,0.5,0.3,2.2-0.9,4.9c-1.6,3.9-2,5.9-1.1,5.9c0.1,0,0.3,0,0.4-0.1c0.9-0.3,3.5,0.9,7.8,3.7
				c4.3,2.8,6.5,4.7,6.6,5.7c0.2,0.4,0.1,0.9-0.1,1.3c-0.3,0.3-0.8,0.4-1.2,0.4c-1.1,0-2.1-0.3-3.1-0.8c-1.9-1-5.2-2.4-9.7-4.3
				c-0.9-0.4-1.8-0.6-2.7-0.8c-0.4,0-0.8,0.3-1.3,1c-1,1.5-1.6,3.2-1.9,4.9c-0.3,1.3-0.6,2.6-1.1,3.9c-0.2,0.5-0.4,1-0.7,1.4
				c-0.3,0.3-0.6,0.6-1.1,0.7c-0.6,0.3-1.3,0.2-1.8-0.3c-0.6-0.5-1-1.2-1.1-1.9c-0.2-0.9-0.2-1.9-0.1-2.9c0.4-1.9,1-3.7,1.7-5.5
				c0.8-2.2,1.8-4.4,2.8-6.5s2.1-4.1,3.2-6C487.4,3.6,488.4,2.2,489.6,0.9 M500.7,45c0.4-0.7,1-1.4,1.7-1.8c0.4-0.1,1,0.1,1.9,0.7
				c0.4,0.4,0.7,0.9,0.6,1.5c0,1.5-0.2,3-0.4,4.5c-0.9,3.8-2.2,7.5-4,11.1c-2.1,4.5-3.6,7-4.6,7.5c-0.8,0.2-3.1,0.5-6.9,0.9
				l-5.6,0.5l-0.6-4.5c-0.4-3.6-0.5-7.1-0.4-10.7c0.1-3.9,0.4-6.4,1-7.5c0.5-1.1,1.5-1.9,2.7-2.1c1-0.2,1.5-0.1,1.6,0.4
				c0.1,1.4,0.1,2.9,0,4.3c-0.2,1.4-0.1,2.9,0,4.3c0.1,0.6,0.6,1,1.2,1.1c0.4,0,1,0,1.9,0.1c0.6,0,1.1,0.1,1.7,0.2
				c0.4,0,0.8,0,1.2,0.1c2.2,0.3,3.6,0.4,4,0.1c0.4-0.3,0.8-1.2,1-3c0-0.1,0-0.2,0-0.3c0-0.1,0.1-0.2,0-0.3v-0.4
				C499,49.2,499.6,47,500.7,45 M496.2,59.6c-0.4-0.4-1.7-0.8-3.9-0.9c-2.2-0.2-3.5,0-3.9,0.3c-0.3,0.6-0.3,1.3-0.2,1.9
				c0.1,0.9,0.4,1.7,0.9,2.5c0.4,0.8,0.9,1.2,1.3,1.3c1.8,0.5,3.7,0,5-1.3C496.9,62,497.1,60.8,496.2,59.6"/>
			<path id="패스_21910" class="st0" d="M515.9,23.6c1.2-0.8,2.8-0.8,3.9,0.2c0.6,0.7,1,1.6,1,2.5c0.1,1.2,0,3.7-0.3,7.7
				c-0.3,6.1-0.3,9.4,0,10c0.3,0.6,2.8,0.7,7.5,0.3c3.5-0.5,7-0.7,10.5-0.7c1,0,1.8,0.8,1.9,1.8c0,0,0,0,0,0c0.3,0.9-0.1,2-1,2.5
				c-0.8,0.5-2.5,0.7-4.9,0.7c-2.6,0-6.5,0.3-11.5,0.8c-2.1,0.3-4.1,0.4-6.2,0.4c-1.1,0-1.7-0.2-2-0.6c-0.5-0.8-0.6-5.2-0.3-13.2
				C514.9,28.1,515.4,23.9,515.9,23.6 M551.1,17.4c0.8-0.5,1.8-0.7,2.7-0.6c0.9,0.1,1.8,0.5,2.4,1.2c0.4,0.5,0.7,1.9,0.9,4.1
				s0.2,6.5,0.1,12.7c-0.2,9.7-0.5,16.6-0.9,20.7l-0.6,5.1l-2.8,0.2c-2,0.1-3.3-0.6-3.8-2.2c-0.6-1.6-0.7-4.8-0.4-9.6
				c0.4-6.9,0.8-13.3,1-19.2C550,21.9,550.5,17.7,551.1,17.4"/>
			<path id="패스_21911" class="st0" d="M571.3,26.1c3-0.6,6.1-1,9.1-1.2c1.1-0.1,2.2,0.4,2.8,1.3c0.9,1.5,0.1,2.6-2.4,3.1
				c-2.8,0.5-5.7,0.7-8.6,0.8c-6.9,0.4-10.3,0.1-10.3-0.9c0.1-0.3,0.2-0.6,0.5-0.9C563,27.8,565.9,27.1,571.3,26.1 M568.6,35
				c0.6-0.8,1.7-1,2.6-0.5c1,0.4,1.6,2.5,1.9,6.2c0.3,3.7,0.6,5.8,1,6.3c0.4,0.6,2.9,0.6,7.6,0.2c6.3-0.5,9.9-0.5,10.6,0
				c0.5,0.4,0.6,1.2,0.4,2.4c-0.4,0.9-1.2,1.5-2.2,1.6c-3.2,0.5-6.3,0.9-9.5,1.1c-0.4,0-0.9,0-1.3,0.1c-1.9,0.1-3.3,0.2-4.1,0.3
				c-1,0.1-2,0.1-2.9,0.1c-1.2,0-1.9-0.1-2.2-0.1c-0.5-0.1-0.9-0.3-1.3-0.6c-0.4-0.2-0.8-0.5-1-0.9c-0.2-0.5-0.3-1.1-0.4-1.7
				c-0.1-0.7-0.2-1.5-0.2-2.3c0-0.6,0-1.7,0.1-3.2v-0.8C567.5,38.7,567.8,35.9,568.6,35 M606,18.7c0.7-0.8,1.6-1.2,2.6-1.2
				c0.8,0,1.6,0.5,1.9,1.3c0.3,0.8,0.6,4.1,0.9,9.8l0.5,8.4l6.1-0.5c3.3-0.3,5.5-0.2,6.7,0.2c1.1,0.3,1.9,1.4,1.8,2.6
				c0,0.5-0.3,1-0.8,1.2c-1,0.4-2.1,0.6-3.1,0.7c-0.9,0.1-2.3,0.2-4.1,0.5l-3.4,0.5l-3.3,0.5v7.8c0,5.2-0.2,8.1-0.6,8.8
				c-0.6,0.8-1.4,1.3-2.4,1.3c-1,0.1-2.1-0.1-3-0.6c-0.7-0.9-1.1-1.9-1.2-3.1c-0.2-1.5-0.4-5.3-0.5-11.1
				C603.7,29.2,604.3,20.2,606,18.7"/>
			<path id="패스_21912" class="st0" d="M634.2,57.1c2.2-0.8,3.8-0.7,4.9,0.4c0.9,0.9,1.2,2.2,0.8,3.4c-0.6,1.4-1.6,2.6-3,3.4
				c-0.6,0.4-1.3,0.8-2,1.1c-0.5,0-0.9-0.1-1.3-0.3c-0.8-0.5-1.5-1.2-1.9-2.1c-0.4-0.8-0.6-1.7-0.4-2.5
				C631.5,58.8,632.7,57.5,634.2,57.1"/>
		</g>
	</g>
	<g id="그룹_1280" transform="translate(347.509 219)">
		<g>
			<g id="그룹_1279">
				<path id="패스_21915" class="st0" d="M12.2,1.5c0.2,0.5,0.3,1.1,0.2,1.7c-0.1,0.7-0.5,1.2-1.2,1.4C9.7,5.1,8.4,6.1,7.5,7.3
					c-0.7,1.1-1.1,2.5-1,3.8c0.6,0,1.1,0.1,1.6,0.3c0.6,0.2,1.1,0.5,1.5,0.9c0.5,0.5,0.8,1,1.1,1.6c0.3,0.7,0.5,1.5,0.4,2.3
					c0.1,1.5-0.5,3-1.6,4c-1,0.9-2.4,1.4-3.7,1.4c-1.6,0.1-3.3-0.5-4.4-1.7c-1-1.1-1.5-2.8-1.5-5.2v-1.4c0-1.8,0.3-3.5,0.9-5.2
					c0.5-1.4,1.3-2.7,2.2-3.8c0.8-1,1.8-1.9,2.9-2.6c0.9-0.6,1.9-1.1,3-1.5c0.6-0.3,1.4-0.4,2-0.1C11.5,0.5,11.9,1,12.2,1.5"/>
			</g>
		</g>
	</g>
	<g>
		<g id="그룹_1279-2">
			<path id="패스_21915-2" class="st0" d="M1030.7,239.2c-0.2-0.5-0.3-1.1-0.2-1.7c0.1-0.7,0.5-1.2,1.2-1.4
				c1.5-0.5,2.7-1.5,3.7-2.7c0.7-1.1,1.1-2.5,1-3.8c-0.6,0-1.1-0.1-1.6-0.3c-0.6-0.2-1.1-0.5-1.5-0.9c-0.5-0.5-0.8-1-1.1-1.6
				c-0.3-0.7-0.5-1.5-0.4-2.3c-0.1-1.5,0.5-3,1.6-4c1-0.9,2.4-1.4,3.7-1.4c1.6-0.1,3.3,0.5,4.4,1.7c1,1.1,1.5,2.8,1.5,5.2v1.4
				c0,1.8-0.3,3.5-0.9,5.2c-0.5,1.4-1.3,2.7-2.2,3.8c-0.8,1-1.8,1.9-2.9,2.6c-0.9,0.6-1.9,1.1-3,1.5c-0.6,0.3-1.4,0.4-2,0.1
				C1031.4,240.2,1031,239.7,1030.7,239.2"/>
		</g>
	</g>
</g>
</svg>
