<svg id="그룹_1792" data-name="그룹 1792" xmlns="http://www.w3.org/2000/svg" xmlns:xlink="http://www.w3.org/1999/xlink" width="48.259" height="39.979" viewBox="0 0 48.259 39.979">
  <defs>
    <clipPath id="clip-path">
      <rect id="사각형_1478" data-name="사각형 1478" width="48.258" height="39.979" fill="none"/>
    </clipPath>
  </defs>
  <path id="패스_22811" data-name="패스 22811" d="M31.736,12.819l-.53-1.042L30.7,10.77l-.459-1.046-.693-.9-.783-.829-.916-.68-1.027-.493-1.08-.358L24.61,6.319l-1.2.039-1.2.059-1.168.316-1.023.643-1.011.658-.766.932-.688.984-.527,1.084-.213,1.184-.261,1.174,0,1.2-.018.168-.2.114-.026-.06-1.019.6-.911.758-.9.765-.7.954-.7.959L11.787,20l-.209,1.155.037,1.177.2,1.161.254,1.107.595.969.651.919.808.782.8.8.97.581,1.029.478,1.113.231,1.173-.071.027,1.2.129,1.152L19.82,32.7l.532,1.022.915.7,1.026.5,1.122.239,1.139.161,1.142-.089,1.143-.056,1.129-.214,1.056-.455,1.01-.531.993-.573.858-.767.744-.884.539-1.026.309-1.113.09-1.145-.033-1.119,1.1-.09,1.135-.063,1.069-.385,1.023-.47.9-.68.83-.781.514-1.019.394-1.066.167-1.123.021-1.132L40.644,19.4l-.126-1.134L40.1,17.207l-.412-1.053-.535-.995-.522-1.014-.721-.888-.95-.636-.952-.612-1.112-.185-1.125-.045-1.05.418Zm-1.695,8.234-.29,1.077-.527.985-.8.768-.827.71-.976.482-1.059.238-1.306-.121-1.163-.627-1-.537-.885-.721-.551-1-.331-1.067-.19-1.1.293-1.076.409-1.034.728-.848.892-.663.958-.592,1.117-.147,1.1.032,1.1.1,1.005.464.865.685.68.858.552.947.193,1.08Z" transform="translate(-8.028 -4.382)" fill="#e3494e"/>
  <path id="패스_22812" data-name="패스 22812" d="M64.386,47.931l-.007,0,.014-.006Z" transform="translate(-44.64 -33.233)" fill="#edb33d"/>
  <path id="패스_22813" data-name="패스 22813" d="M52.727,43.964l0,0-.107-.578-.442-.087-.291.07-.242.169-.035.125-.506-.724.093-.033.095-.863L49.795,41.3l-.464.257-.055.406-.056-.009L48,42.094l-.821.441-.583.733-.179,1.3.519,1.211.263.989.8.63.614.119-.316.136-.065.007.007.021-.333.308.246.536.384.154.492-.1.335-.441-.045-.164-.012-.115-.343-.339h-.006l-.074-.035,1.527-.58,1-.676.414-1.138L51.8,44.32l.139.161.31.117.289-.143.2-.372.009-.188Z" transform="translate(-32.182 -28.634)" fill="#edb33d"/>
  <path id="패스_22814" data-name="패스 22814" d="M64.058,47.987l.054-.021.044-.02Z" transform="translate(-44.417 -33.245)" fill="#edb33d"/>
  <path id="패스_22815" data-name="패스 22815" d="M43.692,53.387l-.029-.333-.12-.2-.322-.138-.327.133-.126.293-.054.358.188.359.449.117.327-.325Z" transform="translate(-29.618 -36.552)" fill="#edb33d"/>
  <path id="패스_22816" data-name="패스 22816" d="M44.375,45.618h0l.006-.115-.016-.156-.026-.066-.327-.321-.521.212-.038.077-.042.123,0,.033-.04.216-.011.108.01.067.117.327.069.092.447.063.128-.134.215-.28.034-.225Z" transform="translate(-30.061 -31.174)" fill="#edb33d"/>
  <path id="패스_22817" data-name="패스 22817" d="M49.669,39.855l-.4.1-.155.131-.042.052L49,40.18l-.055.029-.071.056.024-.017-.2.5.429.331.4-.085.1-.046,0,0,.178-.07.377-.362Z" transform="translate(-33.763 -27.635)" fill="#edb33d"/>
  <g id="그룹_1791" data-name="그룹 1791">
    <g id="그룹_1790" data-name="그룹 1790" clip-path="url(#clip-path)">
      <path id="패스_22818" data-name="패스 22818" d="M49.281,41.191" transform="translate(-34.171 -28.561)" fill="#edb33d"/>
    </g>
  </g>
  <path id="패스_22819" data-name="패스 22819" d="M50.071,40.62l0,0Z" transform="translate(-34.719 -28.164)" fill="#edb33d"/>
  <path id="패스_22820" data-name="패스 22820" d="M49.641,60.536l-.013-.013Z" transform="translate(-34.411 -41.966)" fill="#edb33d"/>
  <path id="패스_22821" data-name="패스 22821" d="M46.858,59.2l-.167-.226-.049-.055-.128-.094-.165-.124-.046-.165-.6-.34-.342.368-.06.593.391.467.486.132.322.071Z" transform="translate(-31.41 -40.35)" fill="#edb33d"/>
  <path id="패스_22822" data-name="패스 22822" d="M60.236,60.151l-.144-.349h-.7l-.077.084-.033.043-.056.047-.024.02.017,0-.009,0-.034.027-.13.453.076.141.2.228.395.052.307-.235.137-.252-.07.087Z" transform="translate(-40.942 -41.465)" fill="#edb33d"/>
  <path id="패스_22823" data-name="패스 22823" d="M59.475,60.464l.028-.025Z" transform="translate(-41.239 -41.908)" fill="#edb33d"/>
  <path id="패스_22824" data-name="패스 22824" d="M65.392,55.06l-.523-.524-.009,0-.075.01-.424.6.008.089,0,.069.472.475.335-.14.135-.335h0l.007-.041v-.02l.009-.011.039-.134Z" transform="translate(-44.626 -37.815)" fill="#edb33d"/>
  <path id="패스_22825" data-name="패스 22825" d="M1.162,110.765l-.675.077-.3,1.613.964-.96.914-.869Z" transform="translate(-0.127 -76.707)" fill="#0b0606"/>
  <path id="패스_22826" data-name="패스 22826" d="M4.341,101.476l-1.482-.242-.685,1.251-.53,1.322.39-.064,1.65-.355.118.028.666-.629.673-.622.367-.345Z" transform="translate(-1.141 -70.194)" fill="#0b0606"/>
  <path id="패스_22827" data-name="패스 22827" d="M20.289,88.555l1.027.207.5.168.944-.837-1.1-.45-1.208.231-1.131.468Z" transform="translate(-13.393 -60.771)" fill="#0b0606"/>
  <path id="패스_22828" data-name="패스 22828" d="M15.55,91.539l-1.18-.267-.985-.342-.858.524-.839.561,1.237.161,1.363.063.851.083.025.016.578-.446.247-.217Z" transform="translate(-8.105 -63.05)" fill="#0b0606"/>
  <path id="패스_22829" data-name="패스 22829" d="M10.484,96.413l-1.517-.1L7.612,96.1l-1,1.138,1.148.12.845.208.836.257.771-.694L11,96.459Z" transform="translate(-4.587 -66.634)" fill="#0b0606"/>
  <path id="패스_22830" data-name="패스 22830" d="M1.462,112.745l-.721.688-.691.718L0,114.213l0,.077.879.1.885.038.351-1.38.415-1.253Z" transform="translate(0 -77.514)" fill="#0b0606"/>
  <path id="패스_22831" data-name="패스 22831" d="M10.371,107.709l.052-1.371-.03-1.367-.429.409-.944.879-.361.983-.389,1.4-.209,1.036,1.148-.105,1.141-.2Z" transform="translate(-5.59 -72.785)" fill="#0b0606"/>
  <path id="패스_22832" data-name="패스 22832" d="M19.256,104.928l-.307-1.682-.193-1-.159-1-.13-1.023-1.056.915-.112.149.016.1.079,1.009.054,1.011.007,1.012.051,1.467.915-.318.874-.392Z" transform="translate(-11.995 -69.491)" fill="#0b0606"/>
  <path id="패스_22833" data-name="패스 22833" d="M30.365,93.915l.144.456L31,93.288l.271-1.148.079-1.179-.158-1.172L30.9,88.636l-.138.017-.884.684-.826.758.405.931.315.959.337.952Z" transform="translate(-20.146 -61.459)" fill="#0b0606"/>
  <path id="패스_22834" data-name="패스 22834" d="M25.144,98.43,24.8,97.239l-.35-1.189-.381-1.184-.559.491-.963.815,0,.036.276,1.168.262,1.171.253,1.173.245,1.363.971-.717.839-.846Z" transform="translate(-15.633 -65.779)" fill="#0b0606"/>
  <path id="패스_22835" data-name="패스 22835" d="M115.463,104.575l-.274-1.138-.334-1.122-.315-1.127-.392-1.1-.462-1.076-.049-.356-.343-.278-1.186-.79-1.131-.9.109,1.126.054,1.1.07,1.1.043,1.1.062,1.1.151,1.428.194,1.416,1,.506,1.07.367,1.073.351,1.1.3-.208-1.014Z" transform="translate(-76.95 -67.041)" fill="#0b0606"/>
  <path id="패스_22836" data-name="패스 22836" d="M124.583,107.262l.394,1.169.324,1.19.322,1.191.316,1.258.282,1.268.251.011,1.044.131,1.053.033,1.05.032-.583-1.488L128.6,111l-.5-1.031-.518-1.024-.56-1-.95-.622-.966-.6-.977-.622Z" transform="translate(-86.068 -73.566)" fill="#0b0606"/>
  <path id="패스_22837" data-name="패스 22837" d="M139.094,116.014l.476.932.429.955.382.923.379.922,1.189-.129,1.156-.3.979-.633-1.153-.866-1.088-.744-1.12-.7-1.13-.68-1.013-.6Z" transform="translate(-96.09 -79.806)" fill="#0b0606"/>
  <path id="패스_22838" data-name="패스 22838" d="M101.443,96.057l-.059-1.069-.062-1.069-.021-1.071-.087-1.068,0-1.072-.081-1.074-.919-.672-.9-.682-.95-.618-.4-.283-.02,1.06L98,89.512l-.034,1.073.024,1.074.124,1.067.161,1.017.2,1.009.177,1.015-.014.213.963.779,1.008.715,1.067.674-.141-1.058Z" transform="translate(-67.912 -60.587)" fill="#0b0606"/>
  <path id="패스_22839" data-name="패스 22839" d="M90.248,87.923l-.113-1.156.01-1.162.022-1.161.014-1.161-.021-1.171-.868-.632-.763-.771-.28,1.107-.18,1.1-.044,1.119.117,1.114.267,1.086.363,1.058.522.991.587.954.7.895-.2-1.111Z" transform="translate(-61.036 -55.964)" fill="#0b0606"/>
  <path id="패스_22840" data-name="패스 22840" d="M99.273,77.53l1.168-.2,1.145-.249-.856-.183-.875-.175-1.24-.039-1.238.082-1.232.163-1.218.248-1.23.167-1.227.1.7.626.784.535,1.042-.3,1.069-.2,1.065-.21,1.065-.213Z" transform="translate(-64.118 -53.174)" fill="#0b0606"/>
  <path id="패스_22841" data-name="패스 22841" d="M109.459,82.333l1.165-.225,1.147-.27-1.118-.883-1.241-.709-1.048.277L107,80.8l-1.37.249-1.117.147-1.117.147-1.1.253-1.074.226.806.526.973.667.971.654,1.081-.3,1.095-.284,1.1-.277,1.107-.235Z" transform="translate(-70.187 -55.642)" fill="#0b0606"/>
  <path id="패스_22842" data-name="패스 22842" d="M116.857,92.643l1.673-.09,1.065-.3,1.05-.35,1.3-.335,1.306-.3-.639-.977-.736-.9-.753-.878-.833.121-1.4.264L117.5,89.2l-1.053.236-1.05.251-1.057.216-1.03.205,1.016.778,1.036.793,1.076.738Z" transform="translate(-78.568 -61.369)" fill="#0b0606"/>
  <path id="패스_22843" data-name="패스 22843" d="M133.681,104.358l1.194-.1,1.17-.267,1.138-.368-.46-.85-.484-.842-.361-.673-.625.125-1.037.278-1.05.223-1.027.308-1.631.43.975.622.988.577.977.589Z" transform="translate(-90.492 -70.212)" fill="#0b0606"/>
  <path id="패스_22844" data-name="패스 22844" d="M147.715,112.5l-1.215.376-1.248.25.265.173.876.535.871.541.859.562.852.578-.223-1.069-.382-1.019-.427-1Z" transform="translate(-100.716 -77.951)" fill="#0b0606"/>
  <path id="패스_22845" data-name="패스 22845" d="M119.9,1.451l-.275,1.168-.272,1.305-.285,1.295,1.012-.583,1.044-.533,1.077-.463,1.106-.387,1.119-.348,1.154-.232-.895-.827-1.039-.627L122.514.765,121.336.456l-1.2-.17Z" transform="translate(-82.558 -0.198)" fill="#0b0606"/>
  <path id="패스_22846" data-name="패스 22846" d="M110.82,0l-.909.051L109,.215l-.211,1.124-.118,1.128L108.621,3.6l-.01,1.133.026,1.134.121,1.127.075.169.98-.776,1-.74-.049-.186.066-1.023.257-1,.351-.969.36-1.22.286-1.232Z" transform="translate(-75.31 -0.001)" fill="#0b0606"/>
  <path id="패스_22847" data-name="패스 22847" d="M86.81,9.561,86.644,8.6l-.794.6-.657.735-.288.921.276-.377-.64,1.294,1.306-.193,1.291.444L87,10.788Z" transform="translate(-58.62 -5.962)" fill="#0b0606"/>
  <path id="패스_22848" data-name="패스 22848" d="M98.381,8.165l-.214-1.232-.04-1.248.079-1.246.129-1.055.156-1.052L98.729,1.3l-1.2.382-1.169.484-1.141.546-.439.212.182.979.206.976.3,1.3.163,1.326.967.651.765.876.319.409.9-.792-.132-.414Z" transform="translate(-65.716 -0.9)" fill="#0b0606"/>
  <path id="패스_22849" data-name="패스 22849" d="M113.753,38.454l-.966-.216-.954-.267-.937-.32-.931-.343-.908-.4-.866-.471.3,1.041.23,1.064.228,1.064.2,1.07.26,1.067.9-.156.763-.506.929-.518.9-.57.862-.624.773-.73Z" transform="translate(-75.018 -25.266)" fill="#0b0606"/>
  <path id="패스_22850" data-name="패스 22850" d="M130.408,11.28l.664.116.149-.972.37-.91-1.154.448-1.138.484-1.119.534,1.121.108Z" transform="translate(-88.879 -6.597)" fill="#0b0606"/>
  <path id="패스_22851" data-name="패스 22851" d="M120.381,17.427l-1.079-.193-1.09-.115-1.095-.046-.446-.27-1.005.589-.955.652-.967.638h.361l.381.2,1.017.187,1.01.242,1.011.236,1,.275,1.089.309,1.061.347.2-1.2.078-1.227.053-.5Z" transform="translate(-78.868 -11.65)" fill="#0b0606"/>
  <path id="패스_22852" data-name="패스 22852" d="M112.777,27.258l-1.21-.331-1.2-.372-1.222-.286-1.219-.278-.9.088-.239-.045-.3.171-1.071.962.074.1.144.171.892.787,1.044.576,1.123.412,1.141.355,1.317.34,1.323.32,1.016.134.683-1.148.44-1.237-.908-.364Z" transform="translate(-73.095 -18.022)" fill="#0b0606"/>
</svg>
