<svg xmlns="http://www.w3.org/2000/svg" xmlns:xlink="http://www.w3.org/1999/xlink" width="90" height="90" viewBox="0 0 90 90">
  <defs>
    <linearGradient id="linear-gradient" x1="0.5" x2="0.5" y2="1" gradientUnits="objectBoundingBox">
      <stop offset="0" stop-color="#5680cc"/>
      <stop offset="1" stop-color="#37599a"/>
    </linearGradient>
    <clipPath id="clip-path">
      <rect id="사각형_1230" data-name="사각형 1230" width="36.233" height="59.763" fill="none"/>
    </clipPath>
  </defs>
  <g id="그룹_1666" data-name="그룹 1666" transform="translate(-358 -1115)">
    <g id="그룹_1664" data-name="그룹 1664" transform="translate(358 1115)">
      <circle id="타원_19" data-name="타원 19" cx="45" cy="45" r="45" fill="url(#linear-gradient)"/>
      <circle id="타원_18" data-name="타원 18" cx="42" cy="42" r="42" transform="translate(3 3)" fill="#e4ecfa"/>
    </g>
    <g id="그룹_1659" data-name="그룹 1659" transform="translate(384.884 1130.119)">
      <g id="그룹_1658" data-name="그룹 1658" clip-path="url(#clip-path)">
        <path id="패스_22612" data-name="패스 22612" d="M34.583,61.075H4.963A2.963,2.963,0,0,1,2,58.113V4.963A2.963,2.963,0,0,1,4.963,2h29.62a2.963,2.963,0,0,1,2.963,2.963v53.15a2.963,2.963,0,0,1-2.963,2.963" transform="translate(-1.656 -1.656)" fill="#fff"/>
        <path id="패스_22613" data-name="패스 22613" d="M32.926,59.763H3.307A3.31,3.31,0,0,1,0,56.456V3.307A3.31,3.31,0,0,1,3.307,0h29.62a3.31,3.31,0,0,1,3.307,3.307v53.15a3.31,3.31,0,0,1-3.307,3.307M3.307.688A2.622,2.622,0,0,0,.688,3.307v53.15a2.622,2.622,0,0,0,2.619,2.619h29.62a2.622,2.622,0,0,0,2.619-2.619V3.307A2.622,2.622,0,0,0,32.926.688Z" fill="#084a74"/>
        <path id="패스_22614" data-name="패스 22614" d="M44.287,14.443H37.256v.9a1.106,1.106,0,0,1-1.106,1.106H25.55a1.106,1.106,0,0,1-1.106-1.106v-.9H17.413a2.174,2.174,0,0,0-2.174,2.174v50.4a2.174,2.174,0,0,0,2.174,2.174H44.287a2.174,2.174,0,0,0,2.174-2.174v-50.4a2.174,2.174,0,0,0-2.174-2.174" transform="translate(-12.619 -11.959)" fill="#5879da"/>
        <path id="패스_22615" data-name="패스 22615" d="M42.631,67.882H15.757a2.521,2.521,0,0,1-2.518-2.518v-50.4a2.52,2.52,0,0,1,2.518-2.518h7.375v1.244a.763.763,0,0,0,.762.762h10.6a.763.763,0,0,0,.762-.762V12.443h7.375a2.52,2.52,0,0,1,2.518,2.518v50.4a2.521,2.521,0,0,1-2.518,2.518M15.757,13.131a1.832,1.832,0,0,0-1.83,1.83v50.4a1.832,1.832,0,0,0,1.83,1.83H42.631a1.832,1.832,0,0,0,1.83-1.83v-50.4a1.832,1.832,0,0,0-1.83-1.83H35.944v.556a1.451,1.451,0,0,1-1.45,1.45h-10.6a1.451,1.451,0,0,1-1.45-1.45v-.556Z" transform="translate(-10.962 -10.303)" fill="#084a74"/>
        <path id="패스_22616" data-name="패스 22616" d="M92.837,12.614H87.712a.569.569,0,0,1,0-1.139h5.125a.569.569,0,1,1,0,1.139" transform="translate(-72.158 -9.502)" fill="#6bb0ff"/>
        <path id="패스_22617" data-name="패스 22617" d="M91.389,11.466H86.264a.87.87,0,0,1,0-1.741h5.125a.87.87,0,0,1,0,1.741m-5.125-1.139a.269.269,0,0,0,0,.537h5.125a.269.269,0,0,0,0-.537Z" transform="translate(-70.71 -8.053)" fill="#084a74"/>
        <path id="패스_22618" data-name="패스 22618" d="M57.748,105.047a19.976,19.976,0,0,1-10.025,4.43v7.883a11.573,11.573,0,0,0,10.025,11.279A11.573,11.573,0,0,0,67.774,117.36v-7.883a19.976,19.976,0,0,1-10.025-4.43" transform="translate(-39.517 -86.984)" fill="#ffdf6c"/>
        <path id="패스_22619" data-name="패스 22619" d="M55.713,127.028a.428.428,0,0,1-.063,0,12.45,12.45,0,0,1-7.394-3.961,11.575,11.575,0,0,1-2.991-7.736v-7.883a.423.423,0,0,1,.354-.417,19.6,19.6,0,0,0,9.812-4.328.422.422,0,0,1,.563,0,19.6,19.6,0,0,0,9.812,4.328.423.423,0,0,1,.354.417v7.883a11.575,11.575,0,0,1-2.991,7.736,12.45,12.45,0,0,1-7.394,3.961.436.436,0,0,1-.063,0M46.11,107.8v7.527a11.084,11.084,0,0,0,9.6,10.852,11.084,11.084,0,0,0,9.6-10.852V107.8a20.539,20.539,0,0,1-9.6-4.226,20.537,20.537,0,0,1-9.6,4.226" transform="translate(-37.481 -84.95)" fill="#084a74"/>
        <path id="패스_22620" data-name="패스 22620" d="M70,122.453a14.907,14.907,0,0,1-7.482,3.306v5.883A8.637,8.637,0,0,0,70,140.059a8.637,8.637,0,0,0,7.482-8.417v-5.883A14.908,14.908,0,0,1,70,122.453" transform="translate(-51.766 -101.397)" fill="#ffc741"/>
        <path id="패스_22621" data-name="패스 22621" d="M67.963,138.448a.434.434,0,0,1-.063,0,9.007,9.007,0,0,1-7.841-8.835v-5.883a.423.423,0,0,1,.354-.417,14.519,14.519,0,0,0,7.269-3.2.422.422,0,0,1,.563,0,14.52,14.52,0,0,0,7.269,3.2.423.423,0,0,1,.354.417v5.883a9.007,9.007,0,0,1-7.841,8.835.437.437,0,0,1-.063,0M60.9,124.08v5.528a8.164,8.164,0,0,0,7.059,7.99,8.164,8.164,0,0,0,7.059-7.99V124.08a15.455,15.455,0,0,1-7.059-3.1,15.454,15.454,0,0,1-7.059,3.1" transform="translate(-49.732 -99.363)" fill="#084a74"/>
        <path id="패스_22622" data-name="패스 22622" d="M94.2,150.086a2.708,2.708,0,1,0-2.541-2.7,2.629,2.629,0,0,0,2.541,2.7" transform="translate(-75.895 -119.802)" fill="#084a74"/>
        <path id="패스_22623" data-name="패스 22623" d="M90.82,178.1A4.13,4.13,0,0,0,88.6,175a2.831,2.831,0,0,1-3.731,0,4.13,4.13,0,0,0-2.221,3.1.5.5,0,0,0,.5.58h7.182a.5.5,0,0,0,.5-.58" transform="translate(-68.431 -144.905)" fill="#084a74"/>
      </g>
    </g>
  </g>
</svg>
