<svg xmlns="http://www.w3.org/2000/svg" xmlns:xlink="http://www.w3.org/1999/xlink" width="90" height="90" viewBox="0 0 90 90">
  <defs>
    <linearGradient id="linear-gradient" x1="0.5" x2="0.5" y2="1" gradientUnits="objectBoundingBox">
      <stop offset="0" stop-color="#5680cc"/>
      <stop offset="1" stop-color="#37599a"/>
    </linearGradient>
    <clipPath id="clip-path">
      <rect id="사각형_1232" data-name="사각형 1232" width="62.803" height="50.645" fill="none"/>
    </clipPath>
  </defs>
  <g id="그룹_1695" data-name="그룹 1695" transform="translate(-920.667 -1114.667)">
    <g id="그룹_1665" data-name="그룹 1665" transform="translate(920.667 1114.667)">
      <circle id="타원_19" data-name="타원 19" cx="45" cy="45" r="45" transform="translate(0)" fill="url(#linear-gradient)"/>
      <circle id="타원_18" data-name="타원 18" cx="41" cy="41" r="41" transform="translate(4 4)" fill="#e4ecfa"/>
    </g>
    <g id="그룹_1661" data-name="그룹 1661" transform="translate(934.265 1136.221)">
      <g id="그룹_1660" data-name="그룹 1660" clip-path="url(#clip-path)">
        <path id="패스_22624" data-name="패스 22624" d="M62.344,46.589H4.894A2.188,2.188,0,0,1,2.706,44.4V4.895A2.188,2.188,0,0,1,4.894,2.707h57.45a2.188,2.188,0,0,1,2.188,2.188V44.4a2.188,2.188,0,0,1-2.188,2.188" transform="translate(-2.217 -2.218)" fill="#fff"/>
        <path id="패스_22625" data-name="패스 22625" d="M59.353,44.859H3.45A3.453,3.453,0,0,1,0,41.41V3.45A3.454,3.454,0,0,1,3.45,0h55.9A3.454,3.454,0,0,1,62.8,3.45V41.41a3.454,3.454,0,0,1-3.45,3.449M3.45.977A2.475,2.475,0,0,0,.977,3.45V41.41A2.475,2.475,0,0,0,3.45,43.882h55.9a2.475,2.475,0,0,0,2.472-2.472V3.45A2.475,2.475,0,0,0,59.353.977Z" fill="#084a74"/>
        <path id="패스_22626" data-name="패스 22626" d="M13.769,46.883v-32.4a.712.712,0,0,1,.712-.712H70.887a.712.712,0,0,1,.712.712v32.4a.712.712,0,0,1-.712.712H14.481a.712.712,0,0,1-.712-.712" transform="translate(-11.283 -11.283)" fill="#5879da"/>
        <path id="패스_22627" data-name="패스 22627" d="M68.418,45.866h-55.9a1.454,1.454,0,0,1-1.452-1.452v-31.9a1.454,1.454,0,0,1,1.452-1.452h55.9a1.454,1.454,0,0,1,1.452,1.452v31.9a1.454,1.454,0,0,1-1.452,1.452m-55.9-33.826a.475.475,0,0,0-.475.475v31.9a.475.475,0,0,0,.475.474h55.9a.475.475,0,0,0,.475-.474v-31.9a.475.475,0,0,0-.475-.475Z" transform="translate(-9.065 -9.064)" fill="#084a74"/>
        <path id="패스_22628" data-name="패스 22628" d="M167.661,215.008a1.761,1.761,0,1,1-1.761-1.761,1.761,1.761,0,0,1,1.761,1.761" transform="translate(-134.499 -174.738)" fill="#9fccff"/>
        <path id="패스_22629" data-name="패스 22629" d="M163.406,214.824a2.31,2.31,0,1,1,2.311-2.31,2.313,2.313,0,0,1-2.311,2.31m0-3.521a1.211,1.211,0,1,0,1.211,1.211,1.212,1.212,0,0,0-1.211-1.211" transform="translate(-132.004 -172.244)" fill="#084a74"/>
        <rect id="사각형_1231" data-name="사각형 1231" width="14" height="2.685" transform="translate(24.401 44.371)" fill="#e9e9e9"/>
        <path id="패스_22630" data-name="패스 22630" d="M147.4,246.663H132.418V243H147.4Zm-14-.978h13.023v-1.707H133.4Z" transform="translate(-108.506 -199.119)" fill="#084a74"/>
        <path id="패스_22631" data-name="패스 22631" d="M119.708,263.676H89.076a3.1,3.1,0,0,1,3.1-3.1h24.43a3.1,3.1,0,0,1,3.1,3.1" transform="translate(-72.99 -213.52)" fill="#fff"/>
        <path id="패스_22632" data-name="패스 22632" d="M117.979,261.946H86.37v-.489a3.594,3.594,0,0,1,3.589-3.59h24.43a3.594,3.594,0,0,1,3.589,3.59Zm-30.586-.978h29.562a2.616,2.616,0,0,0-2.566-2.123H89.959a2.616,2.616,0,0,0-2.566,2.123" transform="translate(-70.773 -211.302)" fill="#084a74"/>
        <path id="패스_22633" data-name="패스 22633" d="M32.309,233.871h-7.47a.489.489,0,1,1,0-.977h7.47a.489.489,0,1,1,0,.977" transform="translate(-19.953 -190.837)" fill="#084a74"/>
        <path id="패스_22634" data-name="패스 22634" d="M80.6,233.871H77.479a.489.489,0,0,1,0-.977H80.6a.489.489,0,1,1,0,.977" transform="translate(-63.087 -190.837)" fill="#084a74"/>
        <path id="패스_22635" data-name="패스 22635" d="M52.3,79.477c-1.011-.218-6.836-1.7-6.836-1.7s-1.728-.409-1.728.986V89.284a1.281,1.281,0,0,0,1.4,1.075,41.011,41.011,0,0,0,5.807-1.348l.7-.2c.576-.164.945-.273.945-.273a1.117,1.117,0,0,0,.717-1.088V83.893l-.953.179v2.738c0,.71-.483.8-.483.8l-.248.053-.676.141a40.045,40.045,0,0,1-4.191.715.891.891,0,0,1-.957-.763V80.3c0-.989,1.185-.7,1.185-.7s4.19.786,4.887.919a.589.589,0,0,1,.483.605v2.123l.953-.235V80.975s.013-1.28-1-1.5" transform="translate(-35.841 -63.684)" fill="#47c6f3"/>
        <path id="패스_22636" data-name="패스 22636" d="M89.184,102.363s-1.772.452-3.2.807l-.953.236c-.318.077-.567.137-.7.165-.717.154-.708,1.063-.708,1.063v3.333l.676-.141v-3.089a.418.418,0,0,1,.343-.429l.389-.073.953-.179,2.125-.4s.84-.206.84.5v5.293a.632.632,0,0,1-.678.541c-.622,0-3.629-.644-3.629-.644a.454.454,0,0,1-.32-.366l-.7.2v.055a.792.792,0,0,0,.509.772,45.2,45.2,0,0,0,5.286,1.29.909.909,0,0,0,.99-.763v-7.465c0-.99-1.226-.7-1.226-.7" transform="translate(-68.525 -83.846)" fill="#f7961e"/>
        <path id="패스_22637" data-name="패스 22637" d="M140.03,99.027a2.223,2.223,0,1,0,2.648,2.182,2.449,2.449,0,0,0-2.648-2.182m0,3.707a1.581,1.581,0,1,1,1.165-1.525,1.382,1.382,0,0,1-1.165,1.525" transform="translate(-112.573 -81.144)" fill="#fff"/>
        <path id="패스_22638" data-name="패스 22638" d="M195.4,99.027a2.223,2.223,0,1,0,2.648,2.182,2.449,2.449,0,0,0-2.648-2.182m0,3.707a1.581,1.581,0,1,1,1.165-1.525,1.382,1.382,0,0,1-1.165,1.525" transform="translate(-157.945 -81.144)" fill="#fff"/>
        <path id="패스_22639" data-name="패스 22639" d="M173.4,96.8v7.415h1.441V99.891h1.356v-.805h-1.4V96.8Z" transform="translate(-142.084 -79.318)" fill="#fff"/>
        <path id="패스_22640" data-name="패스 22640" d="M221.142,97.218s1.144-2.034,2.521-2.5,1.229.911,1.229.911l-1.8,4.809s-.064,2.034,2.839-1.25c0,0-1.356,2.521-2.923,2.521s-1.568-.551-1.419-1.165,1.8-4.66,1.8-4.66.275-1.589-2.246,1.334" transform="translate(-181.208 -77.535)" fill="#fff"/>
        <path id="패스_22641" data-name="패스 22641" d="M255.378,96.915v3.453h-1.8V98.017h.763v-.763h-6.313l-.021.784h1.186V100.5h-1.144v.763h4.6a12.014,12.014,0,0,0,2.754-.509v1.356h1.589v-5.19Zm-3.517,3.6h-1.155v-2.5h1.155Z" transform="translate(-203.22 -79.414)" fill="#fff"/>
        <path id="패스_22642" data-name="패스 22642" d="M258.585,128.86v-.974h-1.546v1.822h7.372v-.847Z" transform="translate(-210.622 -104.792)" fill="#fff"/>
      </g>
    </g>
  </g>
</svg>
